<svg width="68" height="68" viewBox="0 0 68 68" fill="none" xmlns="http://www.w3.org/2000/svg">
<path d="M26.5607 13.106C25.9749 12.5202 25.0251 12.5202 24.4393 13.106C23.8536 13.6918 23.8536 14.6415 24.4393 15.2273L26.5607 13.106ZM45.3333 34L46.394 35.0607C46.9798 34.4749 46.9798 33.5251 46.394 32.9393L45.3333 34ZM24.4393 52.7727C23.8536 53.3585 23.8536 54.3082 24.4393 54.894C25.0251 55.4798 25.9749 55.4798 26.5607 54.894L24.4393 52.7727ZM24.4393 15.2273L44.2727 35.0607L46.394 32.9393L26.5607 13.106L24.4393 15.2273ZM44.2727 32.9393L24.4393 52.7727L26.5607 54.894L46.394 35.0607L44.2727 32.9393Z" fill="black"/>
</svg>
