<svg width="67" height="68" viewBox="0 0 67 68" fill="none" xmlns="http://www.w3.org/2000/svg">
<path d="M40.8062 54.8861C41.3876 55.4762 42.3373 55.4832 42.9274 54.9018C43.5176 54.3204 43.5246 53.3707 42.9432 52.7806L40.8062 54.8861ZM22.333 34L21.2645 32.9472C20.6892 33.5312 20.6892 34.4688 21.2645 35.0528L22.333 34ZM42.9432 15.2194C43.5246 14.6293 43.5176 13.6796 42.9274 13.0982C42.3373 12.5167 41.3876 12.5238 40.8062 13.1139L42.9432 15.2194ZM42.9432 52.7806L23.4015 32.9472L21.2645 35.0528L40.8062 54.8861L42.9432 52.7806ZM23.4015 35.0528L42.9432 15.2194L40.8062 13.1139L21.2645 32.9472L23.4015 35.0528Z" fill="black"/>
</svg>
