<svg width="18" height="18" viewBox="0 0 18 18" fill="none" xmlns="http://www.w3.org/2000/svg">
<path d="M7.2 7.2C7.2 7.02199 7.14722 6.84799 7.04833 6.69998C6.94943 6.55198 6.80887 6.43663 6.64442 6.36851C6.47996 6.30039 6.299 6.28256 6.12442 6.31729C5.94984 6.35202 5.78947 6.43773 5.66361 6.5636C5.53774 6.68947 5.45202 6.84983 5.4173 7.02442C5.38257 7.199 5.40039 7.37996 5.46851 7.54441C5.53663 7.70887 5.65199 7.84943 5.79999 7.94832C5.94799 8.04721 6.122 8.1 6.3 8.1C6.5387 8.1 6.76762 8.00518 6.9364 7.83639C7.10518 7.66761 7.2 7.43869 7.2 7.2ZM11.25 10.854C11.1478 10.7941 11.0348 10.755 10.9175 10.7389C10.8002 10.7228 10.6808 10.7299 10.5662 10.76C10.4517 10.7901 10.3442 10.8426 10.25 10.9143C10.1557 10.986 10.0765 11.0756 10.017 11.178C9.91483 11.3576 9.7669 11.507 9.58827 11.6109C9.40963 11.7148 9.20666 11.7695 9 11.7695C8.79335 11.7695 8.59038 11.7148 8.41174 11.6109C8.2331 11.507 8.08518 11.3576 7.983 11.178C7.92346 11.0756 7.84429 10.986 7.75004 10.9143C7.65579 10.8426 7.54831 10.7901 7.43376 10.76C7.31921 10.7299 7.19985 10.7228 7.08252 10.7389C6.96518 10.755 6.85219 10.7941 6.75 10.854C6.54414 10.9727 6.3936 11.1681 6.33121 11.3974C6.26883 11.6267 6.29967 11.8713 6.417 12.078C6.67804 12.5323 7.0543 12.9098 7.50781 13.1722C7.96131 13.4347 8.47602 13.5729 9 13.5729C9.52398 13.5729 10.0387 13.4347 10.4922 13.1722C10.9457 12.9098 11.322 12.5323 11.583 12.078C11.7003 11.8713 11.7312 11.6267 11.6688 11.3974C11.6064 11.1681 11.4559 10.9727 11.25 10.854V10.854ZM11.7 6.3C11.522 6.3 11.348 6.35278 11.2 6.45168C11.052 6.55057 10.9366 6.69113 10.8685 6.85558C10.8004 7.02004 10.7826 7.201 10.8173 7.37558C10.852 7.55016 10.9377 7.71053 11.0636 7.83639C11.1895 7.96226 11.3498 8.04798 11.5244 8.0827C11.699 8.11743 11.88 8.09961 12.0444 8.03149C12.2089 7.96337 12.3494 7.84802 12.4483 7.70001C12.5472 7.55201 12.6 7.378 12.6 7.2C12.6 6.9613 12.5052 6.73238 12.3364 6.5636C12.1676 6.39482 11.9387 6.3 11.7 6.3ZM9 0C7.21997 0 5.47991 0.527841 3.99987 1.51677C2.51983 2.50571 1.36628 3.91131 0.685088 5.55585C0.00389956 7.20038 -0.17433 9.00998 0.172937 10.7558C0.520203 12.5016 1.37737 14.1053 2.63604 15.364C3.89472 16.6226 5.49836 17.4798 7.24419 17.8271C8.99002 18.1743 10.7996 17.9961 12.4442 17.3149C14.0887 16.6337 15.4943 15.4802 16.4832 14.0001C17.4722 12.5201 18 10.78 18 9C18 7.8181 17.7672 6.64778 17.3149 5.55585C16.8626 4.46392 16.1997 3.47177 15.364 2.63604C14.5282 1.80031 13.5361 1.13738 12.4442 0.685084C11.3522 0.232792 10.1819 0 9 0V0ZM9 16.2C7.32358 16.2072 5.69719 15.6293 4.40129 14.5657C3.10539 13.5022 2.22122 12.0198 1.90127 10.3742C1.58132 8.72858 1.84564 7.0229 2.64864 5.55129C3.45165 4.07969 4.743 2.93443 6.3 2.313C6.29075 2.44183 6.29075 2.57117 6.3 2.7C6.3 3.41608 6.58447 4.10284 7.09081 4.60919C7.59716 5.11553 8.28392 5.4 9 5.4C9.2387 5.4 9.46762 5.30518 9.6364 5.13639C9.80518 4.96761 9.9 4.73869 9.9 4.5C9.9 4.2613 9.80518 4.03239 9.6364 3.8636C9.46762 3.69482 9.2387 3.6 9 3.6C8.76131 3.6 8.53239 3.50518 8.36361 3.33639C8.19482 3.16761 8.1 2.93869 8.1 2.7C8.1 2.4613 8.19482 2.23239 8.36361 2.0636C8.53239 1.89482 8.76131 1.8 9 1.8C10.9096 1.8 12.7409 2.55857 14.0912 3.90883C15.4414 5.25909 16.2 7.09044 16.2 9C16.2 10.9096 15.4414 12.7409 14.0912 14.0912C12.7409 15.4414 10.9096 16.2 9 16.2V16.2Z" fill="#FF8F20"/>
</svg>
