<svg width="48" height="48" viewBox="0 0 48 48" fill="none" xmlns="http://www.w3.org/2000/svg">
<path d="M21 29V28C20.4477 28 20 28.4477 20 29H21ZM27 29H28C28 28.4477 27.5523 28 27 28V29ZM21 30H27V28H21V30ZM26 29V30H28V29H26ZM22 30V29H20V30H22ZM24 32C22.8954 32 22 31.1046 22 30H20C20 32.2091 21.7909 34 24 34V32ZM26 30C26 31.1046 25.1046 32 24 32V34C26.2091 34 28 32.2091 28 30H26Z" fill="#949494"/>
<path d="M16.2929 26.7071L15.5858 26L15.5858 26L16.2929 26.7071ZM16.8037 26.1963L17.5108 26.9034L17.5108 26.9034L16.8037 26.1963ZM31.1963 26.1963L31.9034 25.4892L31.9034 25.4892L31.1963 26.1963ZM31.7071 26.7071L32.4142 26L32.4142 26L31.7071 26.7071ZM24 15L24 16L24 15ZM31 28H17V30H31V28ZM17 28V27.4142H15V28H17ZM17 27.4142L17.5108 26.9034L16.0966 25.4892L15.5858 26L17 27.4142ZM18 25.7224V22H16V25.7224H18ZM30 22V25.7224H32V22H30ZM30.4892 26.9034L31 27.4142L32.4142 26L31.9034 25.4892L30.4892 26.9034ZM31 27.4142V28H33V27.4142H31ZM31 27.4142L31 27.4142H33C33 26.8838 32.7893 26.3751 32.4142 26L31 27.4142ZM30 25.7224C30 26.1653 30.176 26.5901 30.4892 26.9034L31.9034 25.4892C31.9653 25.551 32 25.6349 32 25.7224H30ZM32 22C32 17.5817 28.4183 14 24 14L24 16C27.3137 16 30 18.6863 30 22H32ZM18 22C18 18.6863 20.6863 16 24 16L24 14C19.5817 14 16 17.5817 16 22H18ZM17.5108 26.9034C17.824 26.5902 18 26.1654 18 25.7224H16C16 25.635 16.0348 25.5511 16.0966 25.4892L17.5108 26.9034ZM17 27.4142L17 27.4142L15.5858 26C15.2107 26.3751 15 26.8838 15 27.4142H17ZM17 28H15C15 29.1046 15.8954 30 17 30V28ZM31 30C32.1046 30 33 29.1046 33 28H31V30Z" fill="#949494"/>
</svg>
