<svg width="14" height="14" viewBox="0 0 14 14" fill="none" xmlns="http://www.w3.org/2000/svg">
<path d="M4.21115 1.05699L3.51945 1.26358C2.8329 1.46836 2.3077 2.01786 2.13735 2.70728C1.73429 4.34676 2.21835 6.34176 3.58952 8.69349C4.95877 11.0416 6.45916 12.4541 8.09133 12.9291C8.78238 13.1309 9.53 12.9531 10.0533 12.4625L10.5785 11.9688C11.069 11.5094 11.1403 10.7606 10.7456 10.2183L9.95299 9.13128C9.61229 8.66406 9.0093 8.46588 8.45517 8.63884L6.99207 9.09405C6.39875 8.67105 5.90232 8.14112 5.53218 7.53564C5.14262 6.90988 4.90991 6.2739 4.8347 5.62772L6.05288 4.54794C6.49002 4.15999 6.62373 3.53603 6.3833 3.00575L5.83046 1.78845C5.55275 1.1759 4.85977 0.863615 4.21115 1.05699Z" fill="#525252"/>
</svg>
