<svg width="12" height="10" viewBox="0 0 12 10" fill="none" xmlns="http://www.w3.org/2000/svg">
<g clip-path="url(#clip0_202_2061)">
<path d="M11.7 8.74991H11.2373L6.74138 2.29972L7.74281 0.863195C7.84013 0.723547 7.8105 0.528039 7.67644 0.426672L7.19081 0.0596799C7.05675 -0.0416873 6.86925 -0.0108279 6.77175 0.129016L6 1.23624L5.22806 0.12882C5.13075 -0.0108279 4.94306 -0.0418826 4.809 0.0594846L4.32375 0.426672C4.18969 0.528039 4.15988 0.723547 4.25738 0.863195L5.25881 2.29972L0.76275 8.74991H0.3C0.13425 8.74991 0 8.88976 0 9.06241V9.68741C0 9.86007 0.13425 9.99991 0.3 9.99991H11.7C11.8658 9.99991 12 9.86007 12 9.68741V9.06241C12 8.88976 11.8658 8.74991 11.7 8.74991ZM6 5.62491L8.18175 8.74991H3.81825L6 5.62491Z" fill="#525252"/>
</g>
<defs>
<clipPath id="clip0_202_2061">
<rect width="12" height="10" fill="white"/>
</clipPath>
</defs>
</svg>
