<svg width="15" height="18" viewBox="0 0 15 18" fill="none" xmlns="http://www.w3.org/2000/svg">
<path d="M13.9659 1.44643V0.946429H13.4659H3.22727V0.5H14.3182C14.4473 0.5 14.5 0.590729 14.5 0.642857V14.9286H13.9659V1.44643ZM4.30518 17.4879L4.28947 17.4824L4.28243 17.4787C4.25805 17.466 4.24392 17.4551 4.23576 17.4474L0.54329 13.9659C0.510867 13.9353 0.5 13.9023 0.5 13.8757V3.21429C0.5 3.16216 0.552705 3.07143 0.681818 3.07143H11.5909C11.72 3.07143 11.7727 3.16216 11.7727 3.21429V17.3571C11.7727 17.4093 11.72 17.5 11.5909 17.5H4.37429C4.35164 17.5 4.3286 17.4961 4.30518 17.4879ZM4.73011 17.2143H5.23011V16.7143V13.7009V13.2009H4.73011H1.53409H1.03409V13.7009V13.7049V13.9207L1.19108 14.0687L4.38285 17.0781L4.52731 17.2143H4.72585H4.73011Z" stroke="#525252"/>
</svg>
