<svg width="44" height="44" viewBox="0 0 44 44" fill="none" xmlns="http://www.w3.org/2000/svg">
<path d="M29.3536 19.3536C29.5488 19.1583 29.5488 18.8417 29.3536 18.6464C29.1583 18.4512 28.8417 18.4512 28.6464 18.6464L29.3536 19.3536ZM22 26L21.6464 26.3536C21.7402 26.4473 21.8674 26.5 22 26.5C22.1326 26.5 22.2598 26.4473 22.3536 26.3536L22 26ZM15.3536 18.6464C15.1583 18.4512 14.8417 18.4512 14.6464 18.6464C14.4512 18.8417 14.4512 19.1583 14.6464 19.3536L15.3536 18.6464ZM28.6464 18.6464L21.6464 25.6464L22.3536 26.3536L29.3536 19.3536L28.6464 18.6464ZM22.3536 25.6464L15.3536 18.6464L14.6464 19.3536L21.6464 26.3536L22.3536 25.6464Z" fill="#878787"/>
</svg>
