<svg width="50" height="50" viewBox="0 0 50 50" fill="none" xmlns="http://www.w3.org/2000/svg">
<path d="M18.9074 31.0046L18.9076 31.0045C19.0577 30.9379 19.3029 30.8905 19.6278 30.8722C19.9427 30.8545 20.2912 30.8661 20.6219 30.891C20.9511 30.9158 21.2537 30.9531 21.4744 30.9843C21.5845 30.9999 21.6735 31.0139 21.7345 31.0239C21.765 31.0288 21.7884 31.0328 21.8039 31.0355L21.818 31.038L28.4143 32.4764L28.4151 32.4766C28.419 32.4778 28.4235 32.4792 28.4285 32.4807C28.4409 32.4844 28.4564 32.489 28.4748 32.4944C28.5262 32.5094 28.6003 32.5306 28.6938 32.5558C28.8805 32.6062 29.1451 32.6731 29.4596 32.74C30.0844 32.8728 30.9251 33.0095 31.7509 33.0095C31.8921 33.0095 31.9693 33.0333 32.0061 33.0509C32.0372 33.0657 32.046 33.0785 32.0516 33.0885C32.0719 33.1246 32.1035 33.2479 32.0339 33.4995C31.897 33.9942 31.4743 34.5927 31.0509 34.8864L31.0506 34.8866C30.583 35.2116 30.1901 35.3579 29.9273 35.4242C29.7954 35.4576 29.6949 35.471 29.6327 35.4765C29.6015 35.4792 29.58 35.4799 29.5688 35.4801L29.5615 35.4801L29.5577 35.4799L29.5478 35.4798L24.1979 35.4166L24.1046 36.4089L24.192 35.9166L24.1047 36.4089L24.1049 36.4089L24.1056 36.4091L24.1082 36.4095L24.1184 36.4113L24.1581 36.4183L24.3098 36.4449C24.4412 36.4678 24.6307 36.5006 24.8636 36.5402C25.3293 36.6195 25.9688 36.7264 26.6637 36.8365C28.0435 37.0552 29.6736 37.292 30.5827 37.3453C31.1243 37.377 31.7978 37.2131 32.4972 36.9859C33.2113 36.7539 34.0232 36.431 34.8605 36.0969L34.8924 36.0842C36.5821 35.4099 38.3762 34.694 39.9053 34.4481C41.3513 34.2155 42.0434 34.7306 42.3218 35.2591C42.6341 35.852 42.5081 36.5631 42.1649 36.9052L42.1648 36.9054C42.0787 36.9913 41.879 37.1399 41.5508 37.3469C41.234 37.5467 40.8293 37.7815 40.3613 38.0396C39.4261 38.5556 38.256 39.1552 37.0689 39.7407C34.683 40.9175 32.2761 42.0139 31.5832 42.2606C30.9514 42.4851 30.2082 42.5275 29.3265 42.4835C28.8165 42.458 28.3061 42.4079 27.7618 42.3545C27.3353 42.3126 26.8879 42.2687 26.4037 42.233L26.4037 42.233C24.6517 42.1039 23.3162 41.6911 21.9436 41.2668C21.8978 41.2527 21.852 41.2385 21.8061 41.2243C20.3837 40.7851 18.9123 40.346 16.9645 40.2699L16.9643 40.2699C16.4173 40.2486 15.3075 40.2966 14.5 40.3382V32.6067C15.8917 32.1234 18.2456 31.2975 18.9074 31.0046ZM7.5 31.3359C7.5 31.2153 7.54917 31.0966 7.64145 31.0069C7.73421 30.9167 7.86293 30.8636 8 30.8636H11C11.1371 30.8636 11.2658 30.9167 11.3585 31.0069C11.4508 31.0966 11.5 31.2153 11.5 31.3359V42.0277C11.5 42.1483 11.4508 42.267 11.3585 42.3567C11.2658 42.4469 11.1371 42.5 11 42.5H8C7.86293 42.5 7.73421 42.4469 7.64145 42.3567C7.54917 42.267 7.5 42.1483 7.5 42.0277V31.3369V31.3359ZM26.4999 22.0298C26.4999 23.6945 25.1876 25.0019 23.5 25.0019C21.8123 25.0019 20.5 23.6945 20.5 22.0298C20.5 21.664 20.6738 21.1172 20.9968 20.4506C21.3113 19.8016 21.7354 19.1018 22.1667 18.4513C22.5968 17.8025 23.0279 17.2121 23.352 16.7834C23.4022 16.7169 23.4499 16.6543 23.4945 16.5961C23.5412 16.6587 23.5914 16.7262 23.6444 16.7981C23.9689 17.2381 24.4007 17.8422 24.8316 18.5005C25.2636 19.1607 25.6887 19.8662 26.0039 20.5106C26.3295 21.1762 26.4999 21.7025 26.4999 22.0298ZM41.4999 17.8517C41.4999 20.1793 39.5279 22.085 36.9999 22.085C34.4719 22.085 32.4999 20.1802 32.4999 17.8517C32.4999 17.3111 32.7692 16.4534 33.2375 15.4075C33.6958 14.3841 34.3107 13.2523 34.9314 12.1926C35.5511 11.1345 36.1715 10.1567 36.6374 9.44288C36.7726 9.23564 36.8948 9.05083 36.9999 8.89297C37.1051 9.05083 37.2272 9.23564 37.3625 9.44288C37.8283 10.1567 38.4488 11.1345 39.0685 12.1926C39.6891 13.2523 40.3041 14.3841 40.7623 15.4075C41.2306 16.4534 41.4999 17.3111 41.4999 17.8517Z" stroke="#989898"/>
</svg>
