<svg width="16" height="16" viewBox="0 0 16 16" fill="none" xmlns="http://www.w3.org/2000/svg">
<path d="M7.99992 4.5C8.15762 4.5 8.30608 4.4256 8.40047 4.29927L8.40062 4.29906L8.40211 4.2971L8.41195 4.28432C8.42125 4.27235 8.43596 4.25368 8.45579 4.22926C8.49549 4.18037 8.55551 4.10873 8.63361 4.02193C8.79039 3.84767 9.01697 3.61574 9.29541 3.38496C9.86648 2.91163 10.587 2.5 11.3333 2.5C12.9026 2.5 14.1666 3.75824 14.1666 5.3C14.1666 5.96322 14.0368 7.11491 13.224 8.52497C12.4097 9.93766 10.8942 11.6367 8.08071 13.3666C8.05633 13.3813 8.02839 13.389 7.99992 13.389C7.97144 13.389 7.94351 13.3813 7.91912 13.3666C5.10567 11.6367 3.59017 9.93766 2.77585 8.52497C1.96306 7.11491 1.83325 5.96322 1.83325 5.3C1.83325 3.75824 3.09727 2.5 4.66658 2.5C5.41284 2.5 6.13336 2.91163 6.70443 3.38496C6.98287 3.61574 7.20945 3.84767 7.36623 4.02193C7.44433 4.10873 7.50435 4.18037 7.54405 4.22926C7.56388 4.25368 7.57858 4.27235 7.58788 4.28432L7.59772 4.2971L7.59921 4.29906L7.59937 4.29927L7.5994 4.2993C7.59947 4.2994 7.59954 4.29949 7.59961 4.29959C7.69401 4.42572 7.84235 4.5 7.99992 4.5Z" stroke="#525252" stroke-linecap="round" stroke-linejoin="round"/>
</svg>
