<svg width="44" height="44" viewBox="0 0 44 44" fill="none" xmlns="http://www.w3.org/2000/svg">
<path d="M22 29.3939L21.5248 30.2738C21.8214 30.434 22.1786 30.434 22.4752 30.2738L22 29.3939ZM22 16.9452L21.0841 17.3466C21.2435 17.7102 21.6029 17.9452 22 17.9452C22.3971 17.9452 22.7565 17.7102 22.9159 17.3466L22 16.9452ZM12 18.7004C12 20.4185 12.6617 22.0069 13.5721 23.3836C14.4836 24.762 15.6806 25.9839 16.8462 26.9911C18.0155 28.0016 19.1801 28.8188 20.0499 29.3825C20.4858 29.665 20.8502 29.8855 21.1075 30.0363C21.2362 30.1118 21.3382 30.1699 21.4092 30.2098C21.4447 30.2297 21.4725 30.2451 21.4919 30.2558C21.5016 30.2612 21.5093 30.2654 21.5148 30.2684C21.5175 30.2699 21.5198 30.2711 21.5214 30.272C21.5223 30.2724 21.523 30.2728 21.5235 30.2731C21.5238 30.2733 21.5241 30.2735 21.5243 30.2735C21.5246 30.2737 21.5248 30.2738 22 29.3939C22.4752 28.5141 22.4754 28.5142 22.4755 28.5142C22.4755 28.5142 22.4756 28.5143 22.4757 28.5143C22.4757 28.5143 22.4755 28.5142 22.4753 28.5141C22.4748 28.5138 22.4737 28.5133 22.4722 28.5124C22.469 28.5107 22.4638 28.5078 22.4565 28.5038C22.4418 28.4957 22.4191 28.4831 22.3886 28.466C22.3278 28.4319 22.2365 28.3799 22.1191 28.311C21.8842 28.1733 21.5455 27.9685 21.1376 27.7041C20.3199 27.1742 19.2345 26.4116 18.1538 25.4779C17.0694 24.5408 16.0164 23.454 15.2404 22.2804C14.4633 21.1053 14 19.8988 14 18.7004H12ZM22.9159 16.5438C21.726 13.8285 19.0297 12.595 16.6113 12.9338C15.3948 13.1042 14.2294 13.6748 13.3688 14.6693C12.5037 15.6691 12 17.0349 12 18.7004H14C14 17.4496 14.3713 16.5673 14.8812 15.978C15.3956 15.3836 16.1052 15.0242 16.8887 14.9145C18.4703 14.6929 20.274 15.4982 21.0841 17.3466L22.9159 16.5438ZM30 18.7004C30 19.8988 29.5367 21.1053 28.7596 22.2804C27.9836 23.454 26.9306 24.5408 25.8462 25.4779C24.7655 26.4116 23.6801 27.1742 22.8624 27.7041C22.4545 27.9685 22.1158 28.1733 21.8809 28.311C21.7635 28.3799 21.6722 28.4319 21.6114 28.466C21.5809 28.4831 21.5582 28.4957 21.5435 28.5038C21.5362 28.5078 21.531 28.5107 21.5278 28.5124C21.5263 28.5133 21.5252 28.5138 21.5247 28.5141C21.5245 28.5142 21.5243 28.5143 21.5243 28.5143C21.5244 28.5143 21.5245 28.5142 21.5245 28.5142C21.5246 28.5142 21.5248 28.5141 22 29.3939C22.4752 30.2738 22.4754 30.2737 22.4757 30.2735C22.4759 30.2735 22.4762 30.2733 22.4765 30.2731C22.477 30.2728 22.4777 30.2724 22.4786 30.272C22.4802 30.2711 22.4825 30.2699 22.4852 30.2684C22.4907 30.2654 22.4984 30.2612 22.5081 30.2558C22.5275 30.2451 22.5553 30.2297 22.5908 30.2098C22.6618 30.1699 22.7638 30.1118 22.8925 30.0363C23.1498 29.8855 23.5142 29.665 23.9501 29.3825C24.8199 28.8188 25.9845 28.0016 27.1538 26.9911C28.3194 25.9839 29.5164 24.762 30.4279 23.3836C31.3383 22.0069 32 20.4185 32 18.7004H30ZM22.9159 17.3466C23.726 15.4982 25.5297 14.6929 27.1113 14.9145C27.8948 15.0242 28.6044 15.3836 29.1188 15.978C29.6287 16.5673 30 17.4496 30 18.7004H32C32 17.0349 31.4963 15.6691 30.6312 14.6693C29.7706 13.6748 28.6052 13.1042 27.3887 12.9338C24.9703 12.595 22.274 13.8285 21.0841 16.5438L22.9159 17.3466Z" fill="#525252"/>
</svg>
