<svg width="50" height="50" viewBox="0 0 50 50" fill="none" xmlns="http://www.w3.org/2000/svg">
<path d="M40 37H46V32" stroke="black" stroke-linecap="square" stroke-linejoin="round"/>
<path d="M15.5 14.5H21.5V24.5H15.5C12.7386 24.5 10.5 22.2614 10.5 19.5C10.5 16.7386 12.7386 14.5 15.5 14.5Z" fill="#F1AB3B" stroke="black"/>
<path d="M29.5 14.5H23.5V24.5H29.5C32.2614 24.5 34.5 22.2614 34.5 19.5C34.5 16.7386 32.2614 14.5 29.5 14.5Z" fill="#F1AB3B" stroke="black"/>
<circle cx="17" cy="37" r="2.5" stroke="black"/>
<mask id="path-5-inside-1_202_2225" fill="white">
<path fill-rule="evenodd" clip-rule="evenodd" d="M17 9C9.8203 9 4 14.8203 4 22V26C4 31.4501 7.35383 36.1169 12.1102 38.049C12.038 37.7108 12 37.3598 12 37C12 34.2386 14.2386 32 17 32C19.7614 32 22 34.2386 22 37C22 37.7111 21.8516 38.3875 21.584 39H35.5C38.8137 39 41.5 36.3137 41.5 33V22C41.5 14.8203 35.6797 9 28.5 9H17Z"/>
</mask>
<path d="M12.1102 38.049L11.7339 38.9755L13.4822 39.6857L13.0882 37.8403L12.1102 38.049ZM21.584 39L20.6676 38.5996L20.0558 40H21.584V39ZM5 22C5 15.3726 10.3726 10 17 10V8C9.26801 8 3 14.268 3 22H5ZM5 26V22H3V26H5ZM12.4866 37.1226C8.09421 35.3383 5 31.0293 5 26H3C3 31.8709 6.61345 36.8955 11.7339 38.9755L12.4866 37.1226ZM13.0882 37.8403C13.0305 37.5702 13 37.2892 13 37H11C11 37.4304 11.0455 37.8514 11.1323 38.2578L13.0882 37.8403ZM13 37C13 34.7909 14.7909 33 17 33V31C13.6863 31 11 33.6863 11 37H13ZM17 33C19.2091 33 21 34.7909 21 37H23C23 33.6863 20.3137 31 17 31V33ZM21 37C21 37.5707 20.8811 38.111 20.6676 38.5996L22.5003 39.4004C22.822 38.664 23 37.8515 23 37H21ZM35.5 38H21.584V40H35.5V38ZM40.5 33C40.5 35.7614 38.2614 38 35.5 38V40C39.366 40 42.5 36.866 42.5 33H40.5ZM40.5 22V33H42.5V22H40.5ZM28.5 10C35.1274 10 40.5 15.3726 40.5 22H42.5C42.5 14.268 36.232 8 28.5 8V10ZM17 10H28.5V8H17V10Z" fill="black" mask="url(#path-5-inside-1_202_2225)"/>
</svg>
