<svg width="64" height="65" viewBox="0 0 64 65" fill="none" xmlns="http://www.w3.org/2000/svg">
<rect x="0.501393" y="0.501393" width="62.9972" height="63.0324" rx="14.5404" stroke="#525252" stroke-width="1.00279"/>
<path d="M44.0817 26.7311L44.1989 26.9663L44.459 27.0037L48.3671 27.5658L45.5426 30.2911L45.3513 30.4756L45.3967 30.7376L46.065 34.591L42.5611 32.7679L42.3297 32.6475L42.0983 32.7679L38.5944 34.591L39.2627 30.7376L39.3081 30.4756L39.1168 30.2911L36.2922 27.5658L40.2004 27.0037L40.4605 26.9663L40.5777 26.7311L42.3297 23.216L44.0817 26.7311ZM36.2698 27.569L36.2698 27.569L36.2698 27.569Z" stroke="#525252" stroke-width="1.00279"/>
<path d="M3.51147 44.3885H13.6606M59.9749 44.3885H29.6705M13.6606 44.3885C9.56113 35.614 13.6606 6.70987 47.5386 11.6222C38.4854 12.6696 19.6439 26.3234 29.6705 44.3885M13.6606 44.3885H29.6705" stroke="#525252" stroke-width="1.00279" stroke-linejoin="round"/>
<path d="M10.5688 51.6145H34.7675" stroke="#525252" stroke-width="1.00279" stroke-linejoin="round"/>
<path d="M19.6438 57.8082H34.7679" stroke="#525252" stroke-width="1.00279" stroke-linejoin="round"/>
</svg>
