<svg width="44" height="44" viewBox="0 0 44 44" fill="none" xmlns="http://www.w3.org/2000/svg">
<path d="M17.2 30C17.2 30 16 30 16 28.75C16 27.5 17.2 23.75 22 23.75C26.8 23.75 28 27.5 28 28.75C28 30 26.8 30 26.8 30H17.2ZM22 22.5C22.9548 22.5 23.8705 22.1049 24.5456 21.4017C25.2207 20.6984 25.6 19.7446 25.6 18.75C25.6 17.7554 25.2207 16.8016 24.5456 16.0983C23.8705 15.3951 22.9548 15 22 15C21.0452 15 20.1295 15.3951 19.4544 16.0983C18.7793 16.8016 18.4 17.7554 18.4 18.75C18.4 19.7446 18.7793 20.6984 19.4544 21.4017C20.1295 22.1049 21.0452 22.5 22 22.5V22.5Z" stroke="black" stroke-width="2"/>
</svg>
