<svg width="64" height="65" viewBox="0 0 64 65" fill="none" xmlns="http://www.w3.org/2000/svg">
<rect x="0.501393" y="0.501393" width="62.9972" height="63.0324" rx="14.5404" stroke="#525252" stroke-width="1.00279"/>
<path d="M38.6307 43.0126V42.5112H38.1293H26.3511H25.8497V43.0126V51.4425C25.8497 51.6324 25.7758 51.8125 25.6477 51.9435C25.52 52.0741 25.3491 52.1454 25.1733 52.1454H20.4621C20.2863 52.1454 20.1154 52.0741 19.9877 51.9435C19.8596 51.8125 19.7856 51.6324 19.7856 51.4425V35.3422V34.9913L19.456 34.8711C16.9136 33.9442 15.0744 31.4812 15.0744 28.5614C15.0744 28.0521 15.2724 27.5658 15.6214 27.2089L15.2669 26.8622L15.6214 27.2089C15.97 26.8524 16.4405 26.6543 16.9286 26.6543C17.4168 26.6543 17.8872 26.8524 18.2359 27.2089C18.5849 27.5658 18.7829 28.0521 18.7829 28.5614L18.7829 28.5623C18.7843 29.3299 19.083 30.0677 19.617 30.6138C20.1514 31.1602 20.8783 31.4699 21.6389 31.4713H21.6399H34.0699L44.6948 35.3512V51.4425C44.6948 51.6325 44.6209 51.8125 44.4927 51.9435C44.365 52.0741 44.1941 52.1454 44.0183 52.1454H39.3071C39.1313 52.1454 38.9605 52.0741 38.8327 51.9435C38.7046 51.8125 38.6307 51.6325 38.6307 51.4425V43.0126ZM45.1962 29.2643H44.6948V29.7657V31.7268L36.275 28.6525V17.723C36.275 17.0762 37.0135 16.8017 37.4255 17.2223C37.4256 17.2224 37.4257 17.2224 37.4257 17.2225L39.4336 19.2777L39.5811 19.4287H39.7922H43.7401C44.0253 19.4287 44.3707 19.538 44.6925 19.7412C45.0138 19.9441 45.2665 20.2123 45.3962 20.4785L45.3965 20.4791L45.9236 21.5562L46.0611 21.8372H46.374H51.0852C51.261 21.8372 51.4319 21.9085 51.5596 22.0391C51.6877 22.1701 51.7617 22.3501 51.7617 22.5401V24.9486C51.7617 26.0968 51.3155 27.1957 50.5247 28.0042C49.7343 28.8124 48.6647 29.2643 47.5518 29.2643H45.1962Z" stroke="#525252" stroke-width="1.00279"/>
<path d="M45.1326 35.6139L33.9275 31.4848L36.2619 28.9041L45.1326 32.0009V35.6139Z" stroke="#525252" stroke-width="1.00279" stroke-linejoin="round"/>
</svg>
