<svg width="18" height="17" viewBox="0 0 18 17" fill="none" xmlns="http://www.w3.org/2000/svg">
<path d="M4.275 12.4406H4.07648L3.93202 12.5767L2.12077 14.2842C2.05336 14.3478 2.00421 14.366 1.97219 14.3719C1.93968 14.3779 1.8847 14.3784 1.79442 14.3419L1.79407 14.3418C1.70313 14.3051 1.66972 14.2686 1.65648 14.2495C1.64416 14.2317 1.625 14.1943 1.625 14.1098V2.54726C1.625 2.28262 1.71813 2.06279 1.93103 1.8621C2.14411 1.66122 2.39117 1.5625 2.7 1.5625H15.3C15.6087 1.5625 15.8561 1.66116 16.0698 1.86214C16.282 2.06266 16.375 2.28247 16.375 2.54726V11.4558C16.375 11.7206 16.282 11.9404 16.0698 12.1409C15.8561 12.3419 15.6087 12.4406 15.3 12.4406H4.275Z" stroke="#3A3A3A"/>
</svg>
