<svg width="12" height="11" viewBox="0 0 12 11" fill="none" xmlns="http://www.w3.org/2000/svg">
<path d="M8.76084 1.83337H2.30557C2.05092 1.83337 1.84448 2.03858 1.84448 2.29171V8.70837C1.84448 8.9615 2.05092 9.16671 2.30557 9.16671H8.76084C9.01549 9.16671 9.22193 8.9615 9.22193 8.70837V2.29171C9.22193 2.03858 9.01549 1.83337 8.76084 1.83337Z" stroke="#525252" stroke-linecap="round" stroke-linejoin="round"/>
<path d="M7.37744 7.33337H7.37836V7.33429H7.37744V7.33337Z" stroke="#525252" stroke-linecap="round" stroke-linejoin="round"/>
<path d="M5.5332 7.33337H5.53413V7.33429H5.5332V7.33337Z" stroke="#525252" stroke-linecap="round" stroke-linejoin="round"/>
<path d="M3.68872 7.33337H3.68964V7.33429H3.68872V7.33337Z" stroke="#525252" stroke-linecap="round" stroke-linejoin="round"/>
<path d="M7.37744 5.5H7.37836V5.50092H7.37744V5.5Z" stroke="#525252" stroke-linecap="round" stroke-linejoin="round"/>
<path d="M5.5332 5.5H5.53413V5.50092H5.5332V5.5Z" stroke="#525252" stroke-linecap="round" stroke-linejoin="round"/>
<path d="M3.68872 5.5H3.68964V5.50092H3.68872V5.5Z" stroke="#525252" stroke-linecap="round" stroke-linejoin="round"/>
<path d="M1.84448 3.66663H9.22193" stroke="#525252" stroke-linecap="round" stroke-linejoin="round"/>
<path d="M7.37744 0.916626V1.83329" stroke="#525252" stroke-linecap="round" stroke-linejoin="round"/>
<path d="M3.68872 0.916626V1.83329" stroke="#525252" stroke-linecap="round" stroke-linejoin="round"/>
</svg>
