<svg width="64" height="65" viewBox="0 0 64 65" fill="none" xmlns="http://www.w3.org/2000/svg">
<rect x="0.501393" y="0.501393" width="62.9972" height="63.0324" rx="14.5404" stroke="#525252" stroke-width="1.00279"/>
<path d="M11.2358 38.7398C16.8621 38.7398 21.0813 32.1066 21.0813 32.1066C21.0813 32.1066 26.3201 38.7398 31.9464 38.7398C37.5705 38.7398 42.1771 32.1066 42.1771 32.1066C42.1771 32.1066 47.8034 38.7398 52.0226 38.7398M11.2358 49.7952C16.8621 49.7952 21.0813 43.162 21.0813 43.162C21.0813 43.162 26.3201 49.7952 31.9464 49.7952C37.5705 49.7952 42.1771 43.162 42.1771 43.162C42.1771 43.162 47.8034 49.7952 52.0226 49.7952M47.4907 27.6844C47.4907 25.6518 47.0804 23.6392 46.2833 21.7614C45.4862 19.8835 44.3179 18.1773 42.845 16.7401C41.3721 15.3028 39.6235 14.1628 37.6991 13.3849C35.7747 12.6071 32.6925 12.2068 30.6095 12.2068C28.5266 12.2068 27.4837 12.6071 25.5593 13.3849C23.6349 14.1628 21.8863 15.3028 20.4134 16.7401C18.9405 18.1773 17.7722 19.8835 16.9751 21.7614C16.178 23.6392 15.7677 25.6518 15.7677 27.6844" stroke="#525252" stroke-width="1.00279" stroke-linecap="round" stroke-linejoin="round"/>
</svg>
