<svg width="44" height="44" viewBox="0 0 44 44" fill="none" xmlns="http://www.w3.org/2000/svg">
<path d="M28 30.3636C29.6569 30.3636 31 29.0611 31 27.4545C31 25.8479 29.6569 24.5454 28 24.5454C26.3431 24.5454 25 25.8479 25 27.4545C25 29.0611 26.3431 30.3636 28 30.3636Z" stroke="#525252" stroke-width="2" stroke-linecap="round" stroke-linejoin="round"/>
<path d="M19 23.0909L25 26" stroke="#525252" stroke-width="2" stroke-linecap="round" stroke-linejoin="round"/>
<path d="M16 24.5455C17.6569 24.5455 19 23.243 19 21.6364C19 20.0297 17.6569 18.7273 16 18.7273C14.3431 18.7273 13 20.0297 13 21.6364C13 23.243 14.3431 24.5455 16 24.5455Z" stroke="#525252" stroke-width="2" stroke-linecap="round" stroke-linejoin="round"/>
<path d="M25 17.2727L19 20.1818" stroke="#525252" stroke-width="2" stroke-linecap="round" stroke-linejoin="round"/>
<path d="M28 18.7272C29.6569 18.7272 31 17.4248 31 15.8181C31 14.2115 29.6569 12.9091 28 12.9091C26.3431 12.9091 25 14.2115 25 15.8181C25 17.4248 26.3431 18.7272 28 18.7272Z" stroke="#525252" stroke-width="2" stroke-linecap="round" stroke-linejoin="round"/>
</svg>
