<svg width="44" height="44" viewBox="0 0 44 44" fill="none" xmlns="http://www.w3.org/2000/svg">
<path d="M15.6415 20.2719C15.6734 19.871 15.8537 19.4968 16.1465 19.2241C16.4394 18.9513 16.8233 18.7998 17.2218 18.7999H26.7782C27.1767 18.7998 27.5606 18.9513 27.8535 19.2241C28.1463 19.4968 28.3266 19.871 28.3585 20.2719L28.9949 28.2719C29.0124 28.4921 28.9846 28.7135 28.9132 28.9223C28.8417 29.131 28.7282 29.3226 28.5799 29.4849C28.4315 29.6473 28.2514 29.7768 28.051 29.8654C27.8506 29.9541 27.6342 29.9999 27.4154 29.9999H16.5846C16.3658 29.9999 16.1494 29.9541 15.949 29.8654C15.7486 29.7768 15.5685 29.6473 15.4201 29.4849C15.2718 29.3226 15.1583 29.131 15.0868 28.9223C15.0154 28.7135 14.9876 28.4921 15.0051 28.2719L15.6415 20.2719V20.2719Z" stroke="black" stroke-width="2" stroke-linecap="round" stroke-linejoin="round"/>
<path d="M25.1694 21.2V17.2C25.1694 16.3513 24.8354 15.5374 24.2409 14.9373C23.6464 14.3371 22.84 14 21.9992 14C21.1585 14 20.3521 14.3371 19.7576 14.9373C19.1631 15.5374 18.8291 16.3513 18.8291 17.2V21.2" stroke="black" stroke-width="2" stroke-linecap="round" stroke-linejoin="round"/>
</svg>
