<svg width="50" height="50" viewBox="0 0 50 50" fill="none" xmlns="http://www.w3.org/2000/svg">
<path d="M28.5915 21.6V23.55H11.0415V21.6C11.0415 18.3689 14.9708 15.75 19.8165 15.75C24.6623 15.75 28.5915 18.3689 28.5915 21.6Z" stroke="#989898" stroke-linecap="round" stroke-linejoin="round"/>
<path d="M43.2167 45V14.2875C43.2167 9.71085 37.978 6 31.5167 6C25.0554 6 19.8167 9.71085 19.8167 14.2875V15.75M19.8167 30.375V29.4M12.1825 29.4293L11.85 30.3458M6.33248 44.0542L6 44.9708M19.8167 45V44.025M19.8167 38.175V36.225M9.42517 36.2835L8.75827 38.1165M27.0072 29.4293L27.3397 30.3458M32.8572 44.0542L33.1897 44.9708M29.7645 36.2835L30.4314 38.1165" stroke="#989898" stroke-linecap="round" stroke-linejoin="round"/>
</svg>
