<svg width="44" height="44" viewBox="0 0 44 44" fill="none" xmlns="http://www.w3.org/2000/svg">
<path d="M27.2271 16H16.8341C16.3476 16 15.8811 16.202 15.5372 16.5616C15.1932 16.9211 15 17.4088 15 17.9173V25.5865C15 26.095 15.1932 26.5826 15.5372 26.9422C15.8811 27.3017 16.3476 27.5037 16.8341 27.5037H25.1179L28.0402 29.8748C28.127 29.9419 28.2294 29.9838 28.3368 29.9962C28.4442 30.0085 28.5528 29.9909 28.6515 29.9451C28.7556 29.8933 28.8435 29.8118 28.9051 29.7101C28.9668 29.6083 28.9997 29.4904 29 29.3699V17.9173C29.0003 17.4197 28.8154 16.9414 28.4846 16.5837C28.1538 16.2259 27.7028 16.0166 27.2271 16Z" stroke="black" stroke-width="2"/>
</svg>
