<svg width="91" height="20" viewBox="0 0 91 20" fill="none" xmlns="http://www.w3.org/2000/svg">
<path d="M0.805664 3.35156H6.22559V18H9.86328V3.35156H15.2832V0.324219H0.805664V3.35156ZM20.8538 10.334C20.8538 8.58838 21.9158 7.5752 23.4416 7.5752C24.9553 7.5752 25.8342 8.53955 25.8342 10.1875V18H29.4475V9.55273C29.4475 6.43994 27.6287 4.57227 24.8577 4.57227C22.8435 4.57227 21.5129 5.51221 20.9026 7.0625H20.7561V0.324219H17.2405V18H20.8538V10.334ZM31.3559 14.2891C31.3681 16.9136 33.2358 18.2563 35.7749 18.2441C37.7402 18.2563 39.0097 17.3896 39.6567 16.1689H39.7544V18H43.1723V9.06445C43.1846 5.86621 40.4502 4.57227 37.5571 4.57227C34.0415 4.57227 32.0395 6.37891 31.8198 8.67383H35.2622C35.4575 7.77051 36.2265 7.22119 37.4595 7.20898C38.8144 7.22119 39.5713 7.85596 39.5835 8.9668V10.041C39.022 10.0654 37.2397 10.1509 36.2876 10.2119C33.7363 10.3706 31.3681 11.335 31.3559 14.2891ZM34.8227 14.1914C34.8227 13.166 35.6162 12.5679 36.8735 12.458C37.4839 12.4092 39.0342 12.3237 39.5835 12.2993V13.2637C39.5957 14.6675 38.4482 15.7417 36.8003 15.7539C35.6406 15.7417 34.8227 15.2046 34.8227 14.1914ZM49.3044 10.334C49.3044 8.58838 50.342 7.5752 51.8435 7.5752C53.3449 7.5752 54.2238 8.55176 54.2361 10.1875V18H57.8249V9.55273C57.8371 6.46436 56.0305 4.57227 53.2595 4.57227C51.2942 4.57227 49.8781 5.53662 49.28 7.0625H49.1335V4.74316H45.6911V18H49.3044V10.334ZM60.3925 18H64.0058V13.752L65.019 12.6045L68.6689 18H72.917L67.7046 10.4805L72.6484 4.74316H68.498L64.2011 9.82129H64.0058V0.324219H60.3925V18ZM80.8068 11.8721L83.114 14.8872C82.7966 14.9604 82.4548 14.9971 82.1008 14.9971C79.3542 14.9849 77.5598 12.9341 77.5598 9.16211C77.5598 5.37793 79.3542 3.33936 82.1008 3.32715C84.823 3.33936 86.6296 5.37793 86.6174 9.16211C86.6296 11.1152 86.1413 12.6167 85.299 13.5933L83.9563 11.8721H80.8068ZM73.8244 9.16211C73.8244 14.9116 77.3889 18.2441 82.1008 18.2441C83.1994 18.2441 84.2492 18.061 85.2014 17.707L86.6174 19.4648H90.0598L87.5451 16.291C89.2785 14.7407 90.3527 12.3237 90.3527 9.16211C90.3527 3.38818 86.7761 0.0800781 82.1008 0.0800781C77.3889 0.0800781 73.8244 3.38818 73.8244 9.16211Z" fill="#FF8F20"/>
</svg>
