<svg width="60" height="60" viewBox="0 0 60 60" fill="none" xmlns="http://www.w3.org/2000/svg">
<path d="M15.7743 7.4141L26.8902 18.53L19.3473 26.0729L18.8719 26.5482L19.1327 27.1679C21.6864 33.2366 26.5076 38.069 32.5704 40.6368L33.1909 40.8996L33.6674 40.4232L41.2263 32.8661L52.3422 43.982L46.7088 49.6154C46.7085 49.6157 46.7082 49.616 46.7079 49.6163C45.6966 50.6232 44.4954 51.4192 43.174 51.9582C41.8523 52.4973 40.4366 52.7685 39.0091 52.756V52.756H39.0004C32.1294 52.756 24.1195 48.3329 17.7715 41.9849C11.4235 35.6369 7.00039 27.627 7.00039 20.756H7.00042L7.00036 20.7479C6.98875 19.32 7.26038 17.9041 7.79956 16.5819C8.33853 15.2602 9.13414 14.0585 10.1404 13.0462C10.1408 13.0458 10.1411 13.0455 10.1415 13.0451L15.7743 7.4141Z" stroke="#828282" stroke-width="2"/>
</svg>
