<svg width="60" height="60" viewBox="0 0 60 60" fill="none" xmlns="http://www.w3.org/2000/svg">
<path d="M50.0023 31.0032V31.6503L50.5925 31.9154C52.8347 32.9226 54.6776 34.6959 55.8059 36.9434C56.9345 39.1914 57.2771 41.7731 56.7738 44.253C56.2706 46.7326 54.9537 48.9529 53.0513 50.5437C51.1495 52.134 48.7777 52.9993 46.3351 53C46.335 53 46.3349 53 46.3349 53H33.3336V50.2H41.6679H42.6679V49.2V31H46.3351H47.3351V30V27.6C47.3351 22.8881 45.5154 18.3637 42.2676 15.0235C39.019 11.6824 34.6068 9.8 30 9.8C25.3932 9.8 20.981 11.6824 17.7324 15.0235C14.4846 18.3637 12.6649 22.8881 12.6649 27.6V30V31H13.6649H17.3321V53H13.6652C13.6651 53 13.665 53 13.6649 53C11.2223 52.9993 8.85055 52.134 6.94874 50.5437C5.04626 48.9529 3.72942 46.7326 3.22619 44.253C2.7229 41.7731 3.06549 39.1914 4.19405 36.9434C5.32238 34.6959 7.16534 32.9226 9.40747 31.9154L9.9977 31.6503V31.0032V27.6C9.9977 22.1276 12.1117 16.8848 15.8661 13.0236C19.6196 9.16333 24.7043 7 30 7C35.2957 7 40.3804 9.16333 44.1339 13.0236C47.8883 16.8848 50.0023 22.1276 50.0023 27.6V31.0032Z" stroke="#828282" stroke-width="2"/>
</svg>
