<svg width="60" height="60" viewBox="0 0 60 60" fill="none" xmlns="http://www.w3.org/2000/svg">
<path d="M30.5097 50.9865C28.7229 49.9537 27.1738 48.5664 25.9541 46.9163C31.3387 46.4541 36.4111 44.1078 40.2595 40.2595C44.1078 36.4111 46.4541 31.3387 46.9163 25.9541C48.5664 27.1738 49.9537 28.7229 50.9865 30.5098C52.3029 32.7871 52.9973 35.3706 53 38.001V53H38.001C35.3706 52.9973 32.7871 52.3029 30.5097 50.9865ZM24 41H7V24C7 20.6377 7.99703 17.351 9.86502 14.5553C11.733 11.7597 14.388 9.58075 17.4944 8.29406C20.6007 7.00737 24.0189 6.67071 27.3165 7.32666C30.6142 7.98261 33.6433 9.6017 36.0208 11.9792C38.3983 14.3567 40.0174 17.3858 40.6734 20.6835C41.3293 23.9812 40.9926 27.3993 39.706 30.5056C38.4193 33.612 36.2403 36.267 33.4447 38.135C30.6491 40.003 27.3623 41 24 41Z" stroke="#828282" stroke-width="2"/>
</svg>
