<svg width="60" height="60" viewBox="0 0 60 60" fill="none" xmlns="http://www.w3.org/2000/svg">
<path d="M51.0023 31.0032V27.6C51.0023 21.8713 48.7896 16.3773 44.8509 12.3265C40.9122 8.27571 35.5702 6 30 6C24.4298 6 19.0878 8.27571 15.1491 12.3265C11.2104 16.3773 8.99771 21.8713 8.9977 27.6V31.0032C6.54171 32.1065 4.52987 34.0456 3.30035 36.4948C2.07083 38.9439 1.69857 41.7537 2.24616 44.4519C2.79376 47.15 4.2278 49.5721 6.30727 51.3109C8.38673 53.0497 10.9848 53.9993 13.6649 54H18.3321V30H13.6649V27.6C13.6649 23.1444 15.3859 18.8712 18.4493 15.7206C21.5128 12.57 25.6677 10.8 30 10.8C34.3323 10.8 38.4872 12.57 41.5507 15.7206C44.6141 18.8712 46.3351 23.1444 46.3351 27.6V30H41.6679V49.2H32.3336V54H46.3351C49.0152 53.9993 51.6133 53.0497 53.6927 51.3109C55.7722 49.5721 57.2063 47.15 57.7538 44.4519C58.3014 41.7537 57.9292 38.9439 56.6996 36.4948C55.4701 34.0456 53.4583 32.1065 51.0023 31.0032Z" fill="white"/>
</svg>
