<svg width="60" height="60" viewBox="0 0 60 60" fill="none" xmlns="http://www.w3.org/2000/svg">
<path d="M24 42H6V24C6 20.4399 7.05568 16.9598 9.03355 13.9997C11.0114 11.0397 13.8226 8.73255 17.1117 7.37018C20.4008 6.0078 24.02 5.65134 27.5116 6.34587C31.0033 7.04041 34.2106 8.75474 36.7279 11.2721C39.2453 13.7894 40.9596 16.9967 41.6541 20.4884C42.3487 23.98 41.9922 27.5992 40.6298 30.8883C39.2675 34.1774 36.9603 36.9886 34.0003 38.9665C31.0402 40.9443 27.5601 42 24 42V42ZM46 24.16C45.954 29.9381 43.6382 35.4665 39.5524 39.5524C35.4665 43.6382 29.9381 45.954 24.16 46V46C25.5629 48.4299 27.5801 50.4482 30.0093 51.8523C32.4385 53.2565 35.1942 53.9971 38 54H54V38C53.9971 35.1942 53.2565 32.4385 51.8523 30.0093C50.4482 27.5801 48.4299 25.5629 46 24.16Z" fill="white"/>
</svg>
