<svg width="1920" height="1181" viewBox="0 0 1920 1181" fill="none" xmlns="http://www.w3.org/2000/svg">
<circle cx="1621.92" cy="92.9216" r="13" transform="rotate(-165 1621.92 92.9216)" fill="#F9B85A"/>
<circle cx="1071.92" cy="146.922" r="13" transform="rotate(-165 1071.92 146.922)" fill="#F9B85A"/>
<rect x="536.434" y="224.398" width="20" height="33" transform="rotate(-45 536.434 224.398)" fill="#37669E"/>
<rect x="1466.4" y="282.312" width="20" height="33" transform="rotate(-99.7761 1466.4 282.312)" fill="#37669E"/>
<rect x="175.396" y="384.312" width="20" height="33" transform="rotate(-99.7761 175.396 384.312)" fill="#37669E"/>
<circle cx="357.922" cy="92.9216" r="13" transform="rotate(-165 357.922 92.9216)" fill="#F9B85A"/>
<circle cx="1756" cy="389" r="13" fill="#F9B85A"/>
<rect width="20" height="33" transform="matrix(-0.169799 -0.985479 0.985479 -0.169797 790.395 999.312)" fill="#37669E"/>
<circle cx="1089" cy="1005" r="13" fill="#F9B85A"/>
<circle r="13" transform="matrix(-0.965926 -0.258818 0.25882 -0.965926 860.922 919.922)" fill="#F9B85A"/>
<circle r="13" transform="matrix(-0.965926 -0.258818 0.25882 -0.965926 695.922 622.922)" fill="#F9B85A"/>
<circle r="13" transform="matrix(-0.965926 -0.258818 0.25882 -0.965926 1253.92 647.922)" fill="#F9B85A"/>
<rect width="20" height="33" transform="matrix(-0.169799 -0.985479 0.985479 -0.169797 900.397 871.312)" fill="#37669E"/>
<rect x="1014.15" y="942.285" width="20" height="33" transform="rotate(-18.9034 1014.15 942.285)" fill="#37669E"/>
<rect x="963" y="693.142" width="20" height="33" transform="rotate(-45 963 693.142)" fill="#37669E"/>
</svg>
