<svg width="1920" height="1205" viewBox="0 0 1920 1205" fill="none" xmlns="http://www.w3.org/2000/svg">
<path fill-rule="evenodd" clip-rule="evenodd" d="M1920 18.5347V1205H-3V57.3623C0.445015 58.6018 4.2274 58.4382 8.37793 56.2949C14.2859 53.2442 21.1644 47.7588 29.0722 41.4527L29.0733 41.4519C59.7742 16.969 105.987 -19.884 171.147 25.302C241.231 73.9026 259.79 62.9214 319.185 27.7783L319.196 27.7715C321.366 26.4876 323.59 25.1714 325.874 23.8247C377.709 -6.74583 415.08 5.20632 459.716 25.7876C499 60.4072 538.461 91.5532 609.516 35.7366C680.572 -20.0803 743.117 1.74001 765.507 19.6272C786.967 47.7671 845.828 89.8118 909.592 32.8716C954.464 -7.19774 999.118 -2.27928 1028.59 12.2661C1035.98 15.5069 1043.64 19.7952 1051.58 25.302C1121.66 73.9026 1140.22 62.9214 1199.62 27.7783L1199.62 27.7735C1201.79 26.489 1204.02 25.1721 1206.3 23.8247C1258.14 -6.74583 1295.51 5.20632 1340.15 25.7876C1379.43 60.4072 1418.89 91.5532 1489.95 35.7366C1561 -20.0803 1623.55 1.74001 1645.94 19.6272C1667.4 47.7671 1726.26 89.8118 1790.02 32.8716C1840.9 -12.5574 1891.49 -0.15843 1920 18.5347Z" fill="#FCD0C7"/>
</svg>
