<svg width="97" height="48" viewBox="0 0 97 48" fill="none" xmlns="http://www.w3.org/2000/svg">
<path d="M5.40283 34.55V8.85C5.40283 8.41667 5.58626 8 5.95312 7.6C6.31998 7.2 6.72018 7 7.15374 7H32.0667C32.5003 7 32.9088 7.19167 33.2924 7.575C33.6759 7.95833 33.8676 8.38333 33.8676 8.85V25.6C33.8676 26.0333 33.6759 26.45 33.2924 26.85C32.9088 27.25 32.5003 27.45 32.0667 27.45H12.4565L5.40283 34.55ZM14.2574 36.25C13.8239 36.25 13.4153 36.05 13.0318 35.65C12.6483 35.25 12.4565 34.8333 12.4565 34.4V30.75H36.519L37.1193 31.35V14H40.8713C41.3049 14 41.7051 14.2 42.0719 14.6C42.4388 15 42.6222 15.4333 42.6222 15.9V43.3L35.5685 36.25H14.2574ZM31.6165 9.25H7.654V29.05L11.506 25.2H31.6165V9.25ZM7.654 9.25V29.05V9.25Z" fill="#333333"/>
<path d="M53.4028 34.55V8.85C53.4028 8.41667 53.5863 8 53.9531 7.6C54.32 7.2 54.7202 7 55.1537 7H80.0667C80.5003 7 80.9088 7.19167 81.2924 7.575C81.6759 7.95833 81.8676 8.38333 81.8676 8.85V25.6C81.8676 26.0333 81.6759 26.45 81.2924 26.85C80.9088 27.25 80.5003 27.45 80.0667 27.45H60.4565L53.4028 34.55ZM62.2574 36.25C61.8239 36.25 61.4153 36.05 61.0318 35.65C60.6483 35.25 60.4565 34.8333 60.4565 34.4V30.75H84.519L85.1193 31.35V14H88.8713C89.3049 14 89.7051 14.2 90.0719 14.6C90.4388 15 90.6222 15.4333 90.6222 15.9V43.3L83.5685 36.25H62.2574ZM79.6165 9.25H55.654V29.05L59.506 25.2H79.6165V9.25ZM55.654 9.25V29.05V9.25Z" fill="white"/>
</svg>
