<svg width="97" height="48" viewBox="0 0 97 48" fill="none" xmlns="http://www.w3.org/2000/svg">
<path d="M23.2122 3C25.947 3 28.2899 3.96667 30.2409 5.9C32.1919 7.83333 33.1674 10.1833 33.1674 12.95C33.1674 14.75 32.7172 16.4083 31.8167 17.925C30.9162 19.4417 29.7156 20.6167 28.2148 21.45H27.1643V19.5C28.3316 18.8 29.2487 17.875 29.9157 16.725C30.5827 15.575 30.9163 14.3167 30.9163 12.95C30.9163 10.8167 30.1575 9 28.6401 7.5C27.1226 6 25.2967 5.25 23.1622 5.25C21.0278 5.25 19.2018 6 17.6844 7.5C16.1669 9 15.4082 10.8167 15.4082 12.95C15.4082 14.3167 15.75 15.5833 16.4337 16.75C17.1174 17.9167 18.0262 18.8333 19.1601 19.5V22.15C17.3258 21.35 15.8667 20.125 14.7829 18.475C13.699 16.825 13.157 14.9833 13.157 12.95C13.157 10.1833 14.1409 7.83333 16.1085 5.9C18.0762 3.96667 20.4441 3 23.2122 3ZM21.2612 43C20.8277 43 20.4275 42.9167 20.0606 42.75C19.6937 42.5833 19.3602 42.35 19.0601 42.05L9.45508 32.5L11.6062 30.3C11.9397 29.9667 12.3149 29.7083 12.7318 29.525C13.1487 29.3417 13.5739 29.3167 14.0074 29.45L19.1601 30.55V13C19.1601 11.8667 19.5437 10.9167 20.3107 10.15C21.0778 9.38333 22.0283 9 23.1622 9C24.2961 9 25.2466 9.38333 26.0137 10.15C26.7808 10.9167 27.1643 11.8667 27.1643 13V22.35H28.7651C28.9319 22.35 29.0736 22.3833 29.1903 22.45C29.3071 22.5167 29.4488 22.5833 29.6156 22.65L36.5192 26C37.3863 26.4 38.0116 27.0583 38.3951 27.975C38.7787 28.8917 38.8871 29.8167 38.7203 30.75L37.0695 40.55C36.936 41.25 36.5859 41.8333 36.0189 42.3C35.4519 42.7667 34.8016 43 34.0679 43H21.2612ZM20.9611 40.75H34.6682L36.5692 29.8C36.6359 29.5333 36.6276 29.2583 36.5442 28.975C36.4608 28.6917 36.269 28.4667 35.9689 28.3L27.8647 24.25H24.9131V13C24.9131 12.4667 24.7547 12.0417 24.4379 11.725C24.121 11.4083 23.6958 11.25 23.1622 11.25C22.6286 11.25 22.2034 11.4083 21.8865 11.725C21.5697 12.0417 21.4113 12.4667 21.4113 13V33.3L13.5072 31.65L12.6567 32.45L20.9611 40.75ZM34.6682 40.75H20.9611H34.6682Z" fill="#333333"/>
<path d="M71.2122 3C73.947 3 76.2899 3.96667 78.2409 5.9C80.1919 7.83333 81.1674 10.1833 81.1674 12.95C81.1674 14.75 80.7172 16.4083 79.8167 17.925C78.9162 19.4417 77.7156 20.6167 76.2148 21.45H75.1643V19.5C76.3316 18.8 77.2487 17.875 77.9157 16.725C78.5827 15.575 78.9163 14.3167 78.9163 12.95C78.9163 10.8167 78.1575 9 76.6401 7.5C75.1226 6 73.2967 5.25 71.1622 5.25C69.0278 5.25 67.2018 6 65.6844 7.5C64.1669 9 63.4082 10.8167 63.4082 12.95C63.4082 14.3167 63.75 15.5833 64.4337 16.75C65.1174 17.9167 66.0262 18.8333 67.1601 19.5V22.15C65.3258 21.35 63.8667 20.125 62.7829 18.475C61.699 16.825 61.157 14.9833 61.157 12.95C61.157 10.1833 62.1409 7.83333 64.1085 5.9C66.0762 3.96667 68.4441 3 71.2122 3ZM69.2612 43C68.8277 43 68.4275 42.9167 68.0606 42.75C67.6937 42.5833 67.3602 42.35 67.0601 42.05L57.4551 32.5L59.6062 30.3C59.9397 29.9667 60.3149 29.7083 60.7318 29.525C61.1487 29.3417 61.5739 29.3167 62.0074 29.45L67.1601 30.55V13C67.1601 11.8667 67.5437 10.9167 68.3107 10.15C69.0778 9.38333 70.0283 9 71.1622 9C72.2961 9 73.2466 9.38333 74.0137 10.15C74.7808 10.9167 75.1643 11.8667 75.1643 13V22.35H76.7651C76.9319 22.35 77.0736 22.3833 77.1903 22.45C77.3071 22.5167 77.4488 22.5833 77.6156 22.65L84.5192 26C85.3863 26.4 86.0116 27.0583 86.3951 27.975C86.7787 28.8917 86.8871 29.8167 86.7203 30.75L85.0695 40.55C84.936 41.25 84.5859 41.8333 84.0189 42.3C83.4519 42.7667 82.8016 43 82.0679 43H69.2612ZM68.9611 40.75H82.6682L84.5692 29.8C84.6359 29.5333 84.6276 29.2583 84.5442 28.975C84.4608 28.6917 84.269 28.4667 83.9689 28.3L75.8647 24.25H72.9131V13C72.9131 12.4667 72.7547 12.0417 72.4379 11.725C72.121 11.4083 71.6958 11.25 71.1622 11.25C70.6286 11.25 70.2034 11.4083 69.8865 11.725C69.5697 12.0417 69.4113 12.4667 69.4113 13V33.3L61.5072 31.65L60.6567 32.45L68.9611 40.75ZM82.6682 40.75H68.9611H82.6682Z" fill="white"/>
</svg>
