<svg width="827" height="652" viewBox="0 0 827 652" fill="none" xmlns="http://www.w3.org/2000/svg">
<rect opacity="0.7" x="163.937" y="51.4768" width="10" height="29.3376" rx="5" transform="rotate(-40.3663 163.937 51.4768)" fill="#9B87ED"/>
<rect opacity="0.7" x="677.937" y="507.477" width="10" height="29.3376" rx="5" transform="rotate(-40.3663 677.937 507.477)" fill="#9B87ED"/>
<rect opacity="0.7" x="52.9365" y="6.47668" width="10" height="29.3376" rx="5" transform="rotate(-40.3663 52.9365 6.47668)" fill="#FFE03B"/>
<rect opacity="0.7" x="799.937" y="552.477" width="10" height="29.3376" rx="5" transform="rotate(-40.3663 799.937 552.477)" fill="#FFE03B"/>
<rect x="735.746" y="138.6" width="10" height="25.361" rx="5" transform="rotate(60.5347 735.746 138.6)" fill="#FFE03B"/>
<rect x="21.0635" y="547.523" width="10" height="25.361" rx="5" transform="rotate(56.1529 21.0635 547.523)" fill="#C1B2FE"/>
<rect x="137.347" y="324.513" width="10" height="25.3333" rx="5" transform="rotate(90 137.347 324.513)" fill="#FFE03B"/>
<rect x="703.748" y="19.8818" width="10" height="25.3333" rx="5" transform="rotate(39.0035 703.748 19.8818)" fill="#FFE03B"/>
<ellipse cx="433.68" cy="405.935" rx="336.5" ry="179" transform="rotate(-12.1737 433.68 405.935)" fill="#F9FFB6"/>
</svg>
