<svg width="44" height="44" viewBox="0 0 44 44" fill="none" xmlns="http://www.w3.org/2000/svg">
<path d="M22 21.6992C21.0333 21.6992 20.2083 21.3532 19.525 20.6612C18.8417 19.9699 18.5 19.1492 18.5 18.1992C18.5 17.2326 18.8417 16.4076 19.525 15.7242C20.2083 15.0409 21.0333 14.6992 22 14.6992C22.9667 14.6992 23.7917 15.0409 24.475 15.7242C25.1583 16.4076 25.5 17.2326 25.5 18.1992C25.5 19.1492 25.1583 19.9699 24.475 20.6612C23.7917 21.3532 22.9667 21.6992 22 21.6992ZM14.5 29.2992V27.0742C14.5 26.5909 14.6333 26.1409 14.9 25.7242C15.1667 25.3076 15.525 24.9826 15.975 24.7492C16.9583 24.2659 17.9543 23.9032 18.963 23.6612C19.971 23.4199 20.9833 23.2992 22 23.2992C23.0167 23.2992 24.0293 23.4199 25.038 23.6612C26.046 23.9032 27.0417 24.2659 28.025 24.7492C28.475 24.9826 28.8333 25.3076 29.1 25.7242C29.3667 26.1409 29.5 26.5909 29.5 27.0742V29.2992H14.5ZM16 27.7992H28V27.0742C28 26.8742 27.9417 26.6909 27.825 26.5242C27.7083 26.3576 27.55 26.2159 27.35 26.0992C26.4833 25.6826 25.6043 25.3616 24.713 25.1362C23.821 24.9116 22.9167 24.7992 22 24.7992C21.0833 24.7992 20.179 24.9116 19.287 25.1362C18.3957 25.3616 17.5167 25.6826 16.65 26.0992C16.45 26.2159 16.2917 26.3576 16.175 26.5242C16.0583 26.6909 16 26.8742 16 27.0742V27.7992ZM22 20.1992C22.55 20.1992 23.021 20.0032 23.413 19.6112C23.8043 19.2199 24 18.7492 24 18.1992C24 17.6492 23.8043 17.1782 23.413 16.7862C23.021 16.3949 22.55 16.1992 22 16.1992C21.45 16.1992 20.9793 16.3949 20.588 16.7862C20.196 17.1782 20 17.6492 20 18.1992C20 18.7492 20.196 19.2199 20.588 19.6112C20.9793 20.0032 21.45 20.1992 22 20.1992V20.1992Z" fill="#535353"/>
</svg>
