<svg width="44" height="44" viewBox="0 0 44 44" fill="none" xmlns="http://www.w3.org/2000/svg">
<path d="M28.9 30.3L23.3 24.7C22.8 25.1 22.225 25.4167 21.575 25.65C20.925 25.8833 20.2333 26 19.5 26C17.6833 26 16.146 25.371 14.888 24.113C13.6293 22.8543 13 21.3167 13 19.5C13 17.6833 13.6293 16.1457 14.888 14.887C16.146 13.629 17.6833 13 19.5 13C21.3167 13 22.8543 13.629 24.113 14.887C25.371 16.1457 26 17.6833 26 19.5C26 20.2333 25.8833 20.925 25.65 21.575C25.4167 22.225 25.1 22.8 24.7 23.3L30.325 28.925C30.5083 29.1083 30.6 29.3333 30.6 29.6C30.6 29.8667 30.5 30.1 30.3 30.3C30.1167 30.4833 29.8833 30.575 29.6 30.575C29.3167 30.575 29.0833 30.4833 28.9 30.3V30.3ZM19.5 24C20.75 24 21.8127 23.5627 22.688 22.688C23.5627 21.8127 24 20.75 24 19.5C24 18.25 23.5627 17.1873 22.688 16.312C21.8127 15.4373 20.75 15 19.5 15C18.25 15 17.1873 15.4373 16.312 16.312C15.4373 17.1873 15 18.25 15 19.5C15 20.75 15.4373 21.8127 16.312 22.688C17.1873 23.5627 18.25 24 19.5 24Z" fill="#535353"/>
</svg>
