<svg width="44" height="44" viewBox="0 0 44 44" fill="none" xmlns="http://www.w3.org/2000/svg">
<path d="M17.3496 29.9492C16.8163 29.9492 16.3746 29.7659 16.0246 29.3992C15.6746 29.0326 15.4996 28.5909 15.4996 28.0742V19.3492L13.7496 15.1992H11.7246V13.6992H14.7746L16.3496 17.4992H30.2996C30.6496 17.4992 30.9123 17.6452 31.0876 17.9372C31.2623 18.2286 31.2663 18.5242 31.0996 18.8242L28.4746 23.9742C29.2246 24.0576 29.8539 24.3826 30.3626 24.9492C30.8706 25.5159 31.1246 26.1826 31.1246 26.9492C31.1246 27.7826 30.8329 28.4909 30.2496 29.0742C29.6663 29.6576 28.9663 29.9492 28.1496 29.9492C27.2996 29.9492 26.5869 29.6576 26.0116 29.0742C25.4369 28.4909 25.1496 27.7826 25.1496 26.9492C25.1496 26.6159 25.1956 26.3119 25.2876 26.0372C25.3789 25.7619 25.5163 25.4992 25.6996 25.2492L21.7246 24.8992L18.9746 29.0242C18.7913 29.3076 18.5539 29.5326 18.2626 29.6992C17.9706 29.8659 17.6663 29.9492 17.3496 29.9492V29.9492ZM26.8496 23.8742L29.3246 18.9992L16.9746 19.0242L18.2496 21.9992C18.3829 22.3326 18.5996 22.6116 18.8996 22.8362C19.1996 23.0616 19.5579 23.1909 19.9746 23.2242L26.8496 23.8742ZM17.3496 28.4242C17.4329 28.4242 17.5579 28.3409 17.7246 28.1742L20.0246 24.7492C19.2913 24.6659 18.6996 24.4786 18.2496 24.1872C17.7996 23.8952 17.4579 23.5492 17.2246 23.1492L16.9996 22.6242V28.0742C16.9996 28.1909 17.0329 28.2782 17.0996 28.3362C17.1663 28.3949 17.2496 28.4242 17.3496 28.4242V28.4242ZM28.1246 28.4492C28.5579 28.4492 28.9163 28.3032 29.1996 28.0112C29.4829 27.7199 29.6246 27.3659 29.6246 26.9492C29.6246 26.5159 29.4829 26.1576 29.1996 25.8742C28.9163 25.5909 28.5579 25.4492 28.1246 25.4492C27.7079 25.4492 27.3536 25.5909 27.0616 25.8742C26.7703 26.1576 26.6246 26.5159 26.6246 26.9492C26.6246 27.3659 26.7703 27.7199 27.0616 28.0112C27.3536 28.3032 27.7079 28.4492 28.1246 28.4492ZM26.8496 23.8742L19.9746 23.2242L26.8496 23.8742Z" fill="#535353"/>
</svg>
