<svg width="21" height="21" viewBox="0 0 21 21" fill="none" xmlns="http://www.w3.org/2000/svg">
<path d="M7.44529 7.26666L2.54439 7.88007L2.46915 7.89369C1.98229 8.01016 1.79399 8.62753 2.16175 8.99529L5.84404 12.6781L4.61017 18.2326L4.59821 18.303C4.53543 18.8362 5.12556 19.2271 5.5986 18.9315L10.5008 15.8668L15.403 18.9315L15.4653 18.9662C15.947 19.2032 16.5124 18.7772 16.3914 18.2326L15.1569 12.6781L18.8398 8.99529L18.8909 8.93835C19.2037 8.5475 18.9733 7.94458 18.4572 7.88007L13.5556 7.26666L11.0878 2.33152C10.8459 1.84783 10.1557 1.84783 9.91382 2.33152L7.44529 7.26666Z" fill="#FFB84F"/>
</svg>
