<svg width="1920" height="52" viewBox="0 0 1920 52" fill="none" xmlns="http://www.w3.org/2000/svg">
<rect width="1920" height="52" fill="#FDA8AF"/>
<mask id="mask0_118_999" style="mask-type:alpha" maskUnits="userSpaceOnUse" x="0" y="0" width="1920" height="52">
<rect width="1920" height="52" fill="#FDA8AF"/>
</mask>
<g mask="url(#mask0_118_999)">
<path opacity="0.32" d="M390 190.668C398.8 188.89 573.833 5.03791 619.5 -27.5547H437.5L192 190.668C266.167 191.408 381.2 192.445 390 190.668Z" fill="#FC7D87"/>
<path opacity="0.32" d="M1531 190.668C1539.8 188.89 1714.83 5.03791 1760.5 -27.5547H1578.5L1333 190.668C1407.17 191.408 1522.2 192.445 1531 190.668Z" fill="#FC7D87"/>
<path opacity="0.19" d="M1816.5 190.668C1825.3 188.89 2000.33 5.03791 2046 -27.5547H1834.5L1589 190.668C1663.17 191.408 1807.7 192.445 1816.5 190.668Z" fill="#FC7D87"/>
<path opacity="0.32" d="M165.826 191.018C172.907 189.237 384.752 5.0902 421.499 -27.5547H350.549L82 191.018C141.68 191.76 158.745 192.798 165.826 191.018Z" fill="#FC7D87"/>
<path opacity="0.19" d="M7.82761 191.018C14.9088 189.237 226.754 5.0902 263.501 -27.5547H22.0016L-246.547 191.018C-186.867 191.76 0.746429 192.798 7.82761 191.018Z" fill="#FC7D87"/>
<path opacity="0.32" d="M1306.83 191.018C1313.91 189.237 1525.75 5.0902 1562.5 -27.5547H1491.55L1223 191.018C1282.68 191.76 1299.74 192.798 1306.83 191.018Z" fill="#FC7D87"/>
<g opacity="0.64">
<path d="M570.5 -19.5547L499 42.6675" stroke="#FF8791" stroke-width="8" stroke-linecap="round"/>
<path d="M1442 46.666L1367 109.333" stroke="#FF8791" stroke-width="8" stroke-linecap="round"/>
<path d="M424 16.8887L349 79.5553" stroke="#FF8791" stroke-width="8" stroke-linecap="round"/>
<path d="M1615.5 -22.2227L1544 39.9996" stroke="#FF8791" stroke-width="8" stroke-linecap="round"/>
<path d="M1429.5 -31.1113L1358 31.1109" stroke="#FF8791" stroke-width="8" stroke-linecap="round"/>
</g>
</g>
<path opacity="0.46" d="M597 17.3325C597 19.8637 594.652 22.1102 591.5 22.1102C588.348 22.1102 586 19.8637 586 17.3325C586 14.8012 588.348 12.5547 591.5 12.5547C594.652 12.5547 597 14.8012 597 17.3325Z" stroke="white" stroke-width="2"/>
<path opacity="0.46" d="M822 17.3325C822 19.8637 824.348 22.1102 827.5 22.1102C830.652 22.1102 833 19.8637 833 17.3325C833 14.8012 830.652 12.5547 827.5 12.5547C824.348 12.5547 822 14.8012 822 17.3325Z" stroke="white" stroke-width="2"/>
<path opacity="0.46" d="M1323 17.3325C1323 19.8637 1325.35 22.1102 1328.5 22.1102C1331.65 22.1102 1334 19.8637 1334 17.3325C1334 14.8012 1331.65 12.5547 1328.5 12.5547C1325.35 12.5547 1323 14.8012 1323 17.3325Z" stroke="white" stroke-width="2"/>
<path opacity="0.46" d="M251 28.8891C251 31.4203 253.348 33.6669 256.5 33.6669C259.652 33.6669 262 31.4203 262 28.8891C262 26.3579 259.652 24.1113 256.5 24.1113C253.348 24.1113 251 26.3579 251 28.8891Z" stroke="white" stroke-width="2"/>
</svg>
