<svg width="21" height="21" viewBox="0 0 21 21" fill="none" xmlns="http://www.w3.org/2000/svg">
<mask id="path-1-inside-1_190_515" fill="white">
<path d="M7.44529 7.26666L2.54439 7.88007L2.46915 7.89369C1.98229 8.01016 1.79399 8.62753 2.16175 8.99529L5.84404 12.6781L4.61017 18.2326L4.59821 18.303C4.53543 18.8362 5.12556 19.2271 5.5986 18.9315L10.5008 15.8668L15.403 18.9315L15.4653 18.9662C15.947 19.2032 16.5124 18.7772 16.3914 18.2326L15.1569 12.6781L18.8398 8.99529L18.8909 8.93835C19.2037 8.5475 18.9733 7.94458 18.4572 7.88007L13.5556 7.26666L11.0878 2.33152C10.8459 1.84783 10.1557 1.84783 9.91382 2.33152L7.44529 7.26666Z"/>
</mask>
<path d="M7.44529 7.26666L7.56948 8.25891L8.10032 8.19247L8.33965 7.71401L7.44529 7.26666ZM2.54439 7.88007L2.4202 6.88781L2.39311 6.8912L2.36624 6.89606L2.54439 7.88007ZM2.46915 7.89369L2.29101 6.90968L2.26359 6.91465L2.23648 6.92113L2.46915 7.89369ZM2.16175 8.99529L2.86891 8.28823L2.86886 8.28818L2.16175 8.99529ZM5.84404 12.6781L6.82024 12.8949L6.93926 12.3592L6.55119 11.971L5.84404 12.6781ZM4.61017 18.2326L3.63396 18.0158L3.62852 18.0403L3.62431 18.065L4.61017 18.2326ZM4.59821 18.303L3.61236 18.1353L3.60807 18.1606L3.60507 18.186L4.59821 18.303ZM5.5986 18.9315L6.1286 19.7795L6.1287 19.7794L5.5986 18.9315ZM10.5008 15.8668L11.0309 15.0189L10.5008 14.6875L9.97069 15.0189L10.5008 15.8668ZM15.403 18.9315L14.8729 19.7794L14.8942 19.7928L14.9162 19.805L15.403 18.9315ZM15.4653 18.9662L14.9785 19.8398L15.0009 19.8522L15.0239 19.8635L15.4653 18.9662ZM16.3914 18.2326L17.3676 18.0157L17.3676 18.0157L16.3914 18.2326ZM15.1569 12.6781L14.4498 11.971L14.0616 12.3592L14.1807 12.8951L15.1569 12.6781ZM18.8398 8.99529L19.5469 9.70241L19.5663 9.68304L19.5846 9.66264L18.8398 8.99529ZM18.8909 8.93835L19.6356 9.6057L19.6542 9.58495L19.6716 9.56319L18.8909 8.93835ZM18.4572 7.88007L18.333 8.87233L18.3332 8.87235L18.4572 7.88007ZM13.5556 7.26666L12.6612 7.71391L12.9005 8.19247L13.4315 8.25892L13.5556 7.26666ZM11.0878 2.33152L10.1933 2.77873L10.1934 2.77877L11.0878 2.33152ZM9.91382 2.33152L10.8082 2.77887L10.8082 2.77873L9.91382 2.33152ZM7.32109 6.2744L2.4202 6.88781L2.66858 8.87233L7.56948 8.25891L7.32109 6.2744ZM2.36624 6.89606L2.29101 6.90968L2.6473 8.87769L2.72254 8.86407L2.36624 6.89606ZM2.23648 6.92113C1.00379 7.21604 0.523495 8.77125 1.45464 9.7024L2.86886 8.28818C3.06448 8.48381 2.96079 8.80429 2.70182 8.86624L2.23648 6.92113ZM1.45459 9.70235L5.13688 13.3852L6.55119 11.971L2.86891 8.28823L1.45459 9.70235ZM4.86783 12.4612L3.63396 18.0158L5.58637 18.4495L6.82024 12.8949L4.86783 12.4612ZM3.62431 18.065L3.61236 18.1353L5.58406 18.4706L5.59602 18.4003L3.62431 18.065ZM3.60507 18.186C3.44611 19.5361 4.93018 20.5285 6.1286 19.7795L5.0686 18.0835C5.32094 17.9258 5.62475 18.1362 5.59135 18.4199L3.60507 18.186ZM6.1287 19.7794L11.0309 16.7147L9.97069 15.0189L5.0685 18.0836L6.1287 19.7794ZM9.97069 16.7147L14.8729 19.7794L15.9331 18.0836L11.0309 15.0189L9.97069 16.7147ZM14.9162 19.805L14.9785 19.8398L15.952 18.0927L15.8897 18.058L14.9162 19.805ZM15.0239 19.8635C16.2438 20.4636 17.6742 19.3953 17.3676 18.0157L15.4152 18.4496C15.3507 18.1591 15.6503 17.9428 15.9067 18.0689L15.0239 19.8635ZM17.3676 18.0157L16.1331 12.4611L14.1807 12.8951L15.4152 18.4496L17.3676 18.0157ZM15.864 13.3852L19.5469 9.70241L18.1327 8.28817L14.4498 11.971L15.864 13.3852ZM19.5846 9.66264L19.6356 9.6057L18.1461 8.27099L18.0951 8.32793L19.5846 9.66264ZM19.6716 9.56319C20.4636 8.5736 19.8879 7.05112 18.5812 6.88779L18.3332 8.87235C18.0586 8.83803 17.9437 8.5214 18.1101 8.3135L19.6716 9.56319ZM18.5814 6.88781L13.6798 6.2744L13.4315 8.25892L18.333 8.87233L18.5814 6.88781ZM14.45 6.8194L11.9822 1.88426L10.1934 2.77877L12.6612 7.71391L14.45 6.8194ZM11.9822 1.8843C11.3718 0.663566 9.62976 0.663566 9.01939 1.8843L10.8082 2.77873C10.6816 3.03209 10.32 3.03209 10.1933 2.77873L11.9822 1.8843ZM9.01946 1.88416L6.55093 6.8193L8.33965 7.71401L10.8082 2.77887L9.01946 1.88416Z" fill="#FFB84F" mask="url(#path-1-inside-1_190_515)"/>
</svg>
