<svg width="24" height="24" viewBox="0 0 24 24" fill="none" xmlns="http://www.w3.org/2000/svg">
<path d="M12 19.65L11.2 18.975C8.76667 16.725 6.79167 14.779 5.275 13.137C3.75833 11.4957 3 9.83336 3 8.15002C3 6.88336 3.43333 5.81669 4.3 4.95002C5.16667 4.08336 6.23333 3.65002 7.5 3.65002C8.23333 3.65002 8.996 3.83336 9.788 4.20002C10.5793 4.56669 11.3167 5.26669 12 6.30002C12.6833 5.26669 13.421 4.56669 14.213 4.20002C15.0043 3.83336 15.7667 3.65002 16.5 3.65002C17.7667 3.65002 18.8333 4.08336 19.7 4.95002C20.5667 5.81669 21 6.88336 21 8.15002C21 9.83336 20.2417 11.4957 18.725 13.137C17.2083 14.779 15.2333 16.725 12.8 18.975L12 19.65ZM12 18.3C14.3833 16.1334 16.3127 14.2667 17.788 12.7C19.2627 11.1334 20 9.61669 20 8.15002C20 7.15002 19.6667 6.31669 19 5.65002C18.3333 4.98336 17.5 4.65002 16.5 4.65002C15.7167 4.65002 14.9873 4.86236 14.312 5.28702C13.6373 5.71236 13.0333 6.40836 12.5 7.37502H11.5C10.9667 6.40836 10.3627 5.71236 9.688 5.28702C9.01267 4.86236 8.28333 4.65002 7.5 4.65002C6.5 4.65002 5.66667 4.98336 5 5.65002C4.33333 6.31669 4 7.15002 4 8.15002C4 9.61669 4.73767 11.1334 6.213 12.7C7.68767 14.2667 9.61667 16.1334 12 18.3Z" fill="black"/>
</svg>
