<svg width="44" height="44" viewBox="0 0 44 44" fill="none" xmlns="http://www.w3.org/2000/svg">
<path d="M20.7 27.2758C20.9 27.0758 20.996 26.8341 20.988 26.5508C20.9793 26.2674 20.875 26.0258 20.675 25.8258L17.85 23.0008H29C29.2833 23.0008 29.521 22.9048 29.713 22.7128C29.9043 22.5214 30 22.2841 30 22.0008C30 21.7174 29.9043 21.4798 29.713 21.2878C29.521 21.0964 29.2833 21.0008 29 21.0008H17.85L20.7 18.1508C20.9 17.9508 21 17.7131 21 17.4378C21 17.1631 20.9 16.9258 20.7 16.7258C20.5 16.5258 20.2623 16.4258 19.987 16.4258C19.7123 16.4258 19.475 16.5258 19.275 16.7258L14.7 21.3008C14.6 21.4008 14.529 21.5091 14.487 21.6258C14.4457 21.7424 14.425 21.8674 14.425 22.0008C14.425 22.1341 14.4457 22.2591 14.487 22.3758C14.529 22.4924 14.6 22.6008 14.7 22.7008L19.3 27.3008C19.4833 27.4841 19.7123 27.5758 19.987 27.5758C20.2623 27.5758 20.5 27.4758 20.7 27.2758V27.2758Z" fill="#535353"/>
</svg>
