<svg width="44" height="44" viewBox="0 0 44 44" fill="none" xmlns="http://www.w3.org/2000/svg">
<path d="M23.3 27.2758C23.1 27.0758 23.004 26.8341 23.012 26.5508C23.0207 26.2674 23.125 26.0258 23.325 25.8258L26.15 23.0008H15C14.7167 23.0008 14.479 22.9048 14.287 22.7128C14.0957 22.5214 14 22.2841 14 22.0008C14 21.7174 14.0957 21.4798 14.287 21.2878C14.479 21.0964 14.7167 21.0008 15 21.0008H26.15L23.3 18.1508C23.1 17.9508 23 17.7131 23 17.4378C23 17.1631 23.1 16.9258 23.3 16.7258C23.5 16.5258 23.7377 16.4258 24.013 16.4258C24.2877 16.4258 24.525 16.5258 24.725 16.7258L29.3 21.3008C29.4 21.4008 29.471 21.5091 29.513 21.6258C29.5543 21.7424 29.575 21.8674 29.575 22.0008C29.575 22.1341 29.5543 22.2591 29.513 22.3758C29.471 22.4924 29.4 22.6008 29.3 22.7008L24.7 27.3008C24.5167 27.4841 24.2877 27.5758 24.013 27.5758C23.7377 27.5758 23.5 27.4758 23.3 27.2758V27.2758Z" fill="#535353"/>
</svg>
