<svg width="44" height="69" viewBox="0 0 44 69" fill="none" xmlns="http://www.w3.org/2000/svg">
<path d="M16.3633 19.3809C16.2269 19.3809 16.0935 19.4245 15.9801 19.5062C15.8667 19.588 15.7783 19.7042 15.7262 19.8401C15.674 19.976 15.6605 20.1255 15.6872 20.2698C15.7139 20.414 15.7797 20.5465 15.8763 20.6504C15.9728 20.7542 16.0958 20.8249 16.2296 20.8534C16.3635 20.8819 16.5022 20.867 16.6281 20.8105C16.7541 20.754 16.8617 20.6585 16.9372 20.5361C17.0128 20.4136 17.053 20.2698 17.0527 20.1227C17.0527 20.0251 17.0349 19.9285 17.0002 19.8384C16.9656 19.7483 16.9148 19.6665 16.8507 19.5976C16.7867 19.5287 16.7107 19.4741 16.627 19.4369C16.5434 19.3997 16.4538 19.3807 16.3633 19.3809Z" fill="#626262"/>
<path d="M23.1617 19.3027C23.015 19.3027 22.8715 19.3496 22.7496 19.4375C22.6276 19.5254 22.5325 19.6503 22.4764 19.7964C22.4202 19.9425 22.4056 20.1033 22.4342 20.2584C22.4628 20.4136 22.5334 20.5561 22.6372 20.6679C22.7409 20.7797 22.8731 20.8559 23.017 20.8868C23.1608 20.9176 23.31 20.9018 23.4455 20.8413C23.581 20.7807 23.6969 20.6782 23.7784 20.5467C23.8599 20.4152 23.9034 20.2606 23.9034 20.1024C23.9034 19.8903 23.8252 19.6869 23.6861 19.537C23.547 19.387 23.3584 19.3027 23.1617 19.3027V19.3027Z" fill="#626262"/>
<path d="M29.3255 12H14.6759C13.9662 12 13.2856 12.304 12.7838 12.845C12.2819 13.386 12 14.1198 12 14.885L12 24.2589C12 24.6377 12.0692 25.0128 12.2037 25.3628C12.3382 25.7127 12.5353 26.0306 12.7838 26.2984C13.0323 26.5662 13.3273 26.7785 13.652 26.9234C13.9766 27.0682 14.3246 27.1426 14.6759 27.1424H19.8497L21.6072 31.6131C21.6072 31.6131 21.7273 32 22.0212 32C22.3151 32 22.4352 31.6131 22.4352 31.6131L24.1984 27.1424H29.3255C30.0348 27.1424 30.7151 26.8386 31.2167 26.2979C31.7182 25.7571 32 25.0237 32 24.2589V14.885C32 14.1201 31.7183 13.3865 31.2167 12.8455C30.7152 12.3045 30.035 12.0004 29.3255 12V12ZM18.2828 20.2864C18.2758 22 16.6313 22.0533 16.6313 22.0533C16.4463 22.0529 16.2634 22.0123 16.0935 21.9337C15.9235 21.8552 15.77 21.7404 15.6423 21.5963V21.901H14.4414V16.5819C14.5148 16.5956 15.638 16.5819 15.638 16.5819V18.6139C15.9206 18.0975 16.733 18.1051 16.733 18.1051C18.499 18.2833 18.2828 20.2864 18.2828 20.2864ZM20.3908 18.2696V21.9132H19.2196V18.3062C19.2196 17.8142 18.6544 17.6786 18.6544 17.6786V16.4067C20.525 16.489 20.3908 18.2696 20.3908 18.2696ZM23.1613 22.0533C22.0777 22.0533 21.1975 21.1805 21.1975 20.1036C21.1975 19.0267 22.0834 18.1538 23.1613 18.1538C24.2393 18.1538 25.1252 19.0251 25.1252 20.1021C25.1252 21.179 24.252 22.0533 23.1613 22.0533ZM29.5784 22.0533C29.5784 22.0533 29.5954 23.904 27.8519 23.904H27.3207V22.7022H27.64C27.64 22.7022 28.3733 22.7753 28.3648 21.5583C28.3648 21.5583 28.2235 22.0518 27.1936 22.0518C27.1936 22.0518 25.7355 21.9375 25.7355 20.4037V19.8233C25.7355 19.8233 25.7694 18.2331 27.3702 18.1051C27.5644 18.0911 27.7588 18.1285 27.9366 18.214C28.1144 18.2995 28.2701 18.4305 28.3902 18.5956V18.2056H29.5784V22.0533Z" fill="#626262"/>
<path d="M27.7228 19.3203C27.5795 19.3203 27.4394 19.3661 27.3202 19.452C27.201 19.5379 27.1081 19.6599 27.0532 19.8027C26.9984 19.9455 26.984 20.1026 27.012 20.2542C27.0399 20.4058 27.109 20.545 27.2103 20.6543C27.3117 20.7636 27.4408 20.838 27.5814 20.8681C27.722 20.8983 27.8678 20.8828 28.0002 20.8237C28.1326 20.7645 28.2458 20.6644 28.3255 20.5359C28.4051 20.4074 28.4476 20.2563 28.4476 20.1017C28.4476 19.8945 28.3712 19.6957 28.2353 19.5492C28.0994 19.4026 27.9151 19.3203 27.7228 19.3203V19.3203Z" fill="#626262"/>
<path d="M16.3633 44.3809C16.2269 44.3809 16.0935 44.4245 15.9801 44.5062C15.8667 44.588 15.7783 44.7042 15.7262 44.8401C15.674 44.976 15.6605 45.1255 15.6872 45.2698C15.7139 45.414 15.7797 45.5465 15.8763 45.6504C15.9728 45.7542 16.0958 45.8249 16.2296 45.8534C16.3635 45.8819 16.5022 45.867 16.6281 45.8105C16.7541 45.754 16.8617 45.6585 16.9372 45.5361C17.0128 45.4136 17.053 45.2698 17.0527 45.1227C17.0527 45.0251 17.0349 44.9285 17.0002 44.8384C16.9656 44.7483 16.9148 44.6665 16.8507 44.5976C16.7867 44.5287 16.7107 44.4741 16.627 44.4369C16.5434 44.3997 16.4538 44.3807 16.3633 44.3809Z" fill="#FF8484"/>
<path d="M23.1617 44.3027C23.015 44.3027 22.8715 44.3496 22.7496 44.4375C22.6276 44.5254 22.5325 44.6503 22.4764 44.7964C22.4202 44.9425 22.4056 45.1033 22.4342 45.2584C22.4628 45.4136 22.5334 45.5561 22.6372 45.6679C22.7409 45.7797 22.8731 45.8559 23.017 45.8868C23.1608 45.9176 23.31 45.9018 23.4455 45.8413C23.581 45.7807 23.6969 45.6782 23.7784 45.5467C23.8599 45.4152 23.9034 45.2606 23.9034 45.1024C23.9034 44.8903 23.8252 44.6869 23.6861 44.537C23.547 44.387 23.3584 44.3027 23.1617 44.3027V44.3027Z" fill="#FF8484"/>
<path d="M29.3255 37H14.6759C13.9662 37 13.2856 37.304 12.7838 37.845C12.2819 38.386 12 39.1198 12 39.885L12 49.2589C12 49.6377 12.0692 50.0128 12.2037 50.3628C12.3382 50.7127 12.5353 51.0306 12.7838 51.2984C13.0323 51.5662 13.3273 51.7785 13.652 51.9234C13.9766 52.0682 14.3246 52.1426 14.6759 52.1424H19.8497L21.6072 56.6131C21.6072 56.6131 21.7273 57 22.0212 57C22.3151 57 22.4352 56.6131 22.4352 56.6131L24.1984 52.1424H29.3255C30.0348 52.1424 30.7151 51.8386 31.2167 51.2979C31.7182 50.7571 32 50.0237 32 49.2589V39.885C32 39.1201 31.7183 38.3865 31.2167 37.8455C30.7152 37.3045 30.035 37.0004 29.3255 37V37ZM18.2828 45.2864C18.2758 47 16.6313 47.0533 16.6313 47.0533C16.4463 47.0529 16.2634 47.0123 16.0935 46.9337C15.9235 46.8552 15.77 46.7404 15.6423 46.5963V46.901H14.4414V41.5819C14.5148 41.5956 15.638 41.5819 15.638 41.5819V43.6139C15.9206 43.0975 16.733 43.1051 16.733 43.1051C18.499 43.2833 18.2828 45.2864 18.2828 45.2864ZM20.3908 43.2696V46.9132H19.2196V43.3062C19.2196 42.8142 18.6544 42.6786 18.6544 42.6786V41.4067C20.525 41.489 20.3908 43.2696 20.3908 43.2696ZM23.1613 47.0533C22.0777 47.0533 21.1975 46.1805 21.1975 45.1036C21.1975 44.0267 22.0834 43.1538 23.1613 43.1538C24.2393 43.1538 25.1252 44.0251 25.1252 45.1021C25.1252 46.179 24.252 47.0533 23.1613 47.0533ZM29.5784 47.0533C29.5784 47.0533 29.5954 48.904 27.8519 48.904H27.3207V47.7022H27.64C27.64 47.7022 28.3733 47.7753 28.3648 46.5583C28.3648 46.5583 28.2235 47.0518 27.1936 47.0518C27.1936 47.0518 25.7355 46.9375 25.7355 45.4037V44.8233C25.7355 44.8233 25.7694 43.2331 27.3702 43.1051C27.5644 43.0911 27.7588 43.1285 27.9366 43.214C28.1144 43.2995 28.2701 43.4305 28.3902 43.5956V43.2056H29.5784V47.0533Z" fill="#FF8484"/>
<path d="M27.7228 44.3203C27.5795 44.3203 27.4394 44.3661 27.3202 44.452C27.201 44.5379 27.1081 44.6599 27.0532 44.8027C26.9984 44.9455 26.984 45.1026 27.012 45.2542C27.0399 45.4058 27.109 45.545 27.2103 45.6543C27.3117 45.7636 27.4408 45.838 27.5814 45.8681C27.722 45.8983 27.8678 45.8828 28.0002 45.8237C28.1326 45.7645 28.2458 45.6644 28.3255 45.5359C28.4051 45.4074 28.4476 45.2563 28.4476 45.1017C28.4476 44.8945 28.3712 44.6957 28.2353 44.5492C28.0994 44.4026 27.9151 44.3203 27.7228 44.3203V44.3203Z" fill="#FF8484"/>
</svg>
