<svg width="44" height="69" viewBox="0 0 44 69" fill="none" xmlns="http://www.w3.org/2000/svg">
<path d="M22 33C28.0751 33 33 28.0751 33 22C33 15.9249 28.0751 11 22 11C15.9249 11 11 15.9249 11 22C11 28.0751 15.9249 33 22 33Z" fill="#626262"/>
<path d="M20.3285 18.3824C20.3285 18.7004 20.3285 20.1184 20.3285 20.1184H19.0566V22.241H20.3285V28.059H22.941V22.2367H24.6941C24.6941 22.2367 24.8574 21.2184 24.9391 20.1055C24.7113 20.1055 22.9539 20.1055 22.9539 20.1055C22.9539 20.1055 22.9539 18.8723 22.9539 18.6531C22.9539 18.4383 23.2375 18.1461 23.5211 18.1461C23.8004 18.1461 24.3934 18.1461 24.9434 18.1461C24.9434 17.8582 24.9434 16.857 24.9434 15.9375C24.2086 15.9375 23.375 15.9375 23.0098 15.9375C20.2641 15.9418 20.3285 18.0645 20.3285 18.3824Z" fill="white"/>
<path d="M22 58C28.0751 58 33 53.0751 33 47C33 40.9249 28.0751 36 22 36C15.9249 36 11 40.9249 11 47C11 53.0751 15.9249 58 22 58Z" fill="#FF8484"/>
<path d="M20.3285 43.3824C20.3285 43.7004 20.3285 45.1184 20.3285 45.1184H19.0566V47.241H20.3285V53.059H22.941V47.2367H24.6941C24.6941 47.2367 24.8574 46.2184 24.9391 45.1055C24.7113 45.1055 22.9539 45.1055 22.9539 45.1055C22.9539 45.1055 22.9539 43.8723 22.9539 43.6531C22.9539 43.4383 23.2375 43.1461 23.5211 43.1461C23.8004 43.1461 24.3934 43.1461 24.9434 43.1461C24.9434 42.8582 24.9434 41.857 24.9434 40.9375C24.2086 40.9375 23.375 40.9375 23.0098 40.9375C20.2641 40.9418 20.3285 43.0645 20.3285 43.3824Z" fill="white"/>
</svg>
