<svg width="44" height="69" viewBox="0 0 44 69" fill="none" xmlns="http://www.w3.org/2000/svg">
<g clip-path="url(#clip0_113_908)">
<path d="M22 12.9814C24.9391 12.9814 25.2869 12.9944 26.4426 13.046C27.5172 13.0934 28.0967 13.2736 28.4838 13.4241C28.9953 13.6221 29.3645 13.8628 29.7467 14.245C30.1338 14.6321 30.3696 14.9971 30.5718 15.5086C30.7223 15.8957 30.9024 16.4794 30.9499 17.5498C31.0014 18.7103 31.0145 19.0582 31.0145 21.9931C31.0145 24.9281 31.0014 25.2801 30.9499 26.4364C30.9024 27.511 30.7223 28.0906 30.5718 28.4776C30.3738 28.9891 30.1338 29.3583 29.7509 29.7406C29.3638 30.1276 28.9988 30.3634 28.4879 30.5656C28.1009 30.7161 27.5165 30.8963 26.4468 30.9437C25.2863 30.9953 24.9384 31.0083 22.0034 31.0083C19.0685 31.0083 18.7165 30.9953 17.5601 30.9437C16.4856 30.8963 15.906 30.7161 15.5189 30.5656C15.0074 30.3676 14.6383 30.1276 14.2553 29.7447C13.8683 29.3576 13.6324 28.9926 13.4303 28.4818C13.2798 28.0947 13.0996 27.5103 13.0522 26.4406C13.0006 25.2801 12.9876 24.9322 12.9876 21.9973C12.9876 19.0623 13.0006 18.7103 13.0522 17.5539C13.0996 16.4794 13.2798 15.8998 13.4303 15.5128C13.6283 15.0013 13.8689 14.6321 14.2512 14.2491C14.6383 13.8621 15.0033 13.6263 15.5148 13.4241C15.9019 13.2736 16.4856 13.0934 17.556 13.046C18.7117 12.9944 19.0602 12.9814 21.9993 12.9814H22ZM22 11.0007C19.0135 11.0007 18.6402 11.0137 17.4666 11.0653C16.2979 11.1169 15.4942 11.3059 14.7984 11.5768C14.0724 11.8601 13.4578 12.2341 12.848 12.8487C12.2334 13.4592 11.8594 14.0731 11.5761 14.795C11.3053 15.4956 11.1162 16.2944 11.0646 17.4632C11.0131 18.6409 11 19.0142 11 22.0007C11 24.9872 11.0131 25.3605 11.0646 26.5341C11.1162 27.7028 11.3053 28.5065 11.5761 29.2023C11.8601 29.9283 12.2334 30.5429 12.848 31.1527C13.4578 31.7625 14.0724 32.1413 14.7943 32.4204C15.4949 32.6913 16.2937 32.8804 17.4625 32.9319C18.6354 32.9835 19.0094 32.9966 21.9959 32.9966C24.9824 32.9966 25.3564 32.9835 26.5292 32.9319C27.698 32.8804 28.5017 32.6913 29.1974 32.4204C29.9193 32.1413 30.5339 31.7632 31.1437 31.1527C31.7536 30.5422 32.1324 29.9283 32.4115 29.2064C32.6824 28.5058 32.8714 27.7069 32.923 26.5382C32.9746 25.3653 32.9876 24.9913 32.9876 22.0048C32.9876 19.0183 32.9746 18.645 32.923 17.4714C32.8714 16.3027 32.6824 15.499 32.4115 14.8033C32.1406 14.0724 31.7666 13.4585 31.1527 12.848C30.5429 12.2382 29.9283 11.8594 29.2064 11.5803C28.5058 11.3094 27.7069 11.1203 26.5382 11.0688C25.3612 11.0131 24.9872 11 22.0007 11L22 11.0007Z" fill="#626262"/>
<path d="M22.0002 16.3496C18.881 16.3496 16.3496 18.8803 16.3496 22.0002C16.3496 25.12 18.8803 27.6507 22.0002 27.6507C25.12 27.6507 27.6507 25.12 27.6507 22.0002C27.6507 18.881 25.12 16.3496 22.0002 16.3496V16.3496ZM22.0002 25.6652C19.9762 25.6652 18.3351 24.0242 18.3351 22.0002C18.3351 19.9762 19.9762 18.3351 22.0002 18.3351C24.0242 18.3351 25.6652 19.9762 25.6652 22.0002C25.6652 24.0242 24.0242 25.6652 22.0002 25.6652Z" fill="#626262"/>
<path d="M29.1933 16.126C29.1933 16.8547 28.6027 17.4453 27.874 17.4453C27.1452 17.4453 26.5547 16.8547 26.5547 16.126C26.5547 15.3972 27.1452 14.8066 27.874 14.8066C28.6027 14.8066 29.1933 15.3972 29.1933 16.126V16.126Z" fill="#626262"/>
</g>
<g clip-path="url(#clip1_113_908)">
<path d="M22 37.9814C24.9391 37.9814 25.2869 37.9944 26.4426 38.046C27.5172 38.0934 28.0967 38.2736 28.4838 38.4241C28.9953 38.6221 29.3645 38.8628 29.7467 39.245C30.1338 39.6321 30.3696 39.9971 30.5718 40.5086C30.7223 40.8957 30.9024 41.4794 30.9499 42.5498C31.0014 43.7103 31.0145 44.0582 31.0145 46.9931C31.0145 49.9281 31.0014 50.2801 30.9499 51.4364C30.9024 52.511 30.7223 53.0906 30.5718 53.4776C30.3738 53.9891 30.1338 54.3583 29.7509 54.7406C29.3638 55.1276 28.9988 55.3634 28.4879 55.5656C28.1009 55.7161 27.5165 55.8963 26.4468 55.9437C25.2863 55.9953 24.9384 56.0083 22.0034 56.0083C19.0685 56.0083 18.7165 55.9953 17.5601 55.9437C16.4856 55.8963 15.906 55.7161 15.5189 55.5656C15.0074 55.3676 14.6383 55.1276 14.2553 54.7447C13.8683 54.3576 13.6324 53.9926 13.4303 53.4818C13.2798 53.0947 13.0996 52.5103 13.0522 51.4406C13.0006 50.2801 12.9876 49.9322 12.9876 46.9973C12.9876 44.0623 13.0006 43.7103 13.0522 42.5539C13.0996 41.4794 13.2798 40.8998 13.4303 40.5128C13.6283 40.0013 13.8689 39.6321 14.2512 39.2491C14.6383 38.8621 15.0033 38.6263 15.5148 38.4241C15.9019 38.2736 16.4856 38.0934 17.556 38.046C18.7117 37.9944 19.0602 37.9814 21.9993 37.9814H22ZM22 36.0007C19.0135 36.0007 18.6402 36.0137 17.4666 36.0653C16.2979 36.1169 15.4942 36.3059 14.7984 36.5768C14.0724 36.8601 13.4578 37.2341 12.848 37.8487C12.2334 38.4592 11.8594 39.0731 11.5761 39.795C11.3053 40.4956 11.1162 41.2944 11.0646 42.4632C11.0131 43.6409 11 44.0142 11 47.0007C11 49.9872 11.0131 50.3605 11.0646 51.5341C11.1162 52.7028 11.3053 53.5065 11.5761 54.2023C11.8601 54.9283 12.2334 55.5429 12.848 56.1527C13.4578 56.7625 14.0724 57.1413 14.7943 57.4204C15.4949 57.6913 16.2937 57.8804 17.4625 57.9319C18.6354 57.9835 19.0094 57.9966 21.9959 57.9966C24.9824 57.9966 25.3564 57.9835 26.5292 57.9319C27.698 57.8804 28.5017 57.6913 29.1974 57.4204C29.9193 57.1413 30.5339 56.7632 31.1437 56.1527C31.7536 55.5422 32.1324 54.9283 32.4115 54.2064C32.6824 53.5058 32.8714 52.7069 32.923 51.5382C32.9746 50.3653 32.9876 49.9913 32.9876 47.0048C32.9876 44.0183 32.9746 43.645 32.923 42.4714C32.8714 41.3027 32.6824 40.499 32.4115 39.8033C32.1406 39.0724 31.7666 38.4585 31.1527 37.848C30.5429 37.2382 29.9283 36.8594 29.2064 36.5803C28.5058 36.3094 27.7069 36.1203 26.5382 36.0688C25.3612 36.0131 24.9872 36 22.0007 36L22 36.0007Z" fill="#FF8484"/>
<path d="M22.0002 41.3496C18.881 41.3496 16.3496 43.8803 16.3496 47.0002C16.3496 50.12 18.8803 52.6507 22.0002 52.6507C25.12 52.6507 27.6507 50.12 27.6507 47.0002C27.6507 43.881 25.12 41.3496 22.0002 41.3496V41.3496ZM22.0002 50.6652C19.9762 50.6652 18.3351 49.0242 18.3351 47.0002C18.3351 44.9762 19.9762 43.3351 22.0002 43.3351C24.0242 43.3351 25.6652 44.9762 25.6652 47.0002C25.6652 49.0242 24.0242 50.6652 22.0002 50.6652Z" fill="#FF8484"/>
<path d="M29.1933 41.126C29.1933 41.8547 28.6027 42.4453 27.874 42.4453C27.1452 42.4453 26.5547 41.8547 26.5547 41.126C26.5547 40.3972 27.1452 39.8066 27.874 39.8066C28.6027 39.8066 29.1933 40.3972 29.1933 41.126V41.126Z" fill="#FF8484"/>
</g>
<defs>
<clipPath id="clip0_113_908">
<rect width="22" height="22" fill="white" transform="translate(11 11)"/>
</clipPath>
<clipPath id="clip1_113_908">
<rect width="22" height="22" fill="white" transform="translate(11 36)"/>
</clipPath>
</defs>
</svg>
