<svg width="180" height="90" viewBox="0 0 180 90" fill="none" xmlns="http://www.w3.org/2000/svg">
<g clip-path="url(#clip0_114_962)">
<path d="M165 76.665V90L157.5 82.5L150 90V76.665C147.14 75.014 144.905 72.4655 143.642 69.4149C142.378 66.3642 142.156 62.9818 143.011 59.7923C143.866 56.6028 145.749 53.7845 148.369 51.7743C150.988 49.7642 154.198 48.6746 157.5 48.6746C160.802 48.6746 164.012 49.7642 166.631 51.7743C169.251 53.7845 171.134 56.6028 171.989 59.7923C172.844 62.9818 172.622 66.3642 171.358 69.4149C170.095 72.4655 167.86 75.014 165 76.665ZM142.5 80.4862V82.5H101.25V11.25C101.25 8.26631 102.435 5.40483 104.545 3.29505C106.655 1.18526 109.516 0 112.5 0L157.5 0C160.484 0 163.345 1.18526 165.455 3.29505C167.565 5.40483 168.75 8.26631 168.75 11.25V44.2838C163.936 41.4873 158.255 40.5774 152.808 41.7304C147.361 42.8834 142.536 46.0172 139.268 50.5245C136 55.0319 134.521 60.592 135.118 66.1274C135.715 71.6629 138.346 76.7796 142.5 80.4862V80.4862ZM116.25 22.5H153.75V15H116.25V22.5ZM116.25 37.5H153.75V30H116.25V37.5ZM116.25 52.5H135V45H116.25V52.5Z" fill="#5C5C5C"/>
</g>
<g clip-path="url(#clip1_114_962)">
<path d="M75 76.665V90L67.5 82.5L60 90V76.665C57.1404 75.014 54.9054 72.4655 53.6418 69.4149C52.3782 66.3642 52.1565 62.9818 53.0111 59.7923C53.8657 56.6028 55.7489 53.7845 58.3686 51.7743C60.9882 49.7642 64.198 48.6746 67.5 48.6746C70.802 48.6746 74.0118 49.7642 76.6314 51.7743C79.2511 53.7845 81.1343 56.6028 81.9889 59.7923C82.8435 62.9818 82.6218 66.3642 81.3582 69.4149C80.0946 72.4655 77.8596 75.014 75 76.665ZM52.5 80.4862V82.5H11.25V11.25C11.25 8.26631 12.4353 5.40483 14.545 3.29505C16.6548 1.18526 19.5163 0 22.5 0L67.5 0C70.4837 0 73.3452 1.18526 75.455 3.29505C77.5647 5.40483 78.75 8.26631 78.75 11.25V44.2838C73.9357 41.4873 68.2547 40.5774 62.8079 41.7304C57.361 42.8834 52.536 46.0172 49.2677 50.5245C45.9995 55.0319 44.5207 60.592 45.1179 66.1274C45.715 71.6629 48.3456 76.7796 52.5 80.4862V80.4862ZM26.25 22.5H63.75V15H26.25V22.5ZM26.25 37.5H63.75V30H26.25V37.5ZM26.25 52.5H45V45H26.25V52.5Z" fill="#FF8484"/>
</g>
<defs>
<clipPath id="clip0_114_962">
<rect width="90" height="90" fill="white" transform="translate(90)"/>
</clipPath>
<clipPath id="clip1_114_962">
<rect width="90" height="90" fill="white"/>
</clipPath>
</defs>
</svg>
