<svg width="180" height="90" viewBox="0 0 180 90" fill="none" xmlns="http://www.w3.org/2000/svg">
<g clip-path="url(#clip0_114_961)">
<path d="M170.302 18.75H153.75V2.1975L170.302 18.75ZM172.5 26.25V90H97.5V11.25C97.5 8.26631 98.6853 5.40483 100.795 3.29505C102.905 1.18526 105.766 0 108.75 0L146.25 0V26.25H172.5ZM152.291 50.76L147 45.4575L133.537 58.9012C132.824 59.5836 131.875 59.9645 130.888 59.9645C129.901 59.9645 128.952 59.5836 128.239 58.9012L122.291 52.9575L117 58.26L122.944 64.2038C123.988 65.2486 125.229 66.0775 126.594 66.6429C127.959 67.2084 129.422 67.4995 130.899 67.4995C132.377 67.4995 133.84 67.2084 135.205 66.6429C136.57 66.0775 137.81 65.2486 138.855 64.2038L152.291 50.76Z" fill="#5C5C5C"/>
</g>
<g clip-path="url(#clip1_114_961)">
<path d="M80.3025 18.75H63.75V2.1975L80.3025 18.75ZM82.5 26.25V90H7.5V11.25C7.5 8.26631 8.68526 5.40483 10.795 3.29505C12.9048 1.18526 15.7663 0 18.75 0L56.25 0V26.25H82.5ZM62.2913 50.76L57 45.4575L43.5375 58.9012C42.8242 59.5836 41.8752 59.9645 40.8881 59.9645C39.901 59.9645 38.952 59.5836 38.2387 58.9012L32.2913 52.9575L27 58.26L32.9437 64.2038C33.9884 65.2486 35.2287 66.0775 36.5937 66.6429C37.9588 67.2084 39.4218 67.4995 40.8994 67.4995C42.3769 67.4995 43.84 67.2084 45.205 66.6429C46.57 66.0775 47.8103 65.2486 48.855 64.2038L62.2913 50.76Z" fill="#FF8484"/>
</g>
<defs>
<clipPath id="clip0_114_961">
<rect width="90" height="90" fill="white" transform="translate(90)"/>
</clipPath>
<clipPath id="clip1_114_961">
<rect width="90" height="90" fill="white"/>
</clipPath>
</defs>
</svg>
