<svg width="44" height="69" viewBox="0 0 44 69" fill="none" xmlns="http://www.w3.org/2000/svg">
<path d="M21.6864 12.0126C23.6063 12.0126 25.5275 12.0316 27.4474 12.0004C28.0481 11.9909 28.284 12.1495 28.2799 12.7949C28.2546 16.6817 28.2546 20.5685 28.2799 24.4552C28.2799 25.0572 28.0698 25.2362 27.4908 25.2335C23.604 25.2172 19.7173 25.2172 15.8305 25.2335C15.2597 25.2335 15.0292 25.0722 15.0333 24.4634C15.0549 20.5766 15.0549 16.6898 15.0333 12.8031C15.0333 12.1685 15.2461 11.9895 15.8576 12.0018C17.7992 12.0329 19.7421 12.0126 21.6864 12.0126ZM24.5961 21.2256V16.0815H22.8416V18.522L22.683 18.5912C22.1894 18.0231 21.6878 17.4631 21.2064 16.8855C20.4485 15.9758 19.8506 15.8008 18.6913 16.1588V21.1849H20.4906V18.4637C21.2254 19.322 21.8261 19.9931 22.3887 20.6955C22.6925 21.0724 23.007 21.3097 23.525 21.2378C23.8558 21.1849 24.1988 21.2256 24.5961 21.2256V21.2256Z" fill="#626262"/>
<path d="M15 26.168H28.244C28.0053 26.4852 27.8494 26.7103 27.6718 26.9232C26.9735 27.7502 26.2834 28.5855 25.5512 29.3827C25.3541 29.5812 25.0903 29.6995 24.8109 29.7149C22.7134 29.742 20.6078 29.7352 18.5157 29.723C18.3083 29.723 18.0263 29.6796 17.9056 29.544C16.9646 28.4878 16.0549 27.4045 15 26.168Z" fill="#626262"/>
<path d="M21.6551 34.0008L18.9434 30.7969H24.3573L21.6551 34.0008Z" fill="#626262"/>
<path d="M21.6864 37.0126C23.6063 37.0126 25.5275 37.0316 27.4474 37.0004C28.0481 36.9909 28.284 37.1495 28.2799 37.7949C28.2546 41.6817 28.2546 45.5685 28.2799 49.4552C28.2799 50.0572 28.0698 50.2362 27.4908 50.2335C23.604 50.2172 19.7173 50.2172 15.8305 50.2335C15.2597 50.2335 15.0292 50.0722 15.0333 49.4634C15.0549 45.5766 15.0549 41.6898 15.0333 37.8031C15.0333 37.1685 15.2461 36.9895 15.8576 37.0018C17.7992 37.0329 19.7421 37.0126 21.6864 37.0126ZM24.5961 46.2256V41.0815H22.8416V43.522L22.683 43.5912C22.1894 43.0231 21.6878 42.4631 21.2064 41.8855C20.4485 40.9758 19.8506 40.8008 18.6913 41.1588V46.1849H20.4906V43.4637C21.2254 44.322 21.8261 44.9931 22.3887 45.6955C22.6925 46.0724 23.007 46.3097 23.525 46.2378C23.8558 46.1849 24.1988 46.2256 24.5961 46.2256V46.2256Z" fill="#FF8484"/>
<path d="M15 51.168H28.244C28.0053 51.4852 27.8494 51.7103 27.6718 51.9232C26.9735 52.7502 26.2834 53.5855 25.5512 54.3827C25.3541 54.5812 25.0903 54.6995 24.8109 54.7149C22.7134 54.742 20.6078 54.7352 18.5157 54.723C18.3083 54.723 18.0263 54.6796 17.9056 54.544C16.9646 53.4878 16.0549 52.4045 15 51.168Z" fill="#FF8484"/>
<path d="M21.6551 59.0008L18.9434 55.7969H24.3573L21.6551 59.0008Z" fill="#FF8484"/>
</svg>
