<svg width="44" height="69" viewBox="0 0 44 69" fill="none" xmlns="http://www.w3.org/2000/svg">
<g clip-path="url(#clip0_113_912)">
<path d="M33.7602 17.2006C33.7602 17.2006 33.5254 15.5461 32.8039 14.8193C31.8897 13.8631 30.8682 13.8586 30.3994 13.8023C27.0432 13.5586 22.0039 13.5586 22.0039 13.5586H21.9949C21.9949 13.5586 16.9557 13.5586 13.5994 13.8023C13.1307 13.8586 12.1092 13.8631 11.1949 14.8193C10.4727 15.5461 10.2432 17.2006 10.2432 17.2006C10.2432 17.2006 10.0039 19.1416 10.0039 21.0863V22.9051C10.0039 24.8453 10.2432 26.7908 10.2432 26.7908C10.2432 26.7908 10.4779 28.4453 11.1949 29.1721C12.1092 30.1283 13.3092 30.0953 13.8432 30.1988C15.7654 30.3818 22.0039 30.4381 22.0039 30.4381C22.0039 30.4381 27.0477 30.4291 30.4039 30.1898C30.8727 30.1336 31.8949 30.1291 32.8084 29.1728C33.5299 28.4461 33.7647 26.7916 33.7647 26.7916C33.7647 26.7916 34.0039 24.8513 34.0039 22.9058V21.0871C33.9994 19.1461 33.7602 17.2013 33.7602 17.2013V17.2006ZM19.5199 25.1131V18.3676L26.0029 21.7523L19.5199 25.1131Z" fill="#626262"/>
</g>
<g clip-path="url(#clip1_113_912)">
<path d="M33.7602 42.2006C33.7602 42.2006 33.5254 40.5461 32.8039 39.8193C31.8897 38.8631 30.8682 38.8586 30.3994 38.8023C27.0432 38.5586 22.0039 38.5586 22.0039 38.5586H21.9949C21.9949 38.5586 16.9557 38.5586 13.5994 38.8023C13.1307 38.8586 12.1092 38.8631 11.1949 39.8193C10.4727 40.5461 10.2432 42.2006 10.2432 42.2006C10.2432 42.2006 10.0039 44.1416 10.0039 46.0863V47.9051C10.0039 49.8453 10.2432 51.7908 10.2432 51.7908C10.2432 51.7908 10.4779 53.4453 11.1949 54.1721C12.1092 55.1283 13.3092 55.0953 13.8432 55.1988C15.7654 55.3818 22.0039 55.4381 22.0039 55.4381C22.0039 55.4381 27.0477 55.4291 30.4039 55.1898C30.8727 55.1336 31.8949 55.1291 32.8084 54.1728C33.5299 53.4461 33.7647 51.7916 33.7647 51.7916C33.7647 51.7916 34.0039 49.8513 34.0039 47.9058V46.0871C33.9994 44.1461 33.7602 42.2013 33.7602 42.2013V42.2006ZM19.5199 50.1131V43.3676L26.0029 46.7523L19.5199 50.1131Z" fill="#FF8484"/>
</g>
<defs>
<clipPath id="clip0_113_912">
<rect width="24" height="24" fill="white" transform="translate(10 10)"/>
</clipPath>
<clipPath id="clip1_113_912">
<rect width="24" height="24" fill="white" transform="translate(10 35)"/>
</clipPath>
</defs>
</svg>
