<svg width="97" height="48" viewBox="0 0 97 48" fill="none" xmlns="http://www.w3.org/2000/svg">
<path d="M38.7702 40.9C35.0349 40.9 31.283 39.9417 27.5144 38.025C23.7457 36.1083 20.344 33.6333 17.309 30.6C14.2741 27.5667 11.8062 24.175 9.9052 20.425C8.00421 16.675 7.05371 12.9333 7.05371 9.2C7.05371 8.56667 7.26215 8.04167 7.67904 7.625C8.09592 7.20833 8.62119 7 9.25486 7H14.9578C15.4914 7 15.9417 7.16667 16.3085 7.5C16.6754 7.83333 16.9255 8.28333 17.0589 8.85L18.2595 14.2C18.3262 14.7 18.3096 15.15 18.2095 15.55C18.1095 15.95 17.9094 16.2833 17.6092 16.55L12.9068 21.15C14.8077 24.35 16.9339 27.1083 19.2851 29.425C21.6363 31.7417 24.3294 33.7333 27.3643 35.4L31.8666 30.7C32.2001 30.3333 32.5753 30.075 32.9922 29.925C33.4091 29.775 33.851 29.75 34.3179 29.85L39.1704 30.95C39.704 31.05 40.1376 31.3 40.4711 31.7C40.8046 32.1 40.9714 32.5833 40.9714 33.15V38.65C40.9714 39.2833 40.7629 39.8167 40.346 40.25C39.9292 40.6833 39.4039 40.9 38.7702 40.9V40.9ZM11.7562 19.1L15.8583 15.1C15.925 15.0333 15.9667 14.9583 15.9834 14.875C16 14.7917 16.0084 14.7167 16.0084 14.65L14.9078 9.6C14.8744 9.46667 14.8244 9.375 14.7577 9.325C14.691 9.275 14.6076 9.25 14.5076 9.25H9.60504C9.50499 9.25 9.42995 9.275 9.37992 9.325C9.3299 9.375 9.30488 9.45 9.30488 9.55C9.27153 10.85 9.47164 12.2917 9.9052 13.875C10.3388 15.4583 10.9557 17.2 11.7562 19.1V19.1ZM38.42 38.65C38.5201 38.65 38.5951 38.625 38.6452 38.575C38.6952 38.525 38.7202 38.45 38.7202 38.35V33.45C38.7202 33.35 38.6952 33.2667 38.6452 33.2C38.5951 33.1333 38.5201 33.0833 38.42 33.05L33.8677 32.15C33.801 32.1167 33.7343 32.1167 33.6676 32.15L33.4675 32.25L29.5154 36.45C30.8828 37.1167 32.3752 37.6333 33.9927 38C35.6102 38.3667 37.086 38.5833 38.42 38.65V38.65Z" fill="#333333"/>
<path d="M86.7702 40.9C83.0349 40.9 79.283 39.9417 75.5144 38.025C71.7457 36.1083 68.344 33.6333 65.309 30.6C62.2741 27.5667 59.8062 24.175 57.9052 20.425C56.0042 16.675 55.0537 12.9333 55.0537 9.2C55.0537 8.56667 55.2622 8.04167 55.679 7.625C56.0959 7.20833 56.6212 7 57.2549 7H62.9578C63.4914 7 63.9417 7.16667 64.3085 7.5C64.6754 7.83333 64.9255 8.28333 65.0589 8.85L66.2595 14.2C66.3262 14.7 66.3096 15.15 66.2095 15.55C66.1095 15.95 65.9094 16.2833 65.6092 16.55L60.9068 21.15C62.8077 24.35 64.9339 27.1083 67.2851 29.425C69.6363 31.7417 72.3294 33.7333 75.3643 35.4L79.8666 30.7C80.2001 30.3333 80.5753 30.075 80.9922 29.925C81.4091 29.775 81.851 29.75 82.3179 29.85L87.1704 30.95C87.704 31.05 88.1376 31.3 88.4711 31.7C88.8046 32.1 88.9714 32.5833 88.9714 33.15V38.65C88.9714 39.2833 88.7629 39.8167 88.346 40.25C87.9292 40.6833 87.4039 40.9 86.7702 40.9V40.9ZM59.7562 19.1L63.8583 15.1C63.925 15.0333 63.9667 14.9583 63.9834 14.875C64 14.7917 64.0084 14.7167 64.0084 14.65L62.9078 9.6C62.8744 9.46667 62.8244 9.375 62.7577 9.325C62.691 9.275 62.6076 9.25 62.5076 9.25H57.605C57.505 9.25 57.4299 9.275 57.3799 9.325C57.3299 9.375 57.3049 9.45 57.3049 9.55C57.2715 10.85 57.4716 12.2917 57.9052 13.875C58.3388 15.4583 58.9557 17.2 59.7562 19.1V19.1ZM86.42 38.65C86.5201 38.65 86.5951 38.625 86.6452 38.575C86.6952 38.525 86.7202 38.45 86.7202 38.35V33.45C86.7202 33.35 86.6952 33.2667 86.6452 33.2C86.5951 33.1333 86.5201 33.0833 86.42 33.05L81.8677 32.15C81.801 32.1167 81.7343 32.1167 81.6676 32.15L81.4675 32.25L77.5154 36.45C78.8828 37.1167 80.3752 37.6333 81.9927 38C83.6102 38.3667 85.086 38.5833 86.42 38.65V38.65Z" fill="white"/>
</svg>
