<svg width="44" height="44" viewBox="0 0 44 44" fill="none" xmlns="http://www.w3.org/2000/svg">
<path d="M16.3 31.5C15.8 31.5 15.375 31.325 15.025 30.975C14.675 30.625 14.5 30.2 14.5 29.7V18.3C14.5 17.8 14.675 17.375 15.025 17.025C15.375 16.675 15.8 16.5 16.3 16.5H18.25V16.25C18.25 15.2167 18.6167 14.3333 19.35 13.6C20.0833 12.8667 20.9667 12.5 22 12.5C23.0333 12.5 23.9167 12.8667 24.65 13.6C25.3833 14.3333 25.75 15.2167 25.75 16.25V16.5H27.7C28.2 16.5 28.625 16.675 28.975 17.025C29.325 17.375 29.5 17.8 29.5 18.3V29.7C29.5 30.2 29.325 30.625 28.975 30.975C28.625 31.325 28.2 31.5 27.7 31.5H16.3ZM19.75 16.25V16.5H24.25V16.25C24.25 15.6167 24.0333 15.0833 23.6 14.65C23.1667 14.2167 22.6333 14 22 14C21.3667 14 20.8333 14.2167 20.4 14.65C19.9667 15.0833 19.75 15.6167 19.75 16.25ZM16.3 30H27.7C27.7667 30 27.8333 29.9667 27.9 29.9C27.9667 29.8333 28 29.7667 28 29.7V18.3C28 18.2333 27.9667 18.1667 27.9 18.1C27.8333 18.0333 27.7667 18 27.7 18H25.75V20.25C25.75 20.4667 25.6793 20.6457 25.538 20.787C25.396 20.929 25.2167 21 25 21C24.7833 21 24.6043 20.929 24.463 20.787C24.321 20.6457 24.25 20.4667 24.25 20.25V18H19.75V20.25C19.75 20.4667 19.6793 20.6457 19.538 20.787C19.396 20.929 19.2167 21 19 21C18.7833 21 18.6043 20.929 18.463 20.787C18.321 20.6457 18.25 20.4667 18.25 20.25V18H16.3C16.2333 18 16.1667 18.0333 16.1 18.1C16.0333 18.1667 16 18.2333 16 18.3V29.7C16 29.7667 16.0333 29.8333 16.1 29.9C16.1667 29.9667 16.2333 30 16.3 30ZM16 30C16 30 16 29.971 16 29.913C16 29.8543 16 29.7833 16 29.7V18.3C16 18.2167 16 18.1457 16 18.087C16 18.029 16 18 16 18C16 18 16 18.029 16 18.087C16 18.1457 16 18.2167 16 18.3V29.7C16 29.7833 16 29.8543 16 29.913C16 29.971 16 30 16 30Z" fill="black"/>
</svg>
