<svg width="44" height="44" viewBox="0 0 44 44" fill="none" xmlns="http://www.w3.org/2000/svg">
<path d="M22.5 22C21.5333 22 20.7083 21.654 20.025 20.962C19.3417 20.2707 19 19.45 19 18.5C19 17.5333 19.3417 16.7083 20.025 16.025C20.7083 15.3417 21.5333 15 22.5 15C23.4667 15 24.2917 15.3417 24.975 16.025C25.6583 16.7083 26 17.5333 26 18.5C26 19.45 25.6583 20.2707 24.975 20.962C24.2917 21.654 23.4667 22 22.5 22ZM15 29.6V27.375C15 26.8917 15.1333 26.4417 15.4 26.025C15.6667 25.6083 16.025 25.2833 16.475 25.05C17.4583 24.5667 18.4543 24.204 19.463 23.962C20.471 23.7207 21.4833 23.6 22.5 23.6C23.5167 23.6 24.5293 23.7207 25.538 23.962C26.546 24.204 27.5417 24.5667 28.525 25.05C28.975 25.2833 29.3333 25.6083 29.6 26.025C29.8667 26.4417 30 26.8917 30 27.375V29.6H15ZM16.5 28.1H28.5V27.375C28.5 27.175 28.4417 26.9917 28.325 26.825C28.2083 26.6583 28.05 26.5167 27.85 26.4C26.9833 25.9833 26.1043 25.6623 25.213 25.437C24.321 25.2123 23.4167 25.1 22.5 25.1C21.5833 25.1 20.679 25.2123 19.787 25.437C18.8957 25.6623 18.0167 25.9833 17.15 26.4C16.95 26.5167 16.7917 26.6583 16.675 26.825C16.5583 26.9917 16.5 27.175 16.5 27.375V28.1ZM22.5 20.5C23.05 20.5 23.521 20.304 23.913 19.912C24.3043 19.5207 24.5 19.05 24.5 18.5C24.5 17.95 24.3043 17.479 23.913 17.087C23.521 16.6957 23.05 16.5 22.5 16.5C21.95 16.5 21.4793 16.6957 21.088 17.087C20.696 17.479 20.5 17.95 20.5 18.5C20.5 19.05 20.696 19.5207 21.088 19.912C21.4793 20.304 21.95 20.5 22.5 20.5Z" fill="black"/>
</svg>
