<svg width="1921" height="596" viewBox="0 0 1921 596" fill="none" xmlns="http://www.w3.org/2000/svg">
<rect width="1921" height="596" fill="#F8F5ED"/>
<mask id="mask0_210_1506" style="mask-type:alpha" maskUnits="userSpaceOnUse" x="0" y="0" width="1921" height="596">
<rect width="1921" height="596" fill="#FFFDF8"/>
</mask>
<g mask="url(#mask0_210_1506)">
<path opacity="0.1" fill-rule="evenodd" clip-rule="evenodd" d="M160 7.73219C160 34.5279 181.722 56.25 208.518 56.25L250.008 56.25L221.215 85.0431C202.267 103.99 202.267 134.71 221.215 153.658C240.162 172.605 270.882 172.605 289.829 153.658L320.481 123.006L320.481 164.482C320.481 191.278 342.203 213 368.999 213C395.795 213 417.517 191.278 417.517 164.482L417.517 128.283L445.533 156.299C464.48 175.246 495.2 175.246 514.147 156.299C533.095 137.351 533.095 106.631 514.147 87.684L482.713 56.25L529.482 56.25C556.278 56.25 578 34.5278 578 7.73218C578 -19.0635 556.278 -40.7857 529.482 -40.7857L484.273 -40.7857L516.785 -73.2983C535.733 -92.2457 535.733 -122.966 516.785 -141.913C497.838 -160.86 467.118 -160.86 448.171 -141.913L417.517 -111.259L417.517 -156.482C417.517 -183.278 395.795 -205 368.999 -205C342.203 -205 320.481 -183.278 320.481 -156.482L320.481 -105.982L287.191 -139.272C268.244 -158.219 237.524 -158.219 218.576 -139.272C199.629 -120.325 199.629 -89.6048 218.577 -70.6574L248.448 -40.7857L208.518 -40.7857C181.722 -40.7857 160 -19.0635 160 7.73219Z" fill="#01A55B"/>
</g>
</svg>
