<svg width="766" height="766" viewBox="0 0 766 766" fill="none" xmlns="http://www.w3.org/2000/svg">
<path d="M286.544 166.594L289.104 169.155V165.533V89.6492C289.104 41.4687 328.162 2.41064 376.343 2.41064C424.523 2.41064 463.582 41.4687 463.582 89.6492V162.681V166.303L466.142 163.742L520.777 109.107C554.846 75.0383 610.082 75.0382 644.151 109.107C678.22 143.176 678.22 198.412 644.151 232.481L583.264 293.368L580.703 295.929H584.324H676.689C724.869 295.929 763.927 334.987 763.927 383.168C763.927 431.348 724.869 470.406 676.689 470.406H593.977H590.356L592.916 472.967L648.981 529.032C683.05 563.101 683.05 618.337 648.981 652.406C614.913 686.475 559.676 686.475 525.607 652.406L466.142 592.941L463.582 590.38V594.001V676.689C463.582 724.869 424.523 763.927 376.343 763.927C328.162 763.927 289.104 724.869 289.104 676.689V591.149V587.528L286.544 590.088L229.051 647.581C194.983 681.649 139.746 681.649 105.677 647.581C71.6087 613.512 71.6087 558.276 105.677 524.207L156.917 472.967L159.478 470.406H155.857H89.6492C41.4687 470.406 2.41064 431.348 2.41064 383.167C2.41065 334.987 41.4687 295.929 89.6492 295.929H165.509H169.131L166.57 293.368L110.508 237.306C76.439 203.237 76.439 148.001 110.508 113.932C144.577 79.8633 199.813 79.8633 233.882 113.932L286.544 166.594Z" stroke="#01A55B" stroke-width="3"/>
</svg>
