<svg width="462" height="463" viewBox="0 0 462 463" fill="none" xmlns="http://www.w3.org/2000/svg">
<path fill-rule="evenodd" clip-rule="evenodd" d="M-9.93848e-06 235.634C-8.64111e-06 265.314 24.0088 289.375 53.625 289.375L99.4821 289.375L67.6582 321.268C46.7164 342.255 46.7164 376.282 67.6583 397.269C88.6001 418.256 122.554 418.256 143.495 397.269L177.374 363.317L177.374 409.259C177.374 438.939 201.383 463 230.999 463C260.615 463 284.624 438.939 284.624 409.259L284.624 369.163L315.589 400.194C336.53 421.182 370.484 421.182 391.426 400.194C412.368 379.207 412.368 345.18 391.426 324.193L356.683 289.375L408.375 289.375C437.991 289.375 462 265.314 462 235.634C462 205.954 437.991 181.893 408.375 181.893L358.407 181.893L394.342 145.88C415.283 124.893 415.283 90.8659 394.342 69.8787C373.4 48.8915 339.446 48.8915 318.504 69.8787L284.624 103.832L284.624 53.7411C284.624 24.0607 260.615 1.32371e-05 230.999 1.45317e-05C201.383 1.58262e-05 177.374 24.0607 177.374 53.7411L177.374 109.678L140.58 72.804C119.638 51.8168 85.6843 51.8168 64.7424 72.804C43.8006 93.7912 43.8006 127.818 64.7425 148.805L97.7585 181.893L53.625 181.893C24.0087 181.893 -1.12359e-05 205.954 -9.93848e-06 235.634Z" fill="#01A55B"/>
</svg>
