<svg width="44" height="44" viewBox="0 0 44 44" fill="none" xmlns="http://www.w3.org/2000/svg">
<path d="M29.5504 30.575L23.2504 24.3C22.7504 24.7167 22.1754 25.0417 21.5254 25.275C20.8754 25.5083 20.2087 25.625 19.5254 25.625C17.8087 25.625 16.3587 25.0333 15.1754 23.85C13.9921 22.6667 13.4004 21.2167 13.4004 19.5C13.4004 17.8 13.9921 16.354 15.1754 15.162C16.3587 13.9707 17.8087 13.375 19.5254 13.375C21.2254 13.375 22.6671 13.9667 23.8504 15.15C25.0337 16.3333 25.6254 17.7833 25.6254 19.5C25.6254 20.2167 25.5087 20.9 25.2754 21.55C25.0421 22.2 24.7254 22.7667 24.3254 23.25L30.6004 29.525L29.5504 30.575ZM19.5254 24.125C20.8087 24.125 21.8964 23.675 22.7884 22.775C23.6797 21.875 24.1254 20.7833 24.1254 19.5C24.1254 18.2167 23.6797 17.125 22.7884 16.225C21.8964 15.325 20.8087 14.875 19.5254 14.875C18.2254 14.875 17.1297 15.325 16.2384 16.225C15.3464 17.125 14.9004 18.2167 14.9004 19.5C14.9004 20.7833 15.3464 21.875 16.2384 22.775C17.1297 23.675 18.2254 24.125 19.5254 24.125Z" fill="black"/>
</svg>
