<svg width="50" height="49" viewBox="0 0 50 49" fill="none" xmlns="http://www.w3.org/2000/svg">
<path d="M20.0659 8.78777C19.2814 8.01024 18.0151 8.01594 17.2375 8.80049C16.46 9.58504 16.4657 10.8514 17.2502 11.6289L20.0659 8.78777ZM33.0789 24.5L34.4867 25.9206C34.8657 25.545 35.0789 25.0335 35.0789 24.5C35.0789 23.9664 34.8657 23.455 34.4867 23.0794L33.0789 24.5ZM17.2502 37.3711C16.4657 38.1486 16.46 39.4149 17.2375 40.1995C18.0151 40.9841 19.2814 40.9897 20.0659 40.2122L17.2502 37.3711ZM17.2502 11.6289L31.671 25.9206L34.4867 23.0794L20.0659 8.78777L17.2502 11.6289ZM31.671 23.0794L17.2502 37.3711L20.0659 40.2122L34.4867 25.9206L31.671 23.0794Z" fill="#606060"/>
</svg>
