<svg width="50" height="49" viewBox="0 0 50 49" fill="none" xmlns="http://www.w3.org/2000/svg">
<path d="M29.4938 40.2122C30.2783 40.9897 31.5446 40.9841 32.3222 40.1995C33.0997 39.4149 33.094 38.1486 32.3095 37.3711L29.4938 40.2122ZM16.4808 24.5L15.073 23.0794C14.694 23.455 14.4808 23.9664 14.4808 24.5C14.4808 25.0335 14.694 25.545 15.073 25.9206L16.4808 24.5ZM32.3095 11.6289C33.094 10.8514 33.0997 9.58504 32.3222 8.80049C31.5446 8.01594 30.2783 8.01024 29.4938 8.78777L32.3095 11.6289ZM32.3095 37.3711L17.8887 23.0794L15.073 25.9206L29.4938 40.2122L32.3095 37.3711ZM17.8887 25.9206L32.3095 11.6289L29.4938 8.78777L15.073 23.0794L17.8887 25.9206Z" fill="#606060"/>
</svg>
