<svg width="46" height="46" viewBox="0 0 46 46" fill="none" xmlns="http://www.w3.org/2000/svg">
<path d="M23.0006 35.3847C16.1732 35.3847 10.616 29.8293 10.616 23.0001C10.616 16.1709 16.1732 10.6155 23.0006 10.6155C29.8281 10.6155 35.3853 16.1709 35.3853 23.0001C35.3853 29.8293 29.8281 35.3847 23.0006 35.3847ZM23.0006 14.1539C18.1229 14.1539 14.1545 18.1223 14.1545 23.0001C14.1545 27.8779 18.1229 31.8462 23.0006 31.8462C27.8784 31.8462 31.8468 27.8779 31.8468 23.0001C31.8468 18.1223 27.8784 14.1539 23.0006 14.1539Z" fill="#FCD0C7"/>
<path d="M36.2699 12.3846C37.7355 12.3846 38.9237 11.1964 38.9237 9.73075C38.9237 8.26507 37.7355 7.0769 36.2699 7.0769C34.8042 7.0769 33.616 8.26507 33.616 9.73075C33.616 11.1964 34.8042 12.3846 36.2699 12.3846Z" fill="#FCD0C7"/>
<path d="M33.616 46H12.3853C5.55779 46 0.000640869 40.4446 0.000640869 33.6154V12.3846C0.000640869 5.55538 5.55779 0 12.3853 0H33.616C40.4435 0 46.0006 5.55538 46.0006 12.3846V33.6154C46.0006 40.4446 40.4435 46 33.616 46ZM12.3853 3.53846C7.50749 3.53846 3.5391 7.50685 3.5391 12.3846V33.6154C3.5391 38.4932 7.50749 42.4615 12.3853 42.4615H33.616C38.4938 42.4615 42.4622 38.4932 42.4622 33.6154V12.3846C42.4622 7.50685 38.4938 3.53846 33.616 3.53846H12.3853Z" fill="#FCD0C7"/>
</svg>
