<svg width="48" height="48" viewBox="0 0 48 48" fill="none" xmlns="http://www.w3.org/2000/svg">
<g clip-path="url(#clip0_133_906)">
<path d="M24 16.6201C26.4047 16.6201 26.6893 16.6308 27.6349 16.673C28.5141 16.7118 28.9882 16.8592 29.3049 16.9824C29.7234 17.1444 30.0255 17.3413 30.3383 17.654C30.6549 17.9707 30.8479 18.2694 31.0133 18.6879C31.1364 19.0046 31.2838 19.4821 31.3226 20.358C31.3648 21.3075 31.3755 21.5921 31.3755 23.9934C31.3755 26.3947 31.3648 26.6827 31.3226 27.6288C31.2838 28.508 31.1364 28.9822 31.0133 29.2989C30.8513 29.7174 30.6549 30.0195 30.3416 30.3322C30.0249 30.6489 29.7262 30.8418 29.3083 31.0072C28.9916 31.1304 28.5135 31.2778 27.6383 31.3166C26.6888 31.3588 26.4041 31.3695 24.0028 31.3695C21.6015 31.3695 21.3135 31.3588 20.3674 31.3166C19.4882 31.2778 19.014 31.1304 18.6973 31.0072C18.2788 30.8452 17.9768 30.6489 17.6634 30.3356C17.3468 30.0189 17.1538 29.7202 16.9884 29.3023C16.8652 28.9856 16.7179 28.5075 16.6791 27.6322C16.6369 26.6827 16.6262 26.3981 16.6262 23.9968C16.6262 21.5955 16.6369 21.3075 16.6791 20.3613C16.7179 19.4821 16.8652 19.008 16.9884 18.6913C17.1504 18.2728 17.3473 17.9707 17.6601 17.6574C17.9768 17.3407 18.2754 17.1478 18.6939 16.9824C19.0106 16.8592 19.4882 16.7118 20.364 16.673C21.3096 16.6308 21.5947 16.6201 23.9994 16.6201H24ZM24 14.9996C21.5565 14.9996 21.2511 15.0103 20.2909 15.0525C19.3346 15.0946 18.6771 15.2493 18.1078 15.471C17.5138 15.7027 17.0109 16.0087 16.512 16.5116C16.0091 17.0111 15.7031 17.5134 15.4714 18.104C15.2498 18.6772 15.0951 19.3308 15.0529 20.2871C15.0107 21.2506 15 21.5561 15 23.9996C15 26.4431 15.0107 26.7485 15.0529 27.7087C15.0951 28.665 15.2498 29.3225 15.4714 29.8918C15.7037 30.4858 16.0091 30.9887 16.512 31.4876C17.0109 31.9865 17.5138 32.2965 18.1044 32.5248C18.6776 32.7465 19.3312 32.9011 20.2875 32.9433C21.2471 32.9855 21.5531 32.9962 23.9966 32.9962C26.4401 32.9962 26.7461 32.9855 27.7057 32.9433C28.662 32.9011 29.3196 32.7465 29.8888 32.5248C30.4794 32.2965 30.9823 31.9871 31.4812 31.4876C31.9802 30.9881 32.2901 30.4858 32.5185 29.8952C32.7401 29.322 32.8948 28.6683 32.937 27.7121C32.9792 26.7525 32.9899 26.4465 32.9899 24.003C32.9899 21.5595 32.9792 21.254 32.937 20.2938C32.8948 19.3376 32.7401 18.68 32.5185 18.1108C32.2969 17.5128 31.9909 17.0105 31.4886 16.511C30.9896 16.0121 30.4868 15.7021 29.8961 15.4738C29.3229 15.2521 28.6693 15.0975 27.7131 15.0553C26.7501 15.0097 26.4441 14.999 24.0006 14.999L24 14.9996Z" fill="#056DAA"/>
<path d="M24 19.377C21.448 19.377 19.3768 21.4475 19.3768 24.0001C19.3768 26.5528 21.4474 28.6233 24 28.6233C26.5526 28.6233 28.6232 26.5528 28.6232 24.0001C28.6232 21.4481 26.5526 19.377 24 19.377ZM24 26.9988C22.344 26.9988 21.0013 25.6561 21.0013 24.0001C21.0013 22.3441 22.344 21.0015 24 21.0015C25.656 21.0015 26.9987 22.3441 26.9987 24.0001C26.9987 25.6561 25.656 26.9988 24 26.9988Z" fill="#056DAA"/>
<path d="M29.8849 19.1937C29.8849 19.7899 29.4017 20.2731 28.8054 20.2731C28.2092 20.2731 27.726 19.7899 27.726 19.1937C27.726 18.5974 28.2092 18.1143 28.8054 18.1143C29.4017 18.1143 29.8849 18.5974 29.8849 19.1937Z" fill="#056DAA"/>
</g>
<defs>
<clipPath id="clip0_133_906">
<rect width="18" height="18" fill="white" transform="translate(15 15)"/>
</clipPath>
</defs>
</svg>
