<svg width="48" height="48" viewBox="0 0 48 48" fill="none" xmlns="http://www.w3.org/2000/svg">
<g clip-path="url(#clip0_133_912)">
<path d="M33.8006 19.9998C33.8006 19.9998 33.605 18.6211 33.0037 18.0155C32.2418 17.2186 31.3906 17.2148 31 17.168C28.2031 16.9648 24.0037 16.9648 24.0037 16.9648H23.9962C23.9962 16.9648 19.7968 16.9648 17 17.168C16.6093 17.2148 15.7581 17.2186 14.9962 18.0155C14.3943 18.6211 14.2031 19.9998 14.2031 19.9998C14.2031 19.9998 14.0037 21.6173 14.0037 23.238V24.7536C14.0037 26.3705 14.2031 27.9917 14.2031 27.9917C14.2031 27.9917 14.3987 29.3705 14.9962 29.9761C15.7581 30.773 16.7581 30.7455 17.2031 30.8317C18.805 30.9842 24.0037 31.0311 24.0037 31.0311C24.0037 31.0311 28.2068 31.0236 31.0037 30.8242C31.3943 30.7773 32.2462 30.7736 33.0075 29.9767C33.6087 29.3711 33.8043 27.9923 33.8043 27.9923C33.8043 27.9923 34.0037 26.3755 34.0037 24.7542V23.2386C34 21.6211 33.8006 20.0005 33.8006 20.0005V19.9998ZM21.9337 26.5936V20.9723L27.3362 23.793L21.9337 26.5936Z" fill="#056DAA"/>
</g>
<defs>
<clipPath id="clip0_133_912">
<rect width="20" height="20" fill="white" transform="translate(14 14)"/>
</clipPath>
</defs>
</svg>
