<svg width="48" height="48" viewBox="0 0 48 48" fill="none" xmlns="http://www.w3.org/2000/svg">
<g clip-path="url(#clip0_133_902)">
<path d="M34.025 18.1752C33.2859 18.5033 32.4937 18.7236 31.6609 18.8236C32.5109 18.3143 33.1641 17.508 33.4703 16.5486C32.6766 17.0189 31.7938 17.3611 30.8578 17.5455C30.1078 16.7455 29.0391 16.2471 27.8562 16.2471C25.5844 16.2471 23.7422 18.0877 23.7422 20.3596C23.7422 20.6814 23.7797 20.9955 23.85 21.2971C20.4313 21.1252 17.4016 19.4877 15.3719 16.9986C15.0172 17.608 14.8156 18.3143 14.8156 19.0674C14.8156 20.4939 15.5406 21.7533 16.6453 22.4924C15.9703 22.4705 15.3359 22.2846 14.7812 21.9768C14.7812 21.9939 14.7812 22.0111 14.7812 22.0283C14.7812 24.0221 16.2 25.683 18.0797 26.0627C17.7359 26.1564 17.3719 26.2064 16.9969 26.2064C16.7313 26.2064 16.4734 26.1814 16.2219 26.1314C16.7469 27.7643 18.2656 28.9564 20.0641 28.9893C18.6578 30.0924 16.8844 30.7486 14.9563 30.7486C14.6234 30.7486 14.2969 30.7299 13.9766 30.6908C15.7953 31.8596 17.9578 32.5393 20.2812 32.5393C27.8469 32.5393 31.9844 26.2721 31.9844 20.8377C31.9844 20.6596 31.9797 20.4799 31.9734 20.3049C32.7766 19.7252 33.4734 19.0002 34.025 18.1752Z" fill="#056DAA"/>
</g>
<defs>
<clipPath id="clip0_133_902">
<rect width="20" height="20" fill="white" transform="translate(14 14)"/>
</clipPath>
</defs>
</svg>
