<svg width="48" height="48" viewBox="0 0 48 48" fill="none" xmlns="http://www.w3.org/2000/svg">
<path d="M31.026 20.9544C30.688 20.8529 30.3395 20.8189 29.9975 20.8464C29.6745 20.1489 29.067 19.5914 28.2885 19.3569C28.155 19.3169 28.0195 19.2874 27.883 19.2679L28.284 17.5339C28.684 15.8024 27.601 14.0679 25.8695 13.6669C24.139 13.2674 22.4035 14.3494 22.003 16.0809L21.9335 16.3814L21.864 16.0814C21.4635 14.3499 19.7275 13.2669 17.9975 13.6674C16.2655 14.0679 15.1825 15.8029 15.583 17.5344L16.7025 22.3724C16.1755 22.7794 16.021 23.3034 16.021 24.0144V26.4379C16.021 30.5769 19.2095 33.8974 23.3485 33.8974C26.647 33.8974 29.5995 31.7899 30.591 28.7029C31.3615 28.3949 31.965 27.7504 32.215 26.9184L32.8825 24.4084C33.3225 22.9444 32.49 21.3949 31.026 20.9544ZM30.2085 26.0384C30.121 26.3134 29.9315 26.5379 29.676 26.6704C29.4195 26.8034 29.127 26.8284 28.8525 26.7404C28.285 26.5599 27.9705 25.9509 28.1545 25.3729L28.737 23.3819L28.7755 23.2609C28.926 22.8114 29.3455 22.5229 29.798 22.5229C29.9065 22.5229 30.0165 22.5394 30.1245 22.5739C30.4235 22.6689 30.7035 22.8589 30.855 23.1124C30.93 23.3649 30.9605 23.6284 30.914 23.7829L30.715 24.4489L30.2085 26.0384ZM27.8115 22.9829L27.7825 23.0829L26.9665 25.6469C26.786 26.2144 26.176 26.5284 25.61 26.3479C25.384 26.2759 25.1975 26.1289 25.064 25.9414C25.624 25.5489 25.993 24.9014 25.993 24.1669C25.993 23.6919 25.835 23.2559 25.575 22.8984L25.9195 21.8174C26.007 21.5424 26.1965 21.3179 26.452 21.1859C26.7095 21.0529 27.002 21.0289 27.2755 21.1164C27.5505 21.2039 27.775 21.3929 27.9075 21.6489C28.04 21.9054 28.064 22.1979 27.977 22.4724L27.8215 22.9604C27.8185 22.9684 27.814 22.9749 27.8115 22.9829ZM18.481 15.7569C18.5625 15.7379 18.6445 15.7289 18.7265 15.7289C18.926 15.7289 19.122 15.7844 19.2955 15.8929C19.54 16.0454 19.71 16.2839 19.775 16.5649L20.978 20.4769C21.1375 20.9424 21.435 21.3074 21.934 21.3074C22.433 21.3074 22.769 20.9654 22.906 20.4769L24.093 16.5649C24.1575 16.2844 24.328 16.0454 24.5725 15.8929C24.817 15.7399 25.1055 15.6919 25.387 15.7569C25.9665 15.8914 26.329 16.4719 26.195 17.0514L25.0475 21.3244C25.0205 21.3874 24.9875 21.4474 24.9665 21.5134L24.7445 22.2109C24.4645 22.0789 24.155 21.9989 23.8255 21.9989H18.9725C18.9205 21.9989 18.8725 22.0099 18.822 22.0134L17.674 17.0514C17.539 16.4719 17.9015 15.8909 18.481 15.7569ZM23.348 31.7524C20.3915 31.7524 18.0855 29.5059 18.0855 26.5499V25.6614C18.0855 25.6579 18.0875 25.6549 18.0875 25.6514V23.9389C18.0875 23.3944 18.459 22.9994 18.9715 22.9994H23.8245C24.4685 22.9994 24.9925 23.5234 24.9925 24.1674C24.9925 24.8114 24.4685 25.3354 23.8245 25.3354H21.1605C20.8845 25.3354 20.6605 25.5589 20.6605 25.8349C20.6605 26.1114 20.8835 26.3349 21.16 26.3354C21.5375 26.3359 21.934 26.5209 22.2475 26.8434C22.685 27.2929 22.9155 27.9464 22.8965 28.6824C22.8895 28.9589 23.1075 29.1884 23.3835 29.1954C23.3885 29.1954 23.393 29.1954 23.397 29.1954C23.667 29.1954 23.889 28.9799 23.8965 28.7084C23.92 27.7954 23.651 26.9629 23.134 26.3354H23.825C23.9225 26.3354 24.016 26.3189 24.1105 26.3064C24.364 26.7754 24.7875 27.1359 25.3065 27.3009C25.5155 27.3674 25.7275 27.3989 25.936 27.3989C26.492 27.3989 27.023 27.1729 27.4105 26.7854C27.662 27.2004 28.051 27.5349 28.5485 27.6934C28.579 27.7029 28.6095 27.7069 28.64 27.7149C28.0305 30.0954 25.818 31.7524 23.348 31.7524Z" fill="#056DAA"/>
</svg>
