<svg width="48" height="48" viewBox="0 0 48 48" fill="none" xmlns="http://www.w3.org/2000/svg">
<path d="M24.0004 33.5003C22.6836 33.5003 21.446 33.2503 20.2876 32.7503C19.1292 32.2503 18.1252 31.5751 17.2756 30.7247C16.4252 29.8751 15.75 28.8711 15.25 27.7127C14.75 26.5543 14.5 25.3167 14.5 23.9999C14.5 22.6831 14.75 21.4455 15.25 20.2871C15.75 19.1287 16.4252 18.1247 17.2756 17.2751C18.1252 16.4247 19.1292 15.7495 20.2876 15.2495C21.446 14.7495 22.6836 14.4995 24.0004 14.4995C25.3172 14.4995 26.5548 14.7495 27.7132 15.2495C28.8716 15.7495 29.8756 16.4247 30.7252 17.2751C31.5756 18.1247 32.2508 19.1287 32.7508 20.2871C33.2508 21.4455 33.5008 22.6831 33.5008 23.9999C33.5008 25.3167 33.2508 26.5543 32.7508 27.7127C32.2508 28.8711 31.5756 29.8751 30.7252 30.7247C29.8756 31.5751 28.8716 32.2503 27.7132 32.7503C26.5548 33.2503 25.3172 33.5003 24.0004 33.5003ZM20.4256 28.6751L24.0004 25.1003L27.5752 28.6751L28.7008 27.5495L25.126 23.9999L28.7008 20.4251L27.5752 19.2995L24.0004 22.8743L20.4256 19.2995L19.3252 20.3999L22.9 23.9999L19.3252 27.5747L20.4256 28.6751Z" fill="#C7C7C7"/>
</svg>
