<svg width="24" height="24" viewBox="0 0 24 24" fill="none" xmlns="http://www.w3.org/2000/svg">
<path d="M7.2 20.4999V8.49988L13.025 2.72488C13.225 2.52488 13.4543 2.40821 13.713 2.37488C13.971 2.34155 14.225 2.38321 14.475 2.49988C14.7083 2.63321 14.8833 2.81655 15 3.04988C15.1167 3.28321 15.1417 3.53321 15.075 3.79988L14 8.49988H20.7C21.1667 8.49988 21.5833 8.68321 21.95 9.04988C22.3167 9.41655 22.5 9.83321 22.5 10.2999V11.9249C22.5 12.0249 22.4873 12.1372 22.462 12.2619C22.4373 12.3872 22.4083 12.4999 22.375 12.5999L19.5 19.3499C19.3667 19.6832 19.1293 19.9582 18.788 20.1749C18.446 20.3915 18.0917 20.4999 17.725 20.4999H7.2ZM8.7 9.14988V18.9999H17.725C17.7917 18.9999 17.8627 18.9792 17.938 18.9379C18.0127 18.8959 18.075 18.8332 18.125 18.7499L21 11.9999V10.2999C21 10.2165 20.971 10.1455 20.913 10.0869C20.8543 10.0289 20.7833 9.99988 20.7 9.99988H12.1L13.35 4.52488L8.7 9.14988ZM4.3 20.4999C3.8 20.4999 3.375 20.3249 3.025 19.9749C2.675 19.6249 2.5 19.1999 2.5 18.6999V10.2999C2.5 9.79988 2.675 9.37488 3.025 9.02488C3.375 8.67488 3.8 8.49988 4.3 8.49988H7.2V9.99988H4.3C4.21667 9.99988 4.146 10.0289 4.088 10.0869C4.02933 10.1455 4 10.2165 4 10.2999V18.6999C4 18.7832 4.02933 18.8542 4.088 18.9129C4.146 18.9709 4.21667 18.9999 4.3 18.9999H7.2V20.4999H4.3ZM8.7 18.9999V9.14988V9.99988C8.7 9.99988 8.7 10.0289 8.7 10.0869C8.7 10.1455 8.7 10.2165 8.7 10.2999V11.9999V18.7499C8.7 18.8332 8.7 18.8959 8.7 18.9379C8.7 18.9792 8.7 18.9999 8.7 18.9999Z" fill="#D9D9D9"/>
</svg>
