<svg width="24" height="24" viewBox="0 0 24 24" fill="none" xmlns="http://www.w3.org/2000/svg">
<path d="M7.87514 20.4498C7.55834 20.6998 7.23334 20.704 6.90014 20.4624C6.56694 20.2208 6.45854 19.9084 6.57494 19.5252L8.14994 14.4L4.09994 11.5002C3.76674 11.2666 3.66254 10.9582 3.78734 10.575C3.91254 10.1918 4.18354 10.0002 4.60034 10.0002H9.60014L11.2003 4.67525C11.2667 4.47525 11.3749 4.32105 11.5249 4.21265C11.6749 4.10425 11.8333 4.05005 12.0001 4.05005C12.1669 4.05005 12.3253 4.10425 12.4753 4.21265C12.6253 4.32105 12.7335 4.47525 12.7999 4.67525L14.4001 10.0002H19.3999C19.8167 10.0002 20.0877 10.1918 20.2129 10.575C20.3377 10.9582 20.2335 11.2666 19.9003 11.5002L15.8503 14.4L17.4253 19.5252C17.5417 19.9084 17.4333 20.2208 17.1001 20.4624C16.7669 20.704 16.4419 20.6998 16.1251 20.4498L12.0001 17.2998L7.87514 20.4498Z" fill="black"/>
</svg>
