<svg width="102" height="80" viewBox="0 0 102 80" fill="none" xmlns="http://www.w3.org/2000/svg">
<path d="M57.805 50.0918C57.955 47.8295 57.0593 45.9838 55.5427 44.3798C55.1886 44.0007 54.8011 44.1382 54.3928 44.2048C50.7973 44.7964 47.2267 44.9048 43.7312 43.6174C42.4351 43.1558 41.2202 42.4921 40.1315 41.6509C39.9954 41.5603 39.8854 41.4358 39.8123 41.2896C39.7393 41.1435 39.7057 40.9807 39.7149 40.8176C39.7149 38.9969 39.7607 37.1762 39.7149 35.3597C39.7149 34.6931 40.0398 34.6098 40.5481 34.4973C44.9608 33.5055 49.1824 31.8013 53.0471 29.4519C54.0482 28.8748 54.9733 28.175 55.801 27.3687C56.0677 27.1466 56.238 26.8299 56.276 26.4849C56.3141 26.14 56.217 25.7937 56.0052 25.5189C54.4303 22.9357 52.0555 21.6775 49.1183 21.4317C47.6637 21.2473 46.1861 21.4218 44.8144 21.94C42.9938 22.7066 41.7314 23.9481 41.4814 25.998C41.4272 26.4521 41.2064 26.4438 40.8814 26.4146L34.0903 26.0563C32.6863 25.9772 31.2822 25.898 29.8823 25.8063C28.6783 25.7313 28.0533 24.9731 28.1866 23.7648C28.8866 17.4237 31.9363 12.4574 37.1067 8.79939C37.8127 8.23002 38.5953 7.76297 39.4316 7.41201C39.7649 7.77865 40.1107 7.47451 40.4231 7.41201C43.7304 6.49542 47.2113 6.39959 50.564 7.13286C58.1009 8.83272 62.513 13.8823 62.8505 21.2984C63.0754 26.2605 60.9465 30.2018 57.3426 33.439C54.3928 36.0888 50.9556 37.9303 47.2601 39.3136C46.3768 39.6469 46.356 39.7635 47.0684 40.3551C48.0758 41.1755 49.2355 41.7885 50.4806 42.1591C54.3637 43.3674 58.1009 42.7758 61.7631 41.2342C62.0623 41.0319 62.4143 40.9218 62.7755 40.9176C62.0589 41.855 62.0714 41.8467 62.8463 42.9174C66.3043 47.7004 67.3834 52.9166 65.1378 58.4578C62.4713 65.0698 54.9011 68.9694 47.8809 67.5654C43.2229 66.5988 40.4398 63.9199 39.8065 59.6369C39.5815 58.1162 39.6274 56.5913 40.5523 55.2581C41.0856 54.4915 41.3356 54.5331 41.8022 55.3206C42.0524 55.7811 42.3543 56.2116 42.7021 56.6038C45.2977 59.3786 48.535 60.0702 52.0847 59.1619C55.4427 58.2995 57.0843 55.7664 57.7884 52.525C57.9425 51.7292 58.1258 50.9084 57.805 50.0918Z" fill="#08848F"/>
<path d="M57.8049 50.0917C58.1174 50.9249 57.934 51.729 57.7632 52.5248C57.0675 55.7662 55.4176 58.2993 52.0595 59.1617C48.514 60.07 45.2726 59.3784 42.677 56.6036C42.3292 56.2115 42.0273 55.781 41.777 55.3204C41.3271 54.533 41.0771 54.4871 40.5272 55.2579C39.6022 56.5911 39.5564 58.116 39.7814 59.6367C40.4147 63.9197 43.1894 66.5986 47.8557 67.5319C54.876 68.9359 62.4378 65.0321 65.1126 58.4243C67.3583 52.8664 66.2792 47.6669 62.8211 42.8839C62.0462 41.8132 62.0337 41.8215 62.7503 40.8841C62.3891 40.8883 62.0371 40.9984 61.7379 41.2007C58.0757 42.7423 54.3385 43.3339 50.4555 42.1257C49.2103 41.755 48.0507 41.1419 47.0433 40.3216C46.3308 39.73 46.3517 39.6134 47.2349 39.28C50.9305 37.8968 54.3677 36.0553 57.3174 33.4055C60.9213 30.1683 63.0503 26.227 62.8253 21.2649C62.4878 13.8488 58.0757 8.79923 50.5388 7.09937C47.1862 6.3661 43.7052 6.46192 40.398 7.37852C40.0855 7.45768 39.7397 7.76182 39.4064 7.37852C50.3888 1.63316 64.2377 6.07862 69.2664 17.1694C72.4287 24.148 71.8829 30.9182 67.0625 37.1094C66.2148 38.1415 65.2579 39.0788 64.2085 39.905C65.673 41.1753 66.9583 42.6385 68.029 44.2546C74.541 54.3871 70.8538 69.3651 56.83 73.3397C49.3014 75.4729 42.1895 74.4397 35.9192 69.5317C31.0696 65.732 28.4198 60.7116 28.1615 54.4913C28.1522 53.831 28.3175 53.1799 28.6406 52.604C28.8389 52.1826 29.1447 51.821 29.5273 51.5555C29.9098 51.29 30.3556 51.13 30.8196 51.0916C34.1193 50.6722 37.4135 50.2097 40.7021 49.7042C41.3063 49.6125 41.5021 49.7875 41.7187 50.2833C42.8103 52.7831 44.4352 54.8329 47.1099 55.7579C51.1388 57.1619 56.63 55.3454 57.8049 50.0917Z" fill="#39C1D5"/>
</svg>
