<svg width="102" height="80" viewBox="0 0 102 80" fill="none" xmlns="http://www.w3.org/2000/svg">
<path d="M78.9976 61.5795C79.0583 61.9356 79.1635 62.2754 79.2485 62.6234C79.6247 64.1164 79.9929 65.6134 80.3328 67.1145C80.7091 68.7531 81.053 70.3998 81.4131 72.0425C81.5507 72.6616 81.5547 72.6696 81.0085 72.9529C80.2438 73.3372 79.471 73.7054 78.7023 74.0777C78.6011 74.0777 78.4757 74.0574 78.3948 74.106C78.1196 74.2719 77.9902 74.1424 77.8971 73.8956C77.7474 73.5153 77.5856 73.143 77.4359 72.7667C76.8856 71.3911 76.3394 70.0155 75.7851 68.6439C75.2915 67.4301 74.7817 66.2163 74.28 64.9741C73.8066 63.8129 73.3737 62.6315 72.8558 61.4905C72.4512 60.5559 72.0466 59.601 71.642 58.6583C71.0351 57.2624 70.4767 55.8261 69.882 54.4424C69.6635 53.9204 69.5745 53.9083 69.008 54.0013C68.3485 54.1106 67.685 54.1956 67.0255 54.2765C65.8562 54.414 64.6869 54.5476 63.5216 54.7256C63.0968 54.7944 63.1858 54.9805 63.2667 55.2151C63.4286 55.6845 63.6147 56.1498 63.7806 56.6191C64.3591 58.2618 64.9377 59.9045 65.5042 61.5512C65.8926 62.6814 66.2716 63.8143 66.6411 64.9499C67.0255 66.1353 67.3856 67.3249 67.774 68.5103C68.3134 70.1773 68.8381 71.8523 69.3479 73.5355C69.445 73.8632 69.3802 74.0089 69.0404 74.021H69.0161C68.9772 73.8744 68.8864 73.747 68.7607 73.6622C68.635 73.5774 68.4828 73.541 68.3323 73.5598H68.304C68.3014 73.471 68.2722 73.3849 68.2203 73.3128C68.1684 73.2407 68.0961 73.1858 68.0127 73.1552C67.507 72.88 67.0416 72.5402 66.5602 72.2286C66.4509 72.1558 66.3417 72.0749 66.196 72.1315H66.1718C66.1718 72.0021 66.1111 71.9454 65.9816 72.002C65.9816 71.8888 65.9169 71.8847 65.8319 71.9009C65.6925 71.853 65.5673 71.7709 65.4678 71.6622C65.4678 71.4882 65.3626 71.472 65.229 71.4963C65.229 71.3628 65.1724 71.3102 65.0429 71.3749C65.0429 71.1605 64.9054 71.1726 64.7597 71.1847C64.7585 71.1723 64.7544 71.1602 64.748 71.1494C64.7415 71.1387 64.7327 71.1295 64.7223 71.1225C64.7118 71.1156 64.7 71.111 64.6876 71.1092C64.6752 71.1073 64.6625 71.1083 64.6505 71.1119L64.5898 71.0634C64.6182 70.3094 64.5857 69.5544 64.4927 68.8057C64.4724 68.4942 64.5979 68.1179 64.3106 67.8428L64.2863 67.5514C64.4239 67.4584 64.3834 67.3127 64.3713 67.1913C64.345 66.7629 64.2963 66.3362 64.2256 65.9128C64.1771 65.6579 64.3511 65.3585 64.08 65.1481L64.0436 64.788C64.2742 64.3632 64.0436 63.9464 64.0071 63.5297C64.0071 63.3436 64.1123 63.0604 63.8291 62.9349V62.8095C63.9549 62.261 63.8758 61.6854 63.6066 61.1911L63.5864 61.0576C63.8129 60.7703 63.6066 60.4871 63.554 60.216C63.5257 60.042 63.639 59.775 63.3638 59.6819V59.5565C63.4893 59.4675 63.4488 59.3542 63.4245 59.2369C63.3517 58.893 63.2829 58.5491 63.2141 58.2011C63.0253 57.1896 62.7933 56.1889 62.5182 55.199C62.4778 55.0574 62.4737 54.8632 62.239 54.8915H62.2107H62.1864C62.0469 54.8276 61.8926 54.8028 61.7401 54.8199C61.5875 54.837 61.4425 54.8953 61.3206 54.9886L61.1749 55.0088C61.1062 54.8712 60.9929 54.8915 60.8715 54.9198C59.9652 55.1423 59.0225 55.1423 58.104 55.3244C57.9428 55.3358 57.7903 55.4014 57.6711 55.5105L57.5376 55.5348C57.2705 55.3568 57.044 55.5146 56.8133 55.6278H56.781C56.6709 55.5924 56.5566 55.572 56.4411 55.5672C55.9061 55.6066 55.3739 55.6769 54.847 55.7776C54.4424 55.8706 54.0014 55.8261 53.6332 56.1012H53.6049C53.4268 56.0628 53.244 56.0519 53.0627 56.0689C52.1847 56.3197 51.2743 56.3116 50.3883 56.4735C49.049 56.7122 47.6936 56.8781 46.3423 57.1046C45.2822 57.2786 44.2302 57.4809 43.1702 57.6711C41.6529 57.9381 40.1276 58.2011 38.6063 58.4803C38.5343 58.4907 38.4653 58.5163 38.4039 58.5553C38.3426 58.5944 38.2902 58.646 38.2502 58.7069C38.0272 59.1737 37.9592 59.6997 38.056 60.2079L38.0318 60.4143C37.8335 60.5033 37.8497 60.6247 37.9711 60.7622L37.9468 60.8917C37.7296 61.3154 37.6585 61.799 37.7445 62.2674L37.7243 62.3968C37.6191 62.4696 37.6312 62.5627 37.6838 62.6598C37.5926 62.7835 37.5356 62.929 37.5185 63.0817C37.5015 63.2345 37.525 63.389 37.5867 63.5297L37.5584 63.7401C37.4006 63.8655 37.3439 63.999 37.5139 64.1447V64.2782C37.3237 64.3065 37.3601 64.4522 37.348 64.5776C37.3197 64.8892 37.2994 65.1967 37.259 65.5042C37.2185 65.8117 37.0931 66.1353 37.2873 66.4388V66.726C37.1497 66.726 37.1255 66.8474 37.1335 66.9567C37.1659 67.4584 37.0607 67.9479 37.0526 68.4456C37.0526 68.571 37 68.7126 37.1376 68.8057L37.0931 69.6473C36.9049 70.0911 36.8406 70.5778 36.907 71.0553V71.0553L36.818 71.1322C36.8175 71.1364 36.8161 71.1405 36.814 71.1443C36.8119 71.148 36.8091 71.1513 36.8057 71.1539C36.8023 71.1566 36.7984 71.1585 36.7943 71.1596C36.7901 71.1608 36.7858 71.161 36.7815 71.1605C36.6983 71.1457 36.6128 71.1501 36.5315 71.1733C36.4502 71.1964 36.3752 71.2377 36.3122 71.294C35.8065 71.6379 35.3128 71.998 34.7828 72.2974C34.2928 72.5528 33.827 72.8521 33.391 73.1916C33.1806 73.3736 32.9136 73.4991 32.8043 73.7823L32.7396 73.843C32.5185 73.8144 32.2946 73.8661 32.1084 73.9886C32.2973 73.0641 32.5474 72.1531 32.8569 71.2616C33.2615 69.8334 33.7389 68.4294 34.2042 67.0214C35.0539 64.4562 35.913 61.8938 36.7815 59.334C36.8706 59.067 36.7815 59.0184 36.5509 59.071C35.9076 59.2086 35.2562 59.2774 34.6129 59.3987C32.7598 59.7467 30.9229 60.1796 29.082 60.5802C29.0034 60.5976 28.9308 60.6356 28.8718 60.6904C28.8128 60.7451 28.7694 60.8146 28.7462 60.8917C28.5738 61.3846 28.3725 61.8669 28.1433 62.3361C27.6821 63.4447 27.2411 64.5614 26.7758 65.666C26.4197 66.5035 26.0556 67.341 25.7359 68.1867C25.4141 69.1919 24.9869 70.1602 24.4614 71.0755C24.4169 71.1402 24.3643 71.1928 24.3805 71.2859C24.3959 71.5336 24.3367 71.7802 24.2106 71.9939C23.9915 72.4523 23.8049 72.9255 23.6522 73.4101C23.5835 73.6569 23.5025 73.8996 23.3002 73.9765C23.1846 73.9981 23.0656 73.9933 22.9521 73.9625C22.8386 73.9317 22.7336 73.8756 22.6448 73.7985C22.3559 73.6095 22.0545 73.4405 21.7425 73.2927C21.3379 73.0823 20.9333 72.8881 20.5085 72.6939C20.4279 72.6671 20.3611 72.6096 20.3224 72.5339C20.2838 72.4582 20.2765 72.3703 20.3021 72.2893C20.4456 71.8432 20.5432 71.3836 20.5935 70.9177C20.6577 70.2941 20.7796 69.6779 20.9576 69.0768C21.2368 68.2959 21.3177 67.4584 21.5766 66.6492C21.7668 66.0625 21.7668 65.4151 21.9327 64.8163C22.22 63.7725 22.4263 62.7084 22.6852 61.6604C23.0413 60.2322 23.4944 58.8282 23.7413 57.3717C23.8424 56.781 24.1216 56.2428 24.2389 55.644C24.4169 54.7094 24.7609 53.8071 25.0198 52.8847C25.0848 52.7409 25.1204 52.5856 25.1245 52.4279C25.1287 52.2702 25.1013 52.1132 25.0441 51.9662L25.0805 51.8327C25.1601 51.8242 25.2348 51.79 25.2932 51.7352C25.3516 51.6804 25.3905 51.6081 25.4042 51.5292C25.5903 50.8536 25.7602 50.1698 25.9018 49.4779C25.9423 49.2877 26.0879 49.0733 25.9301 48.8751C25.9227 48.8675 25.9186 48.8573 25.9186 48.8467C25.9186 48.8361 25.9227 48.826 25.9301 48.8184C26.1163 48.8184 26.1365 48.6566 26.1689 48.5514C26.4561 47.6046 26.7272 46.6538 26.9983 45.7192C27.0052 45.7006 27.0083 45.6808 27.0074 45.661C27.0064 45.6412 27.0014 45.6218 26.9927 45.604C26.984 45.5862 26.9718 45.5704 26.9567 45.5575C26.9417 45.5446 26.9242 45.5349 26.9052 45.529L26.9417 45.4036C27.0833 45.3631 27.1197 45.2903 27.0226 45.1689L27.059 45.0597C27.2277 44.9119 27.3522 44.7202 27.4187 44.5059C27.4851 44.2917 27.4908 44.0632 27.4353 43.8459C27.4306 43.8386 27.4281 43.8302 27.4281 43.8216C27.4281 43.813 27.4306 43.8045 27.4353 43.7973C27.6052 43.7609 27.5728 43.6638 27.5121 43.5586V43.5343C27.7144 43.4858 27.6376 43.3603 27.5931 43.243V43.2228C27.7428 43.2228 27.7063 43.1378 27.6618 43.0569C27.7995 42.8326 27.8929 42.584 27.937 42.3246C28.2121 42.0939 28.1838 41.7339 28.2971 41.4425C28.4589 41.0379 28.7017 40.605 28.5884 40.1195C28.5815 40.1109 28.5777 40.1002 28.5777 40.0891C28.5777 40.0781 28.5815 40.0674 28.5884 40.0588C28.7596 39.9332 28.8878 39.7576 28.9552 39.5562C29.0225 39.3548 29.0259 39.1374 28.9647 38.934C28.9647 38.8935 28.9647 38.8571 28.997 38.8167C29.2802 38.6629 29.2519 38.4121 29.2276 38.145V38.1127C29.3531 38.0803 29.3531 38.0075 29.2843 37.9185C29.2766 37.9102 29.2723 37.8994 29.2723 37.8881C29.2723 37.8769 29.2766 37.866 29.2843 37.8578C29.4866 37.8578 29.4704 37.6717 29.5149 37.5462C29.6687 37.1052 29.8224 36.6642 29.9559 36.2191C30.0409 35.9521 30.2108 35.6932 30.1056 35.4099L30.1906 35.2198C30.5102 34.9851 30.6235 34.625 30.4414 34.4106C30.4779 34.3013 30.5183 34.1921 30.5547 34.0788C30.7166 34.0424 30.6963 33.9291 30.664 33.8118L30.6883 33.7147C30.8906 33.658 30.8622 33.5164 30.8096 33.3667H30.8703L30.8177 33.3262C30.8663 33.1927 30.9148 33.0552 30.9593 32.9216C30.9848 32.9297 31.0117 32.9319 31.0381 32.9279C31.0645 32.9239 31.0896 32.9139 31.1115 32.8986C31.1335 32.8834 31.1515 32.8633 31.1644 32.8399C31.1773 32.8165 31.1847 32.7905 31.1859 32.7638C31.1859 32.4037 31.4772 32.0922 31.3801 31.7159L31.5258 31.3518C31.6553 31.2992 31.7645 31.2385 31.6026 31.1009L31.6472 30.9715C31.6594 30.9662 31.6705 30.9585 31.6798 30.949C31.6891 30.9394 31.6963 30.9281 31.7012 30.9156C31.7061 30.9032 31.7085 30.89 31.7083 30.8766C31.708 30.8633 31.7051 30.8502 31.6998 30.8379V30.8137C31.9263 30.753 31.8656 30.5871 31.8333 30.4374L31.8656 30.3362C31.8772 30.334 31.888 30.3291 31.8972 30.3218C31.9064 30.3145 31.9137 30.305 31.9184 30.2943C31.9232 30.2836 31.9253 30.2718 31.9246 30.2601C31.9238 30.2484 31.9203 30.237 31.9142 30.227H31.9385H31.9142C31.987 30.227 31.9992 30.1744 31.9668 30.1137C31.9344 30.053 31.9668 30.0813 31.9668 30.0692L32.0315 30.0368L31.987 30.0045L32.0234 29.8669C32.0467 29.8555 32.0651 29.8363 32.0755 29.8126C32.0859 29.7888 32.0875 29.7622 32.0801 29.7374V29.7051C32.0928 29.6998 32.1044 29.692 32.114 29.6821C32.1237 29.6723 32.1312 29.6605 32.1361 29.6476C32.141 29.6347 32.1433 29.621 32.1427 29.6072C32.1421 29.5934 32.1387 29.5799 32.1327 29.5675L32.5939 28.3537C32.8529 28.2606 32.7962 28.0624 32.7598 27.8682C33.0349 27.8398 32.9297 27.6659 32.8933 27.5162C32.9009 27.482 32.9103 27.4482 32.9217 27.415C33.2858 27.2451 33.2817 26.9335 33.2332 26.6058C33.4274 26.5573 33.4476 26.4399 33.3546 26.2821V26.2498C33.5099 26.0943 33.6315 25.9084 33.7116 25.7037C33.7916 25.4989 33.8285 25.2799 33.8199 25.0602C33.8126 25.051 33.8087 25.0396 33.8087 25.0279C33.8087 25.0161 33.8126 25.0048 33.8199 24.9955C33.8401 24.9955 33.8644 25.036 33.8765 24.9955H33.8239C33.823 24.9506 33.8312 24.906 33.8479 24.8643C33.8645 24.8226 33.8894 24.7847 33.921 24.7528C33.9416 24.7455 33.9604 24.7338 33.976 24.7186C33.9916 24.7033 34.0037 24.6848 34.0114 24.6644C34.0191 24.6439 34.0223 24.6221 34.0206 24.6003C34.019 24.5785 34.0126 24.5574 34.0019 24.5383L34.0505 24.4048C34.4065 24.3198 34.3539 24.073 34.2811 23.8181V23.7817C34.4025 23.7574 34.4065 23.6806 34.3701 23.5834L34.4025 23.4823C34.6372 23.4459 34.6372 23.2072 34.7504 23.0777C34.8637 22.9482 34.714 22.9361 34.625 22.9239C34.6367 22.7772 34.69 22.6368 34.7788 22.5193C34.9325 22.5396 34.9851 22.4222 35.0256 22.317C35.2157 21.8396 35.3938 21.3541 35.5758 20.8726C35.5887 20.8356 35.5914 20.7957 35.5836 20.7573C35.5757 20.7188 35.5577 20.6832 35.5313 20.6541C35.5268 20.6156 35.5327 20.5765 35.5484 20.5409C35.564 20.5053 35.5889 20.4746 35.6203 20.4518C35.7481 20.3634 35.8477 20.2401 35.9072 20.0966C35.9668 19.9531 35.9838 19.7955 35.9562 19.6426V19.6143C36.0614 19.5779 36.0735 19.5051 36.0411 19.412L36.0735 19.3109C36.1755 19.2661 36.2569 19.1848 36.3019 19.0829C36.3468 18.9811 36.3519 18.8661 36.3162 18.7606L36.3486 18.6635C36.7128 18.5381 36.7168 18.1537 36.7977 17.8988C36.911 17.5589 37.2873 17.2838 37.1093 16.863L37.1942 16.6648C37.3237 16.6648 37.3237 16.5717 37.2752 16.4746C37.2709 16.4695 37.2685 16.4631 37.2685 16.4564C37.2685 16.4497 37.2709 16.4433 37.2752 16.4382C37.4682 16.2615 37.6223 16.0464 37.7274 15.8067C37.8326 15.5671 37.8867 15.3081 37.8861 15.0464L37.9225 14.9533C37.9368 14.9502 37.9502 14.9437 37.9616 14.9345C37.9729 14.9252 37.9819 14.9134 37.9878 14.8999C37.9937 14.8865 37.9964 14.8719 37.9956 14.8573C37.9948 14.8427 37.9906 14.8284 37.9832 14.8158L38.0156 14.7186C38.056 14.7186 38.1046 14.7186 38.1248 14.6822C38.5496 14.1684 38.671 13.4684 39.1727 12.995C39.1841 12.9787 39.1921 12.9603 39.1963 12.9408C39.2004 12.9214 39.2007 12.9013 39.197 12.8818C39.195 12.5444 39.2951 12.2143 39.4843 11.935C39.9536 10.9194 40.4513 9.91198 40.9449 8.92071C41.281 8.32716 41.5718 7.70905 41.8148 7.07168C41.8827 6.80301 42.0464 6.56838 42.2751 6.41192C42.5039 6.25546 42.7819 6.18792 43.0569 6.22202C44.2909 6.22202 45.529 6.18157 46.763 6.18157C50.6958 6.18157 54.6325 6.06422 58.5693 6.23416C58.6789 6.23813 58.7863 6.26587 58.8841 6.31548C58.9819 6.36508 59.0678 6.43536 59.1358 6.52143C59.5404 6.92603 59.6253 7.52888 59.945 7.99822C60.1662 8.33958 60.3455 8.70636 60.479 9.09064C60.6692 9.66112 61.0252 10.1507 61.1952 10.7333C61.3206 11.1622 61.6241 11.5425 61.7778 11.9674C61.9639 12.4933 62.2997 12.9505 62.4939 13.4765C62.6881 14.0025 63.0118 14.4192 63.1818 14.9209C63.3517 15.4226 63.647 16.0053 63.8291 16.5677C63.9626 16.9723 64.262 17.304 64.3875 17.7248C64.5556 18.2727 64.7653 18.807 65.0146 19.323C65.2701 19.7356 65.4305 20.2001 65.4839 20.6825C65.4839 20.7416 65.4979 20.7998 65.5246 20.8526C65.5513 20.9053 65.59 20.951 65.6377 20.9859C65.8066 21.1514 65.9209 21.3646 65.9654 21.5969C66.1151 22.0581 66.2689 22.5193 66.4388 22.9644C66.7018 23.6441 66.981 24.3239 67.2804 24.9874C67.7983 26.1203 68.1341 27.3179 68.5791 28.4791C68.9069 29.3328 69.2184 30.1946 69.5421 31.0483C69.8658 31.902 70.1288 32.6667 70.3877 33.4759C70.7235 34.5198 71.1564 35.5313 71.4194 36.6035C71.6291 37.3181 71.8749 38.0217 72.1558 38.7115C72.3783 39.3386 72.5604 39.9779 72.7708 40.6091C72.9367 41.1391 73.139 41.6772 73.2725 42.2072C73.406 42.7373 73.7378 43.1742 73.758 43.7245C73.7595 43.758 73.7678 43.7909 73.7824 43.8211C73.7971 43.8513 73.8177 43.8782 73.8431 43.9002C73.8684 43.9221 73.898 43.9387 73.93 43.9488C73.962 43.959 73.9957 43.9625 74.0291 43.9592L74.1869 44.5054C74.0251 44.6672 74.1626 44.7481 74.28 44.8331L74.3528 45.0597C74.1829 45.2256 74.2274 45.3186 74.4539 45.355C74.4013 45.4359 74.4135 45.4966 74.5106 45.5331C74.6015 45.6707 74.6723 45.8205 74.721 45.9781C74.7148 45.987 74.7107 45.9973 74.7093 46.008C74.7078 46.0188 74.7088 46.0297 74.7124 46.04C74.7159 46.0502 74.7219 46.0595 74.7297 46.0671C74.7375 46.0746 74.747 46.0802 74.7574 46.0833L74.8747 46.5284C74.8654 46.5448 74.8597 46.5631 74.8581 46.5819C74.8566 46.6008 74.8592 46.6197 74.8657 46.6375C74.8723 46.6552 74.8826 46.6713 74.8961 46.6846C74.9095 46.6979 74.9257 46.7081 74.9435 46.7145C74.9921 46.8804 75.0366 47.0463 75.0811 47.2121C74.9799 47.3578 75.0447 47.4468 75.1822 47.5075L75.2793 47.8878C75.1296 47.9971 75.2065 48.0375 75.3319 48.0659C75.3354 48.0689 75.3381 48.0726 75.34 48.0768C75.3419 48.081 75.3429 48.0855 75.3429 48.0901C75.3429 48.0947 75.3419 48.0993 75.34 48.1035C75.3381 48.1076 75.3354 48.1114 75.3319 48.1144C75.3223 48.1306 75.3162 48.1487 75.3141 48.1674C75.312 48.1862 75.3138 48.2051 75.3196 48.2231C75.3253 48.2411 75.3348 48.2576 75.3474 48.2717C75.36 48.2857 75.3754 48.2969 75.3926 48.3046L75.6111 49.0369C75.5747 49.0976 75.5909 49.138 75.6556 49.1664C75.87 50.1496 76.1897 51.1085 76.4648 52.0835C76.918 53.7478 77.3671 55.4134 77.8121 57.0804C78.1803 58.4641 78.5404 59.8519 78.9046 61.2397C78.8884 61.3529 78.856 61.4905 78.9976 61.5795ZM33.8886 49.1219C34.1152 49.0167 34.2528 48.9641 34.3742 48.8912C35.5718 48.1845 36.7667 47.4724 37.9589 46.755L40.2571 45.3914C41.2292 44.8018 42.2358 44.2708 43.2713 43.8014C43.858 43.5465 44.3557 43.0974 44.9464 42.8465C45.7389 42.5028 46.4975 42.0856 47.2122 41.6003C47.9324 41.1189 48.7213 40.7669 49.4658 40.338C49.927 40.0709 50.4247 39.816 50.8697 39.5288C51.4011 39.154 51.9708 38.8366 52.5691 38.582C52.6976 38.5493 52.8141 38.4805 52.9049 38.3838C53.1396 38.0318 53.5361 37.9468 53.8638 37.7566C54.1915 37.5665 54.6487 37.3763 54.9967 37.1295C55.5883 36.704 56.2044 36.3136 56.8417 35.9602C57.2786 35.7255 57.6832 35.4423 58.1283 35.2157C58.8363 34.8556 59.4878 34.4065 60.2039 34.0464C60.3822 33.9743 60.529 33.8411 60.618 33.6705C60.707 33.5 60.7323 33.3034 60.6894 33.1158C60.4602 32.5206 60.1898 31.9419 59.8802 31.3842C59.6577 30.9796 59.3421 30.664 59.1479 30.2391C58.6543 29.1669 58.0757 28.1393 57.574 27.0752C56.9307 25.7157 56.2186 24.3967 55.5267 23.0656C55.0533 22.1552 54.5112 21.2772 54.0095 20.379C53.6494 19.7276 53.2205 19.1207 52.8321 18.4895C52.3842 17.7647 51.8839 17.0737 51.335 16.422C51.1827 16.2677 50.9762 16.1788 50.7594 16.1743C50.5426 16.1698 50.3325 16.2499 50.1738 16.3977C49.8781 16.6802 49.6185 16.9982 49.4011 17.3445C49.0494 17.7633 48.7302 18.2083 48.4462 18.6756C48.1932 19.1593 47.915 19.6293 47.6127 20.0837C47.107 20.8929 46.6579 21.7708 46.1804 22.6084C45.4198 23.9395 44.7724 25.3313 44.0644 26.6948C43.3199 28.119 42.6402 29.5715 41.9766 31.0362C41.0015 33.1725 40.0062 35.3007 39.0109 37.4289C38.4404 38.6427 37.9508 39.8929 37.3925 41.1108C36.4295 43.1742 35.5313 45.2701 34.6291 47.3659C34.3334 47.9294 34.0857 48.5168 33.8886 49.1219V49.1219ZM74.4418 45.6504V45.703C74.4418 45.703 74.462 45.703 74.462 45.6787C74.4587 45.6673 74.4516 45.6573 74.4418 45.6504V45.6504Z" fill="#D12F2D"/>
<path d="M69.0571 74.025C69.397 74.025 69.4617 73.8672 69.3646 73.5395C68.8656 71.8564 68.341 70.1813 67.7907 68.5144C67.3861 67.3289 67.0422 66.1394 66.6578 64.9539C66.2735 63.7684 65.9093 62.6841 65.5209 61.5552C64.9545 59.9085 64.3759 58.2658 63.7973 56.6231C63.6314 56.1538 63.4453 55.6885 63.2835 55.2192C63.2025 54.9845 63.1135 54.8146 63.5384 54.7296C64.7036 54.5516 65.8729 54.4181 67.0422 54.2805C67.7017 54.1996 68.3653 54.1146 69.0248 54.0054C69.5912 53.9123 69.6802 53.9245 69.8987 54.4464C70.4934 55.8463 71.0518 57.2786 71.6587 58.6623C72.0633 59.601 72.4315 60.5559 72.8725 61.4945C73.3904 62.6355 73.8233 63.817 74.2967 64.9782C74.7984 66.192 75.3082 67.4058 75.8018 68.6479C76.3561 70.0195 76.9023 71.3951 77.4526 72.7708C77.6023 73.1471 77.7641 73.5193 77.9138 73.8996C78.0109 74.1464 78.1364 74.2759 78.4115 74.11C78.4924 74.0615 78.6178 74.11 78.719 74.0817C78.6234 74.1885 78.5051 74.2727 78.3728 74.328C78.2405 74.3833 78.0975 74.4083 77.9543 74.4013C75.2785 74.4013 72.6055 74.4013 69.9351 74.4013C69.7687 74.4196 69.6005 74.3945 69.4466 74.3286C69.2928 74.2627 69.1586 74.1581 69.0571 74.025V74.025Z" fill="#B85858"/>
<path d="M24.9554 51.9535C25.0743 52.2425 25.0743 52.5668 24.9554 52.8558C24.6964 53.7782 24.3525 54.6805 24.1745 55.6151C24.0572 56.2139 23.7699 56.7521 23.6768 57.3428C23.4341 58.7993 22.9769 60.2033 22.6208 61.6316C22.3619 62.6795 22.1555 63.7436 21.8683 64.7874C21.7024 65.3862 21.7024 66.0336 21.5122 66.6203C21.2533 67.4295 21.1724 68.2589 20.8932 69.0479C20.7152 69.649 20.5933 70.2653 20.5291 70.8888C20.4788 71.3547 20.3812 71.8143 20.2377 72.2604C20.2121 72.3414 20.2194 72.4293 20.258 72.505C20.2966 72.5807 20.3635 72.6382 20.4441 72.665C20.8487 72.8592 21.2533 73.0696 21.6781 73.2638C21.9901 73.4116 22.2915 73.5806 22.5804 73.7696C22.6692 73.8467 22.7742 73.9028 22.8877 73.9336C23.0012 73.9644 23.1202 73.9692 23.2358 73.9476C23.4381 73.8707 23.5191 73.628 23.5878 73.3812C23.7405 72.8966 23.9271 72.4234 24.1462 71.9651C24.2723 71.7513 24.3315 71.5047 24.3161 71.257C24.3161 71.164 24.3525 71.1113 24.397 71.0466C24.9225 70.1313 25.3497 69.163 25.6715 68.1578C25.9912 67.3122 26.3553 66.4746 26.7114 65.6371C27.1766 64.5325 27.6177 63.4158 28.0789 62.3072C28.3081 61.838 28.5094 61.3557 28.6818 60.8628C28.705 60.7857 28.7484 60.7162 28.8074 60.6615C28.8664 60.6067 28.939 60.5687 29.0176 60.5513C30.8585 60.1467 32.6954 59.7178 34.5485 59.3698C35.1918 59.2485 35.8432 59.1797 36.4865 59.0421C36.7171 58.9895 36.8062 59.0421 36.7171 59.3051C35.8513 61.8676 34.9922 64.43 34.1398 66.9925C33.6745 68.4005 33.189 69.8045 32.7925 71.2327C32.483 72.1242 32.2329 73.0352 32.044 73.9597C32.2302 73.8372 32.4541 73.7855 32.6752 73.8141C32.4908 74.0377 32.2455 74.203 31.9689 74.2899C31.6924 74.3768 31.3966 74.3816 31.1175 74.3037C30.9841 74.279 30.8484 74.2695 30.7129 74.2753C28.6453 74.2753 26.5738 74.2106 24.5103 74.2996C23.5443 74.3568 22.5836 74.1198 21.755 73.6199C21.2371 73.3164 20.6788 73.0696 20.1366 72.8107C20.0936 72.7953 20.0541 72.7716 20.0203 72.7408C19.9866 72.71 19.9593 72.6728 19.9401 72.6314C19.9209 72.59 19.9101 72.5451 19.9084 72.4995C19.9067 72.4539 19.9142 72.4084 19.9302 72.3656C20.7179 68.5732 21.581 64.7969 22.5197 61.0368C23.2682 58.0589 24.045 55.0932 24.8745 52.1356C24.8983 52.0735 24.9253 52.0128 24.9554 51.9535V51.9535Z" fill="#B85858"/>
<path d="M74.0946 43.8539C74.0612 43.8573 74.0275 43.8537 73.9955 43.8436C73.9635 43.8335 73.9339 43.8169 73.9085 43.7949C73.8832 43.773 73.8625 43.7461 73.8479 43.7159C73.8333 43.6857 73.825 43.6528 73.8235 43.6193C73.8235 43.069 73.4634 42.6239 73.338 42.102C73.2126 41.5801 73.0022 41.0339 72.8363 40.5038C72.634 39.8727 72.4317 39.2334 72.2213 38.6063C71.9404 37.9165 71.6946 37.2129 71.4849 36.4983C71.2219 35.4261 70.789 34.4146 70.4532 33.3707C70.1942 32.5615 69.907 31.7523 69.6076 30.9431C69.3082 30.1339 68.9723 29.2276 68.6446 28.3739C68.1996 27.2127 67.8637 26.0151 67.3458 24.8822C67.0464 24.2186 66.7673 23.5389 66.5043 22.8592C66.3343 22.4141 66.1806 21.9529 66.0309 21.4916C65.9864 21.2594 65.8721 21.0462 65.7032 20.8807C65.6555 20.8457 65.6168 20.8 65.59 20.7473C65.5633 20.6946 65.5494 20.6363 65.5494 20.5772C65.496 20.0948 65.3356 19.6304 65.0801 19.2178C64.8308 18.7017 64.6211 18.1675 64.4529 17.6196C64.3275 17.215 64.0281 16.8792 63.8946 16.4624C63.7125 15.9 63.4415 15.3741 63.2472 14.8157C63.053 14.2574 62.7455 13.8689 62.5594 13.3713C62.3733 12.8736 62.0294 12.3881 61.8433 11.8621C61.6895 11.4252 61.3861 11.0529 61.2607 10.6281C61.0907 10.0455 60.7347 9.5559 60.5445 8.98542C60.411 8.60114 60.2317 8.23435 60.0104 7.89299C59.7029 7.42365 59.6058 6.83698 59.2012 6.4162C59.1333 6.33012 59.0474 6.25986 58.9496 6.21026C58.8518 6.16065 58.7444 6.13291 58.6348 6.12893C54.698 5.959 50.7612 6.06824 46.8285 6.07633C45.6147 6.07633 44.3564 6.13298 43.1224 6.1168C42.8474 6.0827 42.5693 6.15024 42.3406 6.3067C42.1119 6.46316 41.9482 6.69777 41.8803 6.96645C41.6373 7.60382 41.3465 8.22192 41.0104 8.81548C40.5167 9.81484 40.0191 10.8142 39.5498 11.8298C39.3606 12.1091 39.2605 12.4392 39.2625 12.7765C39.2662 12.7961 39.2659 12.8162 39.2618 12.8356C39.2576 12.8551 39.2496 12.8735 39.2382 12.8898C38.7365 13.3592 38.6151 14.0632 38.1903 14.577C38.1701 14.6013 38.1215 14.6013 38.0811 14.6134C38.1686 14.2464 38.3047 13.8926 38.4857 13.5615C39.5781 11.1055 40.7312 8.68197 41.9126 6.27864C41.957 6.14835 42.0446 6.03717 42.1609 5.96357C42.2772 5.88996 42.4152 5.85837 42.5519 5.87403C47.9466 5.87403 53.3413 5.87403 58.7359 5.87403C58.9026 5.85709 59.07 5.89651 59.2116 5.986C59.3532 6.07549 59.4606 6.20987 59.5168 6.36765C61.9444 11.2552 64.1333 16.2399 66.1725 21.2934C68.0364 25.922 69.7667 30.6005 71.3635 35.329C72.3022 38.1086 73.1721 40.9125 74.0703 43.7042C74.0843 43.753 74.0924 43.8032 74.0946 43.8539Z" fill="#B85858"/>
<path d="M38.0273 60.1629C37.9304 59.6547 37.9985 59.1287 38.2215 58.6619C38.2615 58.601 38.3138 58.5494 38.3752 58.5103C38.4366 58.4713 38.5056 58.4457 38.5776 58.4353C40.0989 58.1602 41.6242 57.8972 43.1415 57.6261C44.2015 57.4359 45.2535 57.2215 46.3135 57.0596C47.6568 56.8412 49.0122 56.655 50.3596 56.4285C51.2456 56.2707 52.156 56.2787 53.034 56.0238C53.2153 56.0069 53.3981 56.0178 53.5761 56.0562C52.9129 56.2329 52.2363 56.3547 51.5531 56.4204C49.4694 56.7683 47.3776 57.0758 45.2939 57.4319C43.0929 57.8041 40.9 58.2208 38.699 58.6052C38.3915 58.6578 38.2943 58.8075 38.2498 59.0907C38.2271 59.4569 38.1522 59.8179 38.0273 60.1629Z" fill="#B85858"/>
<path d="M32.7285 73.7746C32.8378 73.4913 33.1048 73.37 33.3152 73.1838C33.7507 72.8402 34.2166 72.5368 34.707 72.2775C35.237 71.9781 35.7307 71.618 36.2364 71.2741C36.2994 71.2178 36.3744 71.1765 36.4557 71.1534C36.537 71.1303 36.6225 71.1259 36.7057 71.1406C35.9775 71.7394 35.1642 72.2088 34.3833 72.7307C33.872 73.1387 33.317 73.4889 32.7285 73.7746Z" fill="#B85858"/>
<path d="M62.1787 54.8791C62.4134 54.8508 62.4174 55.045 62.4579 55.1866C62.7276 56.1765 62.9596 57.1773 63.1538 58.1888C63.2226 58.5367 63.2914 58.8806 63.3642 59.2245C63.3885 59.3419 63.4289 59.4552 63.3035 59.5442C63.1102 58.8505 62.9548 58.1468 62.8382 57.4362C62.6481 56.5704 62.4741 55.7086 62.1787 54.8791Z" fill="#B85858"/>
<path d="M25.8536 48.8623C26.0114 49.0687 25.8536 49.2669 25.8252 49.4652C25.6836 50.157 25.5137 50.8408 25.3276 51.5165C25.314 51.5954 25.275 51.6677 25.2166 51.7224C25.1582 51.7772 25.0835 51.8114 25.0039 51.8199C25.2103 50.8136 25.4944 49.8248 25.8536 48.8623V48.8623Z" fill="#B85858"/>
<path d="M26.8325 45.5007C26.8514 45.5066 26.869 45.5163 26.884 45.5292C26.899 45.5421 26.9113 45.558 26.92 45.5758C26.9287 45.5936 26.9337 45.613 26.9347 45.6328C26.9356 45.6525 26.9325 45.6723 26.9256 45.6909C26.6545 46.6417 26.3834 47.5925 26.0961 48.5231C26.0638 48.6283 26.0435 48.7982 25.8574 48.7901C26.0107 48.0728 26.2053 47.3649 26.44 46.67C26.5237 46.266 26.6554 45.8734 26.8325 45.5007V45.5007Z" fill="#B85858"/>
<path d="M57.623 55.4785C57.7422 55.3694 57.8948 55.3038 58.056 55.2924C58.9744 55.1143 59.9171 55.1143 60.8234 54.8878C60.9448 54.8594 61.0581 54.8392 61.1269 54.9768C60.3931 55.1468 59.6481 55.2645 58.8975 55.3288C58.4817 55.4373 58.0528 55.4877 57.623 55.4785Z" fill="#B85858"/>
<path d="M64.2943 67.8259C64.5816 68.1011 64.4561 68.4773 64.4764 68.7889C64.5694 69.5376 64.6019 70.2926 64.5735 71.0465C64.5334 71.0445 64.4957 71.0268 64.4685 70.9973C64.4413 70.9678 64.4267 70.9289 64.4278 70.8888C64.3873 69.8489 64.27 68.8334 64.2943 67.8259Z" fill="#B85858"/>
<path d="M53.5967 56.069C53.9527 55.7939 54.4059 55.8384 54.8105 55.7453C55.3374 55.6446 55.8696 55.5744 56.4046 55.5349C56.5201 55.5397 56.6344 55.5601 56.7445 55.5956C56.0607 55.7705 55.3638 55.8896 54.6608 55.9517C54.3148 56.0485 53.9554 56.0881 53.5967 56.069V56.069Z" fill="#B85858"/>
<path d="M66.2002 72.1239C66.3459 72.0672 66.4551 72.1482 66.5643 72.221C67.0458 72.5325 67.5111 72.8724 68.0168 73.1475C68.1002 73.1782 68.1726 73.2331 68.2245 73.3052C68.2764 73.3773 68.3055 73.4633 68.3082 73.5521C67.5632 73.1416 66.8576 72.6635 66.2002 72.1239V72.1239Z" fill="#B85858"/>
<path d="M30.086 35.3489C30.1912 35.6523 30.0213 35.9113 29.9363 36.1581C29.8028 36.6031 29.649 37.0442 29.4953 37.4852C29.4508 37.6106 29.4669 37.7886 29.2646 37.7967C29.4711 36.9597 29.7458 36.141 30.086 35.3489V35.3489Z" fill="#B85858"/>
<path d="M37.2484 66.4142C37.0542 66.1108 37.1756 65.7952 37.2201 65.4796C37.2646 65.164 37.2808 64.8646 37.3091 64.5531C37.3091 64.4276 37.2848 64.282 37.475 64.2537C37.4642 64.9792 37.3883 65.7023 37.2484 66.4142Z" fill="#B85858"/>
<path d="M28.5286 40.079C28.6378 40.5645 28.3991 40.9812 28.2373 41.402C28.124 41.6933 28.1523 42.0534 27.8772 42.284C27.7801 42.0777 27.9015 41.8997 27.9622 41.7257C28.1102 41.1636 28.2995 40.6132 28.5286 40.079V40.079Z" fill="#B85858"/>
<path d="M64.064 65.1151C64.3351 65.3255 64.1611 65.6249 64.2097 65.8798C64.2804 66.3032 64.329 66.7299 64.3553 67.1584C64.3553 67.2797 64.4079 67.4254 64.2704 67.5184C64.1745 67.0084 64.119 66.4916 64.1045 65.9729C64.0424 65.6913 64.0287 65.4013 64.064 65.1151V65.1151Z" fill="#B85858"/>
<path d="M35.5846 20.5531C35.6109 20.5822 35.629 20.6178 35.6368 20.6562C35.6446 20.6947 35.642 20.7345 35.6291 20.7716C35.447 21.2531 35.269 21.7386 35.0788 22.216C35.0384 22.3212 34.9858 22.4385 34.832 22.4183C35.0131 21.7706 35.2655 21.1451 35.5846 20.5531V20.5531Z" fill="#B85858"/>
<path d="M37.0936 68.7809C36.956 68.6879 37.0046 68.5463 37.0086 68.4208C37.0086 67.9232 37.1219 67.4336 37.0896 66.9319C37.0896 66.8227 37.0896 66.7215 37.2433 66.7013C37.2481 67.3974 37.1981 68.0927 37.0936 68.7809V68.7809Z" fill="#B85858"/>
<path d="M37.1708 16.7494C37.3488 17.154 36.9726 17.4453 36.8593 17.7852C36.7783 18.0401 36.7743 18.4244 36.4102 18.5499C36.5883 17.9206 36.8438 17.3158 37.1708 16.7494V16.7494Z" fill="#B85858"/>
<path d="M63.7969 62.9019C64.0801 63.0273 63.9587 63.3065 63.9749 63.4966C64.0073 63.9012 64.2419 64.3301 64.0113 64.7549C63.8792 64.1458 63.8074 63.5251 63.7969 62.9019V62.9019Z" fill="#B85858"/>
<path d="M63.5742 61.1714C63.8434 61.6656 63.9225 62.2412 63.7967 62.7898C63.6535 62.2621 63.5787 61.7182 63.5742 61.1714Z" fill="#B85858"/>
<path d="M37.9625 14.9331C37.9631 15.1948 37.909 15.4538 37.8038 15.6935C37.6987 15.9331 37.5446 16.1482 37.3516 16.3249C37.4792 15.8312 37.6855 15.3613 37.9625 14.9331Z" fill="#B85858"/>
<path d="M63.332 59.6619C63.6072 59.7549 63.4939 60.022 63.5222 60.1959C63.5748 60.467 63.7811 60.7502 63.5546 61.0375C63.4102 60.5931 63.3352 60.1291 63.332 59.6619V59.6619Z" fill="#B85858"/>
<path d="M36.8506 71.0307C36.7842 70.5532 36.8485 70.0666 37.0367 69.6227C37.0576 70.0273 37.0509 70.4328 37.0165 70.8365C37.0207 70.8605 37.0195 70.8852 37.013 70.9087C37.0066 70.9322 36.995 70.954 36.9792 70.9726C36.9633 70.9911 36.9436 71.0059 36.9214 71.016C36.8992 71.026 36.875 71.0311 36.8506 71.0307V71.0307Z" fill="#B85858"/>
<path d="M27.3841 43.8063C27.4397 44.0236 27.4339 44.2521 27.3675 44.4664C27.3011 44.6806 27.1766 44.8723 27.0078 45.0201C27.0584 44.596 27.1859 44.1846 27.3841 43.8063V43.8063Z" fill="#B85858"/>
<path d="M28.9205 38.8927C28.9818 39.0963 28.9785 39.3138 28.911 39.5154C28.8436 39.717 28.7154 39.8927 28.5439 40.0184C28.6029 39.6241 28.7304 39.2431 28.9205 38.8927V38.8927Z" fill="#B85858"/>
<path d="M37.7162 62.2222C37.6302 61.7539 37.7013 61.2703 37.9185 60.8466C37.9182 61.3125 37.8501 61.7759 37.7162 62.2222V62.2222Z" fill="#B85858"/>
<path d="M31.3641 31.6473C31.4612 32.0236 31.1902 32.3352 31.1699 32.6953C31.1687 32.7219 31.1614 32.748 31.1485 32.7713C31.1356 32.7947 31.1175 32.8148 31.0956 32.83C31.0737 32.8453 31.0485 32.8553 31.0221 32.8593C30.9958 32.8633 30.9688 32.8612 30.9434 32.8531C31.0236 32.4327 31.1654 32.0264 31.3641 31.6473Z" fill="#B85858"/>
<path d="M33.8569 24.9751C33.8655 25.1947 33.8287 25.4138 33.7486 25.6185C33.6685 25.8232 33.547 26.0091 33.3916 26.1646C33.4744 25.7435 33.632 25.3406 33.8569 24.9751V24.9751Z" fill="#B85858"/>
<path d="M30.422 34.3658C30.6042 34.5643 30.4908 34.9247 30.1709 35.1757C30.1727 34.8869 30.2601 34.6051 30.422 34.3658Z" fill="#B85858"/>
<path d="M68.3369 73.5471C68.4875 73.5283 68.6398 73.5647 68.7657 73.6496C68.8915 73.7344 68.9823 73.862 69.0213 74.0087C68.7571 73.9165 68.5213 73.7575 68.3369 73.5471V73.5471Z" fill="#B85858"/>
<path d="M33.2503 26.5206C33.2989 26.8486 33.3029 27.1604 32.9385 27.3305C32.9782 27.04 33.085 26.7628 33.2503 26.5206V26.5206Z" fill="#B85858"/>
<path d="M34.6663 22.8115C34.7554 22.8115 34.877 22.8561 34.7919 22.9655C34.7068 23.075 34.6784 23.3465 34.4434 23.3708C34.4512 23.1643 34.5299 22.9668 34.6663 22.8115Z" fill="#B85858"/>
<path d="M37.559 63.4899C37.4972 63.349 37.4737 63.1944 37.4908 63.0415C37.5078 62.8887 37.5649 62.743 37.6562 62.6193C37.6949 62.9131 37.6616 63.2119 37.559 63.4899V63.4899Z" fill="#B85858"/>
<path d="M36.0099 19.5294C36.0376 19.6824 36.0206 19.8402 35.961 19.9838C35.9014 20.1274 35.8017 20.2508 35.6738 20.3393C35.7146 20.045 35.8303 19.7661 36.0099 19.5294V19.5294Z" fill="#B85858"/>
<path d="M61.2725 54.9603C61.3945 54.867 61.5396 54.8086 61.6923 54.7915C61.8449 54.7744 61.9994 54.7992 62.139 54.8631C61.8597 54.9538 61.5649 54.9869 61.2725 54.9603V54.9603Z" fill="#B85858"/>
<path d="M34.3257 23.7255C34.3987 23.9808 34.4514 24.228 34.0947 24.3131C34.1051 24.0972 34.1863 23.8907 34.3257 23.7255V23.7255Z" fill="#B85858"/>
<path d="M56.7646 55.5955C56.9955 55.4822 57.2222 55.3242 57.4895 55.5024C57.2611 55.5996 57.0102 55.6318 56.7646 55.5955V55.5955Z" fill="#B85858"/>
<path d="M29.1841 38.105C29.2084 38.3641 29.2367 38.6233 28.9533 38.7772C28.949 38.533 29.0307 38.295 29.1841 38.105Z" fill="#B85858"/>
<path d="M36.377 18.6467C36.4127 18.7524 36.4076 18.8676 36.3626 18.9696C36.3175 19.0716 36.2359 19.1531 36.1338 19.1979C36.141 18.9898 36.2281 18.7924 36.377 18.6467Z" fill="#B85858"/>
<path d="M32.7772 27.7715C32.8137 27.966 32.8705 28.1768 32.6111 28.2578C32.5961 28.1693 32.6035 28.0785 32.6325 27.9936C32.6615 27.9087 32.7112 27.8323 32.7772 27.7715V27.7715Z" fill="#B85858"/>
<path d="M37.4992 64.1207C37.329 63.9586 37.3857 63.8249 37.5438 63.7155C37.5682 63.7819 37.5768 63.853 37.5691 63.9233C37.5613 63.9936 37.5374 64.0612 37.4992 64.1207V64.1207Z" fill="#B85858"/>
<path d="M37.9426 60.7181C37.8213 60.5805 37.8051 60.4591 38.0033 60.3701C38.027 60.4279 38.0339 60.4913 38.0231 60.5528C38.0124 60.6144 37.9845 60.6717 37.9426 60.7181V60.7181Z" fill="#B85858"/>
<path d="M32.9097 27.4316C32.9461 27.5813 33.0513 27.7553 32.7761 27.7836C32.7623 27.7183 32.7675 27.6504 32.7912 27.588C32.8148 27.5256 32.856 27.4713 32.9097 27.4316V27.4316Z" fill="#B85858"/>
<path d="M74.5187 45.2502C74.2921 45.2138 74.2476 45.1207 74.4176 44.9548C74.4615 44.9887 74.4945 45.0348 74.5125 45.0873C74.5305 45.1398 74.5326 45.1965 74.5187 45.2502V45.2502Z" fill="#B85858"/>
<path d="M33.3704 26.1974C33.4635 26.3552 33.4433 26.4725 33.2491 26.5211C33.2334 26.4612 33.2366 26.3979 33.2583 26.34C33.2801 26.282 33.3192 26.2322 33.3704 26.1974Z" fill="#B85858"/>
<path d="M74.3447 44.7278C74.2274 44.6428 74.0898 44.5619 74.2516 44.4C74.2996 44.438 74.3344 44.49 74.3511 44.5489C74.3678 44.6077 74.3655 44.6703 74.3447 44.7278V44.7278Z" fill="#B85858"/>
<path d="M31.8327 30.368C31.8651 30.5177 31.9258 30.6836 31.6992 30.7443C31.69 30.6755 31.6972 30.6055 31.7205 30.54C31.7437 30.4746 31.7822 30.4156 31.8327 30.368Z" fill="#B85858"/>
<path d="M64.7441 71.1523C64.8908 71.1523 65.0374 71.1279 65.0293 71.3438C64.9671 71.3486 64.9052 71.3323 64.8535 71.2976C64.8017 71.2628 64.7632 71.2117 64.7441 71.1523V71.1523Z" fill="#B85858"/>
<path d="M30.7894 33.3224C30.842 33.4721 30.8703 33.6137 30.668 33.6703C30.6504 33.6069 30.6526 33.5396 30.6743 33.4774C30.696 33.4152 30.7361 33.3612 30.7894 33.3224V33.3224Z" fill="#B85858"/>
<path d="M75.1944 47.4993C75.0568 47.4387 74.9921 47.3496 75.0933 47.204C75.1434 47.2322 75.1814 47.2779 75.2001 47.3324C75.2187 47.3869 75.2167 47.4463 75.1944 47.4993V47.4993Z" fill="#B85858"/>
<path d="M31.5874 31.0325C31.7503 31.171 31.6404 31.2321 31.51 31.285C31.4899 31.2407 31.4867 31.1906 31.5009 31.1441C31.5152 31.0976 31.5459 31.0579 31.5874 31.0325V31.0325Z" fill="#B85858"/>
<path d="M65.2217 71.4679C65.3561 71.4435 65.4661 71.4679 65.462 71.6349C65.4086 71.6405 65.3549 71.6267 65.3108 71.5961C65.2667 71.5654 65.2351 71.5199 65.2217 71.4679V71.4679Z" fill="#B85858"/>
<path d="M75.3448 48.0583C75.2185 48.0297 75.1411 47.989 75.2919 47.879C75.3082 47.8862 75.3227 47.8968 75.3345 47.9101C75.3463 47.9235 75.355 47.9393 75.36 47.9563C75.3651 47.9734 75.3663 47.9914 75.3637 48.009C75.3611 48.0266 75.3546 48.0434 75.3448 48.0583V48.0583Z" fill="#B85858"/>
<path d="M65.0352 71.3473C65.1655 71.2821 65.2225 71.3473 65.2225 71.4695C65.2021 71.4755 65.1807 71.4771 65.1596 71.474C65.1385 71.471 65.1184 71.4634 65.1005 71.4518C65.0827 71.4401 65.0676 71.4248 65.0563 71.4067C65.045 71.3887 65.0378 71.3684 65.0352 71.3473V71.3473Z" fill="#B85858"/>
<path d="M27.53 43.2031C27.5748 43.3213 27.6522 43.4475 27.4485 43.4964C27.4357 43.4446 27.4365 43.3904 27.4507 43.3391C27.465 43.2877 27.4923 43.2409 27.53 43.2031V43.2031Z" fill="#B85858"/>
<path d="M26.9498 45.1399C27.0476 45.2621 27.0109 45.3354 26.8683 45.3762C26.8495 45.3338 26.8474 45.2858 26.8626 45.242C26.8777 45.1981 26.9088 45.1617 26.9498 45.1399V45.1399Z" fill="#B85858"/>
<path d="M78.9981 61.5796C78.8565 61.4906 78.8889 61.3571 78.9172 61.2317C78.9638 61.275 78.9964 61.3313 79.0108 61.3933C79.0252 61.4553 79.0208 61.5202 78.9981 61.5796V61.5796Z" fill="#B85858"/>
<path d="M65.9854 71.9826C66.1157 71.9256 66.1687 71.9826 66.1768 72.113C66.1557 72.1171 66.1339 72.117 66.1128 72.1127C66.0917 72.1084 66.0717 72.0999 66.0539 72.0878C66.0361 72.0756 66.0209 72.0601 66.0091 72.0421C65.9973 72.024 65.9893 72.0038 65.9854 71.9826V71.9826Z" fill="#B85858"/>
<path d="M37.6559 62.618C37.603 62.5203 37.5907 62.4266 37.6966 62.3533C37.7374 62.451 37.7577 62.5447 37.6559 62.618Z" fill="#B85858"/>
<path d="M27.4446 43.5176C27.5057 43.6235 27.5383 43.7212 27.3673 43.7579C27.3505 43.7151 27.349 43.6677 27.3631 43.624C27.3772 43.5802 27.406 43.5426 27.4446 43.5176V43.5176Z" fill="#B85858"/>
<path d="M30.6454 33.7672C30.678 33.8853 30.6984 33.9994 30.5355 34.0361C30.5219 33.9854 30.5254 33.9317 30.5452 33.8831C30.5651 33.8346 30.6003 33.7939 30.6454 33.7672V33.7672Z" fill="#B85858"/>
<path d="M34.4233 23.4821C34.46 23.5798 34.4559 23.6572 34.3337 23.6817C34.3237 23.6432 34.3272 23.6024 34.3435 23.5661C34.3598 23.5299 34.3879 23.5002 34.4233 23.4821V23.4821Z" fill="#B85858"/>
<path d="M34.0477 24.4366C34.0584 24.4558 34.0649 24.4771 34.0665 24.499C34.0682 24.521 34.065 24.543 34.0572 24.5636C34.0495 24.5841 34.0373 24.6028 34.0216 24.6181C34.0058 24.6335 33.9869 24.6452 33.9662 24.6525C33.9513 24.6128 33.9514 24.569 33.9664 24.5293C33.9813 24.4896 34.0102 24.4567 34.0477 24.4366V24.4366Z" fill="#B85858"/>
<path d="M75.4168 48.2975C75.3995 48.2898 75.3839 48.2785 75.3713 48.2644C75.3586 48.2503 75.3491 48.2336 75.3433 48.2155C75.3375 48.1974 75.3356 48.1783 75.3378 48.1595C75.3399 48.1406 75.346 48.1224 75.3557 48.1061C75.4413 48.1468 75.4494 48.2161 75.4168 48.2975Z" fill="#B85858"/>
<path d="M29.2522 37.8854C29.3214 37.975 29.3214 38.0483 29.1952 38.0809C29.1825 38.0465 29.1811 38.0089 29.1914 37.9737C29.2017 37.9385 29.223 37.9076 29.2522 37.8854V37.8854Z" fill="#B85858"/>
<path d="M74.9555 46.7073C74.9376 46.7009 74.9213 46.6906 74.9078 46.6772C74.8943 46.6638 74.8838 46.6476 74.8772 46.6297C74.8706 46.6119 74.868 46.5928 74.8696 46.5738C74.8712 46.5548 74.8769 46.5364 74.8863 46.5199C74.9759 46.5566 74.9841 46.6258 74.9555 46.7073Z" fill="#B85858"/>
<path d="M74.5763 45.4407C74.4786 45.404 74.4663 45.3429 74.5193 45.2615C74.5355 45.2688 74.55 45.2794 74.5618 45.2926C74.5736 45.3058 74.5825 45.3214 74.5878 45.3383C74.5932 45.3553 74.595 45.3731 74.593 45.3908C74.591 45.4084 74.5853 45.4254 74.5763 45.4407V45.4407Z" fill="#B85858"/>
<path d="M37.3359 16.3616C37.3848 16.4593 37.3847 16.5327 37.2544 16.553C37.245 16.5166 37.248 16.4781 37.2627 16.4435C37.2774 16.4089 37.3031 16.3801 37.3359 16.3616Z" fill="#B85858"/>
<path d="M65.8203 71.8732C65.9059 71.8732 65.9751 71.8732 65.971 71.975C65.9544 71.9785 65.9373 71.9787 65.9206 71.9755C65.9039 71.9722 65.8881 71.9656 65.874 71.9561C65.8599 71.9466 65.8479 71.9344 65.8387 71.9201C65.8295 71.9059 65.8232 71.8899 65.8203 71.8732V71.8732Z" fill="#B85858"/>
<path d="M36.1031 19.2993C36.1357 19.393 36.1234 19.4663 36.0175 19.503C36.0036 19.4645 36.0047 19.4222 36.0205 19.3844C36.0364 19.3467 36.0658 19.3163 36.1031 19.2993Z" fill="#B85858"/>
<path d="M27.6016 43.0168C27.6464 43.0983 27.6831 43.1798 27.5324 43.1839C27.5262 43.1523 27.5294 43.1196 27.5417 43.0899C27.554 43.0601 27.5749 43.0347 27.6016 43.0168V43.0168Z" fill="#B85858"/>
<path d="M31.9598 30.0448C31.9924 30.1059 31.9802 30.1466 31.9068 30.1589C31.9023 30.1479 31.9002 30.1362 31.9004 30.1244C31.9007 30.1126 31.9034 30.101 31.9083 30.0902C31.9133 30.0795 31.9205 30.0699 31.9293 30.0621C31.9382 30.0543 31.9486 30.0484 31.9598 30.0448V30.0448Z" fill="#B85858"/>
<path d="M32.1496 29.499C32.1557 29.5115 32.1591 29.5251 32.1597 29.539C32.1603 29.5529 32.158 29.5667 32.1531 29.5797C32.1481 29.5927 32.1405 29.6045 32.1309 29.6144C32.1212 29.6244 32.1095 29.6322 32.0967 29.6375C32.0856 29.6121 32.085 29.5834 32.0949 29.5575C32.1048 29.5316 32.1244 29.5106 32.1496 29.499V29.499Z" fill="#B85858"/>
<path d="M64.6338 71.0636C64.6459 71.06 64.6586 71.059 64.6711 71.0609C64.6836 71.0627 64.6956 71.0673 64.7061 71.0743C64.7166 71.0813 64.7255 71.0906 64.732 71.1014C64.7385 71.1122 64.7425 71.1244 64.7438 71.1369C64.7317 71.1399 64.7191 71.1403 64.7069 71.1382C64.6947 71.1361 64.683 71.1314 64.6726 71.1245C64.6623 71.1176 64.6535 71.1086 64.6468 71.0981C64.6401 71.0877 64.6357 71.0759 64.6338 71.0636Z" fill="#B85858"/>
<path d="M31.685 30.7695C31.6904 30.7818 31.6933 30.7951 31.6936 30.8085C31.6938 30.8219 31.6914 30.8353 31.6865 30.8478C31.6816 30.8603 31.6743 30.8716 31.6649 30.8813C31.6556 30.8909 31.6444 30.8986 31.6321 30.9039C31.6261 30.8917 31.6227 30.8784 31.6222 30.8648C31.6216 30.8513 31.6239 30.8377 31.6289 30.825C31.6339 30.8124 31.6414 30.8009 31.6511 30.7914C31.6608 30.7818 31.6723 30.7744 31.685 30.7695V30.7695Z" fill="#B85858"/>
<path d="M38.0607 14.7017C38.0681 14.7144 38.0724 14.7288 38.0732 14.7435C38.074 14.7582 38.0713 14.7729 38.0653 14.7864C38.0594 14.7999 38.0503 14.8118 38.0389 14.8212C38.0275 14.8305 38.014 14.837 37.9996 14.8402C37.9901 14.8136 37.9912 14.7845 38.0025 14.7587C38.0139 14.733 38.0347 14.7125 38.0607 14.7017V14.7017Z" fill="#B85858"/>
<path d="M33.8567 24.8938H33.9104C33.9104 24.9434 33.8732 24.9186 33.8525 24.8938H33.8567Z" fill="#B85858"/>
<path d="M74.7705 46.0764C74.7602 46.0743 74.7504 46.0699 74.742 46.0635C74.7337 46.0571 74.7269 46.0489 74.7222 46.0395C74.7174 46.03 74.7149 46.0197 74.7148 46.0091C74.7148 45.9986 74.7171 45.9881 74.7216 45.9786C74.7827 45.9786 74.799 46.0275 74.7705 46.0764Z" fill="#B85858"/>
<path d="M30.8021 33.2578L30.855 33.2985H30.7939C30.7903 33.2919 30.7892 33.2842 30.7907 33.2767C30.7922 33.2693 30.7962 33.2626 30.8021 33.2578V33.2578Z" fill="#B85858"/>
<path d="M75.6812 49.1598C75.616 49.1312 75.5997 49.0905 75.6364 49.0294C75.6582 49.0422 75.6747 49.0624 75.6829 49.0863C75.6911 49.1102 75.6905 49.1363 75.6812 49.1598V49.1598Z" fill="#B85858"/>
<path d="M32.0849 29.6688C32.0924 29.6938 32.0908 29.7206 32.0803 29.7445C32.0699 29.7683 32.0513 29.7877 32.0279 29.7992C32.022 29.787 32.0188 29.7737 32.0186 29.7602C32.0183 29.7467 32.021 29.7333 32.0264 29.7209C32.0318 29.7085 32.0399 29.6974 32.05 29.6885C32.0601 29.6795 32.072 29.6728 32.0849 29.6688V29.6688Z" fill="#B85858"/>
<path d="M31.9916 29.9351L32.0364 29.9676L31.9712 30.0002C31.9549 29.9717 31.959 29.9473 31.9916 29.9351Z" fill="#B85858"/>
<path d="M31.9063 30.1576C31.9124 30.1677 31.916 30.1791 31.9167 30.1909C31.9175 30.2027 31.9154 30.2146 31.9106 30.2254C31.9058 30.2362 31.8984 30.2456 31.8892 30.253C31.8799 30.2603 31.869 30.2654 31.8574 30.2676C31.833 30.1983 31.8329 30.1739 31.9063 30.1576Z" fill="#B85858"/>
<path d="M36.7412 71.1237L36.8308 71.0463C36.8308 71.1074 36.8023 71.1318 36.7412 71.1237Z" fill="#B85858"/>
<path d="M33.8887 49.1213C34.0779 48.517 34.3175 47.9296 34.6048 47.3653C35.5071 45.2695 36.4053 43.1737 37.3682 41.1102C37.9428 39.8964 38.4323 38.6422 38.9866 37.4283C39.982 35.3001 40.9773 33.1719 41.9524 31.0357C42.6159 29.571 43.2957 28.1185 44.0401 26.6943C44.7482 25.3308 45.3955 23.9389 46.1562 22.6078C46.6336 21.7703 47.0827 20.9085 47.5885 20.0831C47.8922 19.6288 48.1717 19.1588 48.426 18.6751C48.71 18.2078 49.0292 17.7628 49.3808 17.344C49.5983 16.9976 49.8579 16.6796 50.1536 16.3972C50.3123 16.2494 50.5224 16.1692 50.7392 16.1738C50.956 16.1783 51.1625 16.2672 51.3148 16.4215C51.8637 17.0732 52.364 17.7642 52.8119 18.489C53.2165 19.1202 53.6211 19.7271 53.9893 20.3785C54.491 21.2767 55.0331 22.1547 55.5065 23.065C56.1984 24.3961 56.9105 25.7151 57.5538 27.0746C58.0555 28.1387 58.6341 29.1664 59.1277 30.2386C59.3219 30.6432 59.6375 30.9911 59.86 31.3836C60.1696 31.9414 60.44 32.52 60.6692 33.1153C60.7121 33.3028 60.6868 33.4995 60.5978 33.67C60.5088 33.8405 60.362 33.9738 60.1837 34.0459C59.4676 34.3898 58.8161 34.8551 58.1081 35.2152C57.663 35.4418 57.2584 35.725 56.8215 35.9596C56.1842 36.313 55.5681 36.7035 54.9765 37.1289C54.6285 37.3758 54.2158 37.5335 53.8436 37.7561C53.4714 37.9786 53.1194 38.0312 52.8847 38.3832C52.7939 38.48 52.6774 38.5487 52.5489 38.5815C51.9506 38.8361 51.3809 39.1535 50.8496 39.5282C50.4045 39.8155 49.9068 40.0704 49.4456 40.3374C48.7011 40.7663 47.9121 41.1183 47.192 41.5998C46.4773 42.085 45.7187 42.5022 44.9262 42.846C44.3355 43.0968 43.8378 43.5459 43.2511 43.8008C42.2156 44.2703 41.209 44.8013 40.2369 45.3909L37.9387 46.7544C36.7465 47.4692 35.5516 48.1813 34.354 48.8907C34.2609 48.9635 34.1152 49.0161 33.8887 49.1213ZM55.7371 36.2105C55.7048 36.1174 55.6764 36.0163 55.636 35.9192C55.195 34.8753 54.758 33.8315 54.3048 32.7957C53.2084 30.2871 52.12 27.7705 50.9386 25.3025C50.886 25.1892 50.8698 25.0111 50.7079 25.0192C50.5461 25.0273 50.5542 25.1892 50.5056 25.2903C50.1981 25.9458 49.8906 26.6012 49.5953 27.2648C48.5959 29.4982 47.5723 31.7154 46.6174 33.9771C45.2903 37.1168 44.0199 40.2808 42.7292 43.4326C42.6726 43.5742 42.5431 43.7401 42.7009 43.8656C42.8587 43.991 42.972 43.8251 43.1055 43.7563C44.38 43.0118 45.6464 42.2593 46.9209 41.5189C49.7531 39.8681 52.5853 38.1566 55.4499 36.5423C55.547 36.4775 55.729 36.4168 55.7331 36.2105H55.7371Z" fill="#B85858"/>
<path d="M74.4425 45.6509C74.4451 45.6603 74.4451 45.6704 74.4425 45.6798C74.4425 45.6798 74.4425 45.6798 74.4218 45.7046C74.4011 45.7294 74.4425 45.6674 74.4425 45.6509Z" fill="#B85858"/>
</svg>
