<svg width="102" height="79" viewBox="0 0 102 79" fill="none" xmlns="http://www.w3.org/2000/svg">
<path d="M51.1676 5.21962C60.7638 5.21962 70.3659 5.21962 79.9622 5.21962C81.5419 5.21962 82.261 5.33081 82.0547 7.28542C81.0644 16.7483 80.2392 26.2287 79.3845 35.7092C78.7243 42.9833 78.1231 50.2575 77.4806 57.5317C77.2035 60.6918 76.8911 63.8461 76.6082 67.0063C76.5375 67.8373 76.119 68.1065 75.388 68.2996C67.5287 70.3869 59.6694 72.5034 51.8101 74.6491C51.2402 74.7686 50.6474 74.7177 50.1066 74.5028C42.5027 72.4663 34.946 70.342 27.348 68.3698C26.0512 68.0362 25.7918 67.4979 25.6857 66.2865C24.8723 57.0986 23.9174 47.9284 23.0863 38.7464C22.4202 31.4722 21.8484 24.1922 21.2177 16.918C20.9407 13.6876 20.7579 10.4339 20.2628 7.2386C19.9504 5.24303 20.8522 5.17281 22.3671 5.18451C31.9693 5.24303 41.5655 5.21962 51.1676 5.21962ZM52.0871 33.2571L52.0105 32.8767C56.4491 31.0392 60.8522 29.1021 65.3262 27.405C68.2145 26.3107 70.8493 25.2748 70.1361 21.4066C70.1278 20.8884 70.2054 20.3723 70.3659 19.8792C70.643 18.2757 70.0948 17.7139 68.35 17.7256C57.7812 17.8075 47.2124 17.7666 36.6436 17.7666C31.1381 17.7666 31.3385 17.7666 32.1048 23.1447C32.4408 25.427 33.3545 25.7254 35.3409 25.6552C40.6459 25.4679 45.9156 25.7196 51.256 25.5206C46.8882 27.604 42.4909 29.5059 38.0641 31.3318C32.9772 33.4327 33.0656 33.3917 33.5902 38.9395C33.7494 40.6952 34.386 40.9292 35.9127 40.9175C43.5048 40.8473 51.0969 40.9175 58.689 40.8532C60.1213 40.8532 60.7049 41.2043 60.5516 42.72C60.3099 45.0608 60.1685 47.4017 60.0977 49.7835C60.0624 50.9013 59.2784 51.0827 58.5357 51.346C54.2563 52.8793 49.9651 54.2077 45.5089 51.902C45.1056 51.7112 44.6696 51.598 44.2239 51.5684C43.0863 51.4689 42.7326 50.9188 42.4968 49.7601C42.2021 48.2678 42.9978 46.1786 41.7305 45.4178C40.5516 44.7214 38.6949 45.2188 37.1328 45.1954C36.6848 45.1954 36.231 45.2364 35.7948 45.1954C34.7161 45.0667 34.4037 45.4471 34.5098 46.5531C34.7927 49.4792 34.9342 52.4404 35.1346 55.384C35.1186 55.8594 35.281 56.3238 35.5903 56.6871C35.8996 57.0504 36.3338 57.2867 36.8086 57.3503C41.1705 58.5207 45.4853 59.8667 49.8119 61.16C50.5849 61.41 51.4146 61.4303 52.1991 61.2185L65.8979 57.4556C66.617 57.2567 67.2124 57.0635 67.2949 56.0511C67.8372 49.0598 68.4267 42.0724 69.0633 35.0888C69.1988 33.6258 68.7332 33.2045 67.236 33.2337C62.1785 33.2922 57.121 33.2571 52.0871 33.2571Z" fill="#109DC9"/>
</svg>
