<svg width="102" height="80" viewBox="0 0 102 80" fill="none" xmlns="http://www.w3.org/2000/svg">
<path d="M38.4442 28.5603C37.3884 28.2711 36.2992 28.1259 35.2727 27.7023C32.9973 26.7698 31.0803 25.1226 29.8058 23.0048C28.5312 20.8871 27.9669 18.4115 28.1965 15.9448C28.6658 10.9691 32.3692 6.85271 37.2617 5.83202C37.5283 5.77823 37.8363 5.84143 38.0456 5.59668H51.1101C51.1034 5.93153 51.0914 6.26907 51.0914 6.60258C51.0914 13.6251 51.0954 20.6475 51.1034 27.67C51.1034 28.2765 50.9501 28.4688 50.3289 28.4634C46.9148 28.4325 43.5007 28.4473 40.0866 28.4513C39.7346 28.4513 39.376 28.4043 39.0334 28.5347L38.4442 28.5603Z" fill="#F05123"/>
<path d="M38.9902 29.0483C39.3374 28.9108 39.7007 28.9644 40.0573 28.963C43.5167 28.963 46.976 28.9438 50.4354 28.9754C51.0649 28.9754 51.2215 28.7843 51.2202 28.1642C51.2004 20.9845 51.1963 13.8048 51.208 6.6251C51.208 6.28138 51.2202 5.93765 51.2269 5.59668H64.5997C64.4916 5.91978 64.7753 5.82354 64.8941 5.85379C69.7448 7.07469 72.7584 10.1586 73.8309 15.1206C75.1682 21.3076 70.8187 27.7834 64.678 28.8311C64.216 28.9094 63.7527 28.9905 63.2921 29.0703C62.5397 29.1432 61.7711 28.9823 61.0242 29.1981C60.9445 29.0524 60.8013 29.0607 60.6703 29.0607C57.5067 29.0662 54.3441 29.0735 51.1824 29.0827L38.9902 29.0483Z" fill="#F37363"/>
<path d="M37.4333 75.1213C37.5583 74.7028 37.1941 74.8818 37.0624 74.8522C33.728 74.0003 31.1718 72.1095 29.5362 69.0763C25.8242 62.2197 29.9004 53.7901 37.5865 52.3717C37.8929 52.3152 38.2021 52.2761 38.5112 52.2277C38.9816 52.3273 39.4425 52.1631 39.9062 52.1617C43.6209 52.1617 47.337 52.1617 51.0517 52.1712C51.0651 53.7376 51.0987 55.3054 51.088 56.8718C51.0692 59.4287 51.1834 61.9789 51.0235 64.529C50.7224 69.3293 47.2604 73.501 42.5968 74.7445C42.3159 74.8198 41.8536 74.6288 41.738 75.1253H41.3348C41.1561 74.8912 40.9773 74.98 40.7973 75.1253L37.4333 75.1213Z" fill="#47B97B"/>
<path d="M50.9322 52.0713C47.2366 52.0713 43.5396 52.0561 39.844 52.0616C39.3827 52.0616 38.9241 52.2311 38.4561 52.1291C37.1605 51.7641 35.8315 51.5602 34.6201 50.9209C31.0729 49.0432 28.9081 46.1212 28.2851 42.0392C27.3491 35.9266 31.2453 30.1405 37.2019 28.7917C37.5696 28.7091 37.9427 28.654 38.313 28.5865L38.9 28.5603L50.963 28.5961C50.9764 28.8455 51.0004 29.0948 51.0004 29.3456C51.0004 32.156 51.0004 34.9668 51.0004 37.7782C51.0004 38.0468 50.9376 38.3292 51.1101 38.5758C50.9653 39.7084 50.9581 40.8552 51.0887 41.9896C50.971 42.2748 50.9978 42.5751 50.9978 42.8727C50.9978 45.6932 50.9978 48.5137 50.9978 51.3342C51.0018 51.5794 51.066 51.8357 50.9322 52.0713Z" fill="#8E64AA"/>
<path d="M51.2055 42.0421C51.0703 40.9014 51.0777 39.7482 51.2277 38.6093C51.661 33.7981 56.2438 29.2197 61.1574 28.6891C61.923 28.4716 62.7108 28.6337 63.482 28.5603C69.3038 28.8886 73.9184 33.2482 74.6301 39.0886C75.3763 45.2089 70.8642 51.0646 64.7571 52.0122C61.7631 52.4929 58.699 51.8052 56.1971 50.0909C53.6952 48.3767 51.9466 45.7667 51.3121 42.7999C51.2651 42.545 51.2429 42.2928 51.2055 42.0421Z" fill="#42B7E9"/>
</svg>
