<svg width="103" height="79" viewBox="0 0 103 79" fill="none" xmlns="http://www.w3.org/2000/svg">
<path d="M20.5547 5.20407C20.588 5.53419 20.6135 5.83872 20.6391 6.14326C20.9027 9.0939 21.1586 12.0471 21.4248 14.9952C21.7626 18.7443 22.1029 22.5011 22.4356 26.2476C22.7171 29.4004 22.9961 32.5609 23.275 35.7163C23.5923 39.2709 23.9122 42.8229 24.2296 46.3801C24.5085 49.5303 24.7874 52.6934 25.0689 55.8487C25.4119 59.6925 25.7599 63.5312 26.0875 67.3749C26.1079 67.6232 26.1873 67.7281 26.4329 67.7946C34.5632 70.0876 42.6884 72.3831 50.8084 74.6709C51.0131 74.7273 51.2588 74.7247 51.4635 74.6709C59.6194 72.3831 67.7727 70.0927 75.9286 67.8074C76.2075 67.7281 76.2945 67.6078 76.3124 67.334C76.4865 65.192 76.6861 63.0526 76.8729 60.9132C77.0827 58.5537 77.2977 56.1891 77.5075 53.8245C77.6969 51.7107 77.8812 49.602 78.0731 47.4856C78.2881 45.121 78.4979 42.7564 78.7078 40.3943C78.892 38.283 79.0814 36.1743 79.2733 34.058C79.4832 31.7036 79.693 29.3492 79.9029 26.9948C80.0922 24.8759 80.2765 22.757 80.4736 20.6329C80.6834 18.2785 80.8932 15.9242 81.1031 13.5698C81.2925 11.4252 81.4818 9.2756 81.684 7.12851C81.7377 6.48874 81.7915 5.84384 81.8529 5.18359C61.4031 5.20407 41.0045 5.20407 20.5547 5.20407ZM69.7458 25.5669C59.97 25.5669 50.1993 25.5669 40.3929 25.5669C40.6232 28.2104 40.8509 30.8284 41.0761 33.454C50.4143 33.454 59.7243 33.454 69.0676 33.454C68.9985 34.0093 68.9115 34.534 68.8629 35.0637C68.7324 36.397 68.607 37.7328 68.4893 39.061C68.2743 41.4743 68.0645 43.9028 67.8546 46.3161C67.6704 48.4862 67.4835 50.6435 67.289 52.8136C67.1688 54.1828 67.0331 55.5519 66.918 56.9184C66.8975 57.1334 66.7593 57.1385 66.6339 57.1769C63.325 58.088 60.0212 59.0016 56.7123 59.9075C54.8979 60.4116 53.086 60.9209 51.2691 61.4199C51.1872 61.4455 51.0746 61.4301 50.9876 61.402C45.854 59.9919 40.723 58.5767 35.5945 57.1718C35.3591 57.1129 35.354 56.9671 35.3386 56.7982C35.2081 55.1501 35.0776 53.5148 34.9548 51.8668C34.7833 49.6557 34.6093 47.4421 34.4353 45.2285C34.4301 45.1722 34.4301 45.1031 34.425 45.0237C36.9585 45.0237 39.4869 45.0237 42.0281 45.0237C42.0921 45.7428 42.1612 46.4619 42.2226 47.1683C42.3352 48.4222 42.4478 49.6736 42.5553 50.9353C42.5655 51.0786 42.609 51.1349 42.7472 51.1758C45.5008 51.9103 48.2493 52.655 51.008 53.3946C51.1053 53.4227 51.223 53.4099 51.3228 53.3843C54.0406 52.655 56.7558 51.9154 59.4787 51.1937C59.6424 51.1451 59.7141 51.0709 59.7295 50.9045C60.0289 47.6954 60.3334 44.4812 60.6431 41.2746C60.6431 41.2644 60.6379 41.2516 60.6328 41.2158C51.7706 41.2158 42.9033 41.2158 34.0156 41.2158C33.3169 33.4591 32.626 25.7306 31.9325 17.9791C44.792 17.9791 57.5952 17.9791 70.4649 17.9791C70.232 20.5075 69.9863 23.0231 69.7458 25.5669Z" fill="#E45127"/>
</svg>
