<svg width="102" height="80" viewBox="0 0 102 80" fill="none" xmlns="http://www.w3.org/2000/svg">
<path d="M14.3441 68.3387H26.9492C27.2857 68.3387 27.5809 68.1142 27.6712 67.7898L31.3473 54.5374H45.6184L49.6068 67.8054C49.7021 68.1221 49.9936 68.3387 50.3243 68.3387H63.4075C63.41 68.3387 63.4123 68.3387 63.4135 68.3387C63.8272 68.3387 64.1625 68.0034 64.1625 67.5897C64.1625 67.4791 64.1392 67.3742 64.0957 67.2799L47.4497 13.5982C47.3527 13.2849 47.0624 13.0709 46.7341 13.0709H30.7785C30.4489 13.0709 30.1584 13.286 30.0622 13.6009L13.6282 67.3707C13.5593 67.5978 13.6012 67.8443 13.7423 68.0351C13.8836 68.226 14.1065 68.3387 14.3441 68.3387ZM43.4198 43.9445H33.5208L36.446 33.4885C36.9772 31.6045 37.4792 29.375 37.9648 27.219C38.0759 26.7238 38.1852 26.2379 38.2936 25.7628C38.9362 28.3458 39.6429 31.1363 40.3515 33.4964L43.4198 43.9445Z" fill="#F27226"/>
<path d="M69.7031 27.8296C69.2894 27.8296 68.9541 28.1648 68.9541 28.5786V67.5896C68.9541 68.0033 69.2894 68.3385 69.7031 68.3385H81.8292C82.2429 68.3385 82.5781 68.0033 82.5781 67.5896V28.5786C82.5781 28.1648 82.2429 27.8296 81.8292 27.8296H69.7031Z" fill="#F27226"/>
<path d="M75.687 24.5404C79.9117 24.5404 82.9777 21.6756 82.9777 17.7115C82.8856 13.6636 79.9204 10.8364 75.7668 10.8364C73.6463 10.8364 71.7636 11.5681 70.4652 12.8969C69.2468 14.1432 68.5976 15.8585 68.6354 17.7283C68.5968 19.5386 69.2475 21.2231 70.4685 22.4736C71.7698 23.8063 73.6232 24.5404 75.687 24.5404Z" fill="#F27226"/>
</svg>
