<svg width="103" height="80" viewBox="0 0 103 80" fill="none" xmlns="http://www.w3.org/2000/svg">
<path d="M78.9564 40.4438C78.9564 47.1806 78.9673 53.9184 78.9506 60.6562C78.9447 63.1963 79.0606 65.7304 79.2256 68.2636C79.2737 69.0077 79.1598 69.168 78.4653 69.4589C73.1476 71.6623 67.596 72.5857 61.8795 72.3945C57.6942 72.255 53.7212 71.1991 50.2244 68.7706C46.2052 65.9814 43.8282 62.0627 42.9746 57.2156C42.3175 53.4881 42.2144 49.7446 43.3322 46.0849C45.5422 38.841 50.3335 34.1892 57.4438 31.9997C60.6851 31.0036 64.0247 30.7635 67.3967 31.0563C68.0066 31.1091 68.0066 31.1062 68.0066 30.4886C68.0066 25.5438 68.0066 20.5987 68.0066 15.6533C68.0066 14.8663 68.0616 14.8096 68.8494 14.8096H78.1805C78.9044 14.8096 78.9594 14.8614 78.9594 15.6065L78.9564 40.4438ZM68.0017 51.5197C68.0017 48.0173 67.9958 44.515 68.0115 41.0136C68.0115 40.6341 67.8946 40.5056 67.5391 40.4408C65.3232 40.0424 63.1318 40.1081 61.0043 40.8662C58.1048 41.8992 55.7986 43.7101 54.5875 46.6288C53.4402 49.389 53.4609 52.2897 54.1248 55.1795C54.668 57.5443 55.7475 59.6062 57.7807 60.9948C60.8393 63.0867 64.2565 62.9971 67.7149 62.5518C68.0469 62.509 68.0027 62.2529 68.0027 62.0268C68.002 58.5238 68.0017 55.0214 68.0017 51.5197Z" fill="#EE3968"/>
<path d="M23.6201 45.5706V21.0413C23.6201 20.8618 23.6201 20.6832 23.6201 20.5047C23.6437 19.9476 23.7769 19.7895 24.3217 19.7876C27.5054 19.7778 30.691 19.7798 33.8727 19.7759C34.2215 19.7759 34.4253 19.9515 34.4969 20.2744C34.5298 20.4494 34.5436 20.6273 34.538 20.8052C34.538 37.32 34.538 53.8357 34.538 70.3525C34.538 71.2901 34.4008 71.4257 33.4729 71.4257H24.6539C23.7289 71.4257 23.6133 71.3174 23.6133 70.3915C23.6133 63.7758 23.6133 57.1598 23.6133 50.5435L23.6201 45.5706Z" fill="#EE3968"/>
</svg>
