<svg width="102" height="79" viewBox="0 0 102 79" fill="none" xmlns="http://www.w3.org/2000/svg">
<path d="M27.5006 18.5071C26.128 21.7556 25.454 25.2566 25.5224 28.7825C25.6947 37.232 28.9677 44.3952 34.8418 50.3153C44.4397 59.9677 55.9238 63.4847 69.2712 60.0452C73.6036 58.9284 77.2728 56.5483 80.3534 53.0686C80.5544 53.683 80.2386 53.9988 80.0663 54.3175C75.0506 62.9306 67.6003 67.6219 57.6723 68.7875C39.5101 70.9207 23.7653 57.1282 20.5785 42.0582C18.9248 34.249 20.0617 27.0771 25.3243 20.8125C25.9387 20.0833 26.5072 19.3138 27.1015 18.5674C27.1216 18.5473 27.1876 18.5559 27.5006 18.5071Z" fill="#0E6AAE"/>
<path d="M42.8635 14.2349C41.583 18.9205 41.5802 23.5744 43.5526 28.0619C47.4313 36.8788 54.2012 42.0869 63.6756 43.7406C63.901 43.8016 64.1209 43.8813 64.3331 43.9789C66.1004 44.5 67.9806 44.5 69.7479 43.9789C72.1567 43.4305 74.5597 42.8793 76.7532 41.6591C78.7908 40.501 80.6036 38.9858 82.1048 37.186C81.9928 38.2569 81.5622 38.8799 81.1861 39.4828C77.4537 45.5522 71.9729 48.5266 64.9418 49.2845C53.0643 50.565 42.8147 42.44 39.5101 33.379C36.9549 26.3679 37.7043 19.7847 42.6109 13.9163L42.8635 14.2349Z" fill="#0E6AAE"/>
<path d="M56.4063 10.1497C55.189 17.0976 57.6236 22.3085 63.0097 25.9001C68.235 29.3885 73.8765 30.2871 79.6301 26.7615C77.3333 30.4651 73.9139 32.1332 69.6734 32.2365C66.5287 32.2942 63.4371 31.4217 60.7866 29.7284C58.1362 28.0352 56.045 25.5967 54.7756 22.7191C52.8835 18.447 53.4434 13.3279 56.4063 10.1497Z" fill="#0E6AAE"/>
</svg>
