<svg width="102" height="79" viewBox="0 0 102 79" fill="none" xmlns="http://www.w3.org/2000/svg">
<path d="M66.0519 36.4602C65.5471 40.8623 64.617 45.2037 63.2749 49.4222C62.9802 50.1984 62.4239 50.8443 61.7043 51.2459C57.7737 53.2608 53.5844 54.7108 49.2576 55.5538C48.4488 55.6747 47.6236 55.5053 46.9253 55.0751C43.3529 52.6274 40.0924 49.7433 37.2177 46.488C36.8708 46.1261 36.6063 45.6918 36.4429 45.2155C36.2794 44.7392 36.221 44.2325 36.2716 43.731C36.5755 39.2844 37.4371 34.895 38.8357 30.6685C39.1441 29.9001 39.7103 29.2663 40.4347 28.8783C44.3555 26.8533 48.5443 25.4104 52.8719 24.5943C53.6143 24.4727 54.3755 24.6166 55.0244 25.0012C58.7903 27.5234 62.1872 30.5687 65.1152 34.0478C65.6403 34.6461 65.7491 35.6369 66.0519 36.4602Z" fill="#323232"/>
<path d="M50.7891 71.7297C47.0545 71.6765 43.3547 71.0166 39.8399 69.7767C39.3265 69.6231 38.8604 69.346 38.4838 68.9707C38.1072 68.5954 37.832 68.1337 37.6834 67.6275C36.0079 62.4743 35.1082 57.1085 35.0127 51.7001C35.063 51.3292 35.1672 50.9673 35.3221 50.6255C35.7086 50.7456 36.0745 50.922 36.4075 51.1488C44.5773 59.1346 55.0084 64.5203 66.3417 66.6043C66.6899 66.7334 67.0122 66.9216 67.2938 67.1603C67.0511 67.4313 66.8606 67.8051 66.556 67.9686C61.7072 70.506 56.2836 71.7998 50.7891 71.7297V71.7297Z" fill="#6CA8FF"/>
<path d="M18.8994 37.7709C19.1903 31.4569 21.4851 25.3935 25.4584 20.4401C26.8787 18.6234 28.6758 17.0884 30.2754 15.4443C30.6257 15.0885 31.0678 14.834 31.5538 14.7084C32.0398 14.5827 32.5514 14.5906 33.0332 14.7313C38.1995 15.8233 43.1754 17.6595 47.8013 20.1812C48.1234 20.4127 48.4152 20.6827 48.6701 20.9851C48.3595 21.2635 48.0076 21.4932 47.6267 21.6663C36.9776 24.539 27.4418 30.494 20.2461 38.7655C19.9266 39.0424 19.5692 39.2733 19.1843 39.4513C19.0786 39.0516 18.9637 38.6474 18.8764 38.2432C18.8663 38.0854 18.874 37.927 18.8994 37.7709V37.7709Z" fill="#6CA8FF"/>
<path d="M83.3731 42.4766C82.7226 51.1444 79.1126 58.3296 72.7265 64.2101C71.4346 65.3962 70.161 65.7885 68.4202 65.3506C63.5162 64.1765 58.7923 62.3538 54.3743 59.9309C54.0909 59.707 53.8423 59.4426 53.6367 59.1463C53.9091 58.9021 54.2183 58.7019 54.553 58.5532C65.2786 55.6686 74.8797 49.6264 82.0995 41.2175C82.4006 40.9856 82.7402 40.808 83.1028 40.6929C83.2323 41.0579 83.3424 41.4295 83.4326 41.806C83.4415 42.0312 83.4215 42.2565 83.3731 42.4766V42.4766Z" fill="#6CA8FF"/>
<path d="M70.573 32.1216C70.5817 25.7394 69.4907 19.3998 67.3441 13.36C67.2772 12.9547 67.2772 12.5418 67.3441 12.1365C67.7459 12.1847 68.138 12.2897 68.5078 12.4481C76.6159 17.4891 81.4713 24.6518 83.3457 33.7255C83.4764 34.2592 83.4627 34.8162 83.3057 35.3432C83.1487 35.8703 82.8538 36.35 82.449 36.7364C78.7966 40.599 74.5773 43.929 69.9244 46.6213C69.5169 46.7754 69.0876 46.8696 68.6509 46.9008C68.5938 46.5101 68.5938 46.1137 68.6509 45.723C69.8722 41.2826 70.5178 36.7142 70.573 32.1216V32.1216Z" fill="#6CA8FF"/>
<path d="M18.8721 44.2652C19.1871 43.6463 19.3799 42.9265 19.8126 42.4314C23.4847 38.4091 27.7665 34.9584 32.5095 32.1989C32.8578 32.0746 33.2249 32.008 33.5957 32.0017C33.6686 32.3516 33.6861 32.7103 33.6475 33.0653C30.7059 43.8297 31.1714 55.2096 34.983 65.7115C35.0346 66.0627 35.0187 66.4203 34.936 66.7659C34.6019 66.7692 34.2702 66.7116 33.9578 66.5963C25.7754 61.5258 20.9318 54.2686 19.1166 45.0492C19.0743 44.8291 19.0649 44.5907 19.0414 44.3707L18.8721 44.2652Z" fill="#6CA8FF"/>
<path d="M51.1842 7.45159C55.023 7.45004 58.8332 8.09048 62.4476 9.34478C62.9636 9.49243 63.4333 9.76284 63.814 10.1314C64.1948 10.4999 64.4746 10.9549 64.6279 11.455C66.3038 16.5526 67.202 21.8605 67.2938 27.2102C67.247 27.5773 67.1477 27.9363 66.9987 28.2768C66.6086 28.1641 66.2391 27.9927 65.9038 27.7689C57.8094 19.9281 47.4678 14.6342 36.2266 12.5771C36.1264 12.5675 36.0284 12.5426 35.9362 12.5032C35.622 12.3139 35.3221 12.1107 35.0127 11.9168C35.2412 11.6628 35.4221 11.298 35.7077 11.178C37.8976 10.2822 40.0493 9.1924 42.3296 8.62444C45.2097 7.90872 48.1994 7.6363 51.1414 7.16992L51.1842 7.45159Z" fill="#6CA8FF"/>
</svg>
