<svg width="25" height="12" viewBox="0 0 25 12" fill="none" xmlns="http://www.w3.org/2000/svg">
<path d="M7.32001 9.592C7.32001 10.176 7.19201 10.596 6.93601 10.852C6.68001 11.108 6.26001 11.236 5.67601 11.236H0.540013V9.496H4.86001C5.04401 9.496 5.16801 9.464 5.23201 9.4C5.30401 9.328 5.34001 9.2 5.34001 9.016V8.368C5.34001 8.208 5.31601 8.056 5.26801 7.912C5.22001 7.768 5.10401 7.648 4.92001 7.552L1.62001 5.98C1.39601 5.868 1.20801 5.752 1.05601 5.632C0.904014 5.512 0.780013 5.38 0.684013 5.236C0.588013 5.084 0.520013 4.916 0.480013 4.732C0.440013 4.54 0.420013 4.316 0.420013 4.06V3.064C0.420013 1.864 1.02001 1.264 2.22001 1.264H7.02001V3.004H2.88001C2.69601 3.004 2.56801 3.04 2.49601 3.112C2.43201 3.176 2.40001 3.3 2.40001 3.484V3.748C2.40001 3.908 2.42401 4.056 2.47201 4.192C2.52001 4.328 2.63601 4.44 2.82001 4.528L6.12001 6.1C6.34401 6.212 6.53201 6.328 6.68401 6.448C6.83601 6.568 6.96001 6.704 7.05601 6.856C7.15201 7 7.22001 7.168 7.26001 7.36C7.30001 7.544 7.32001 7.764 7.32001 8.02V9.592Z" fill="#6CA8FF"/>
<path d="M10.3744 11.236H8.39439V1.264H10.3744V11.236Z" fill="#6CA8FF"/>
<path d="M21.4431 11.236H19.4871V4.504L17.4711 10.696C17.4151 10.872 17.3311 11.004 17.2191 11.092C17.1151 11.188 16.9591 11.236 16.7511 11.236H16.2711C16.0551 11.236 15.8951 11.188 15.7911 11.092C15.6871 11.004 15.6071 10.872 15.5511 10.696L13.6551 4.504V11.236H11.6991V1.864C11.6991 1.624 11.7391 1.464 11.8191 1.384C11.8991 1.304 12.0591 1.264 12.2991 1.264H13.5471C14.0591 1.264 14.3791 1.464 14.5071 1.864L16.5231 8.308L18.6351 1.864C18.7631 1.464 19.0831 1.264 19.5951 1.264H20.8431C21.0831 1.264 21.2431 1.304 21.3231 1.384C21.4031 1.464 21.4431 1.624 21.4431 1.864V11.236Z" fill="#6CA8FF"/>
<path d="M22.6176 3.736C22.8256 3.632 23.0136 3.5 23.1816 3.34C23.3496 3.18 23.4696 3 23.5416 2.8C23.5736 2.72 23.5416 2.688 23.4456 2.704C23.1896 2.728 22.9776 2.652 22.8096 2.476C22.6496 2.3 22.5696 2.08 22.5696 1.816C22.5696 1.512 22.6696 1.264 22.8696 1.072C23.0776 0.879997 23.3336 0.783997 23.6376 0.783997C23.7896 0.783997 23.9336 0.815996 24.0696 0.879996C24.2056 0.943996 24.3256 1.036 24.4296 1.156C24.5336 1.268 24.6136 1.404 24.6696 1.564C24.7336 1.716 24.7656 1.888 24.7656 2.08C24.7656 2.576 24.6096 3.02 24.2976 3.412C23.9936 3.796 23.5936 4.092 23.0976 4.3L22.6176 3.736Z" fill="#6CA8FF"/>
</svg>
