<svg width="102" height="80" viewBox="0 0 102 80" fill="none" xmlns="http://www.w3.org/2000/svg">
<path d="M16.9167 39.3639V11.5197C16.9167 10.3848 16.997 10.2092 18.1749 10.1517C20.821 10.024 23.4693 9.9458 26.1196 9.91707C29.6774 9.87397 33.2448 9.67444 36.7849 10.1916C41.5608 10.8876 45.8272 12.6003 48.9077 16.503C51.1462 19.3379 52.1457 22.6484 52.3964 26.1872C52.6664 29.999 52.3369 33.7389 50.6496 37.2474C48.4915 41.7327 44.8518 44.5117 40.2045 46.0984C36.3478 47.4152 32.3578 47.661 28.3212 47.5222C26.4362 47.4583 26.4362 47.4807 26.4362 49.3546C26.4362 55.2861 26.4362 61.2166 26.4362 67.146C26.4362 68.4612 26.4217 68.4612 25.1201 68.4612C22.737 68.4612 20.3539 68.4309 17.9724 68.4772C17.169 68.4932 16.9119 68.2681 16.9151 67.4493C16.9408 58.0848 16.9461 48.7231 16.9311 39.3639H16.9167ZM26.4234 28.7076C26.4234 29.8782 26.4234 31.0488 26.4234 32.2193C26.4234 34.2135 26.4201 36.2072 26.4137 38.2003C26.4137 38.585 26.3864 38.9777 26.9456 38.9872C30.0727 39.0479 33.2127 39.2378 36.2579 38.2705C39.4251 37.2665 41.5383 35.2377 42.4028 32.0102C42.8206 30.4523 42.8849 28.8609 42.7853 27.2615C42.4928 22.8895 39.9522 19.8583 35.6761 18.8016C32.909 18.1152 30.0984 18.3227 27.2895 18.4328C26.5696 18.4616 26.396 18.709 26.4025 19.381C26.4394 22.4872 26.4234 25.6062 26.4234 28.7076Z" fill="#0088D5"/>
<path d="M57.3051 62.2475C57.3051 61.0659 57.3051 59.8843 57.3051 58.7011C57.3051 58.3916 57.1889 58.0064 57.5326 57.8226C57.8553 57.6534 58.0763 57.9661 58.3167 58.1128C61.8663 60.2712 65.6983 61.2609 69.8465 61.0063C70.7609 60.9677 71.6596 60.7549 72.4941 60.3792C74.753 59.3137 75.4387 56.7265 73.9753 54.697C73.3218 53.7895 72.4377 53.1286 71.5244 52.5048C70.0352 51.4892 68.4298 50.6784 66.8245 49.866C65.0652 48.9983 63.4045 47.9439 61.8711 46.721C58.1053 43.6583 56.7452 39.6364 57.4761 34.9537C58.228 30.1355 61.187 27.0389 65.6773 25.3593C69.0655 24.0939 72.57 24.1084 76.0986 24.484C77.7814 24.6629 79.4449 24.937 81.0567 25.4995C81.907 25.7961 82.3023 26.2523 82.2765 27.205C82.22 29.3231 82.2765 31.4461 82.2765 33.5674C82.2765 34.9811 82.1152 35.0617 80.8696 34.4588C77.5281 32.8469 74.0172 32.1682 70.3127 32.6131C69.7802 32.6888 69.2632 32.8493 68.7816 33.0887C66.0936 34.3411 65.6628 37.2894 67.8893 39.2447C69.2721 40.4602 70.8774 41.3306 72.5022 42.1705C74.8143 43.3665 77.0925 44.6045 79.2077 46.152C86.386 51.4022 85.05 61.7961 80.0741 65.8325C77.8534 67.6398 75.1707 68.7901 72.3296 69.1531C68.0991 69.7334 63.9105 69.4594 59.8398 68.0683C57.3002 67.201 57.3067 67.1817 57.3067 64.5042L57.3051 62.2475Z" fill="#0088D5"/>
</svg>
