<svg width="102" height="79" viewBox="0 0 102 79" fill="none" xmlns="http://www.w3.org/2000/svg">
<path d="M38.3212 41.9043C38.6255 41.7259 38.9403 41.5581 39.255 41.3902C44.8885 38.5292 50.0736 34.8603 54.6462 30.4999C57.4055 27.8455 57.5314 27.216 56.0941 23.6279C56.096 23.593 56.096 23.5579 56.0941 23.5229C53.8339 18.3792 50.2721 13.9134 45.7598 10.5658C45.2562 10.1881 44.7107 9.91532 44.0707 9.51664C45.1198 20.7532 40.3357 29.5976 33.4846 37.7601L29.1201 34.833C31.1135 30.6993 33.1489 26.7334 34.9639 22.6731C36.569 19.1364 37.5521 15.3494 37.8701 11.4786C38.1639 7.5547 36.1915 5.34097 32.2676 5.18359C29.2665 5.18489 26.2969 5.79526 23.5385 6.97769C21.7864 7.65964 20.1183 8.5514 18.3662 9.36974C24.1785 16.3362 22.8776 23.9321 21.4402 31.4022C18.3557 30.6782 15.397 29.9019 12.3964 29.3038C9.805 28.7583 8.3257 29.5871 7.59128 32.0002C7.07275 33.6199 6.8982 35.33 7.07887 37.0211C7.25954 38.7121 7.79143 40.3468 8.64045 41.8204C8.68653 41.9587 8.76094 42.086 8.85897 42.194C8.95699 42.302 9.07645 42.3883 9.20973 42.4476C9.343 42.5068 9.48719 42.5376 9.63303 42.538C9.77888 42.5384 9.9232 42.5084 10.0568 42.4499C15.2102 41.3364 20.5876 41.9674 25.3431 44.2439C31.6381 47.1291 36.1495 51.9238 39.8635 57.5998C40.1258 58.009 40.3986 58.4076 40.6714 58.8168L40.9756 58.7224C40.9756 57.6733 41.112 56.5191 41.112 55.4175C41.0313 50.8374 39.9121 46.3353 37.8386 42.2505C38.059 42.1142 38.1849 42.0092 38.3212 41.9043Z" fill="#151515"/>
<path d="M97.1169 37.76C93.7595 40.7082 90.4966 43.7822 86.9924 46.5415C84.0213 49.0555 80.4749 50.7963 76.6687 51.609C75.6904 51.8667 74.6629 51.873 73.6815 51.6272C72.7002 51.3814 71.7969 50.8915 71.0557 50.2031C71.5383 49.626 72.0523 49.1539 72.451 48.5244C73.8254 46.4786 75.1893 44.4222 76.4903 42.3239C76.6792 42.0301 76.5428 41.516 76.5533 41.1068C76.1752 41.0996 75.7978 41.142 75.4307 41.2327C74.1507 41.7888 72.9022 42.4078 71.6222 42.9744C70.6243 43.4907 69.5201 43.7679 68.3967 43.7843C67.2732 43.8007 66.1614 43.5557 65.1489 43.0688C63.7478 42.4078 62.5659 41.3585 61.7439 40.0454C60.9218 38.7323 60.4941 37.2108 60.5116 35.6617C60.5522 35.1173 60.434 34.5729 60.1715 34.0943C59.9089 33.6158 59.5132 33.2236 59.0323 32.9653C54.3134 37.6856 48.9431 41.7062 43.085 44.9048C45.0469 46.6989 47.4075 46.615 49.8206 46.8143C49.38 47.3704 49.0127 47.8635 48.6665 48.2832C48.3672 48.5907 48.1998 49.0028 48.1998 49.432C48.1998 49.8611 48.3672 50.2733 48.6665 50.5808C49.9347 51.8387 51.2802 53.016 52.6953 54.106C52.8803 54.2465 53.0914 54.3491 53.3162 54.4077C53.541 54.4664 53.7752 54.48 54.0053 54.4478C54.2354 54.4156 54.4569 54.3383 54.657 54.2202C54.8571 54.1021 55.0319 53.9456 55.1713 53.7598C55.8066 53.0927 56.4791 52.4622 57.1857 51.8713C58.406 50.832 59.9267 50.2104 61.5255 50.0971C63.1244 49.9838 64.7175 50.3849 66.0721 51.2418C65.663 51.2418 65.3692 51.3047 65.0754 51.2942C63.2246 51.1922 61.3874 51.6632 59.814 52.6433C58.2407 53.6233 57.0078 55.0646 56.2835 56.7708C56.1471 57.1852 55.9302 57.5685 55.645 57.8985C55.3599 58.2286 55.0122 58.4989 54.6221 58.694C54.2319 58.889 53.8071 59.005 53.372 59.035C52.9368 59.0651 52.5 59.0087 52.0868 58.8692C49.8789 58.486 47.8848 57.3157 46.4738 55.5748C46.1905 57.862 45.9282 60.0547 45.6554 62.2895C46.0226 62.3944 46.4003 62.5203 46.778 62.6147C53.5934 64.3569 59.7521 68.0506 64.4984 73.2427C64.8603 73.7205 65.2918 74.1413 65.7784 74.4912C65.9874 74.6079 66.2183 74.6803 66.4566 74.7038C66.6949 74.7272 66.9355 74.7013 67.1633 74.6276C67.334 74.4972 67.4695 74.3262 67.5575 74.1302C67.6454 73.9342 67.683 73.7193 67.6668 73.505C67.5286 72.7667 67.2661 72.0572 66.8905 71.4067C66.1666 70.0952 65.3482 68.8258 64.4145 67.3045L66.9849 68.49C66.9849 67.5878 66.9219 66.6855 66.9849 65.7832C66.9818 65.2999 67.1298 64.8278 67.4082 64.4327C67.6866 64.0377 68.0815 63.7395 68.5377 63.5799C69.0244 63.3828 69.5598 63.3395 70.0718 63.4558C70.5839 63.5721 71.048 63.8424 71.4019 64.2304C72.0567 65.0241 72.4439 66.0045 72.508 67.0315C72.572 68.0585 72.3097 69.0794 71.7586 69.9483C71.6012 69.6021 71.4753 69.2664 71.3074 68.9621C70.9402 68.3011 70.4681 67.7031 69.6078 68.0388C69.4178 68.1079 69.244 68.2153 69.0971 68.3542C68.9502 68.493 68.8333 68.6606 68.7537 68.8464C68.6741 69.0322 68.6333 69.2323 68.6341 69.4345C68.6348 69.6367 68.677 69.8366 68.758 70.0218C68.8919 70.5637 69.1115 71.0809 69.4085 71.5536C69.7475 72.1197 70.2333 72.5837 70.8143 72.8965C71.1396 73.0224 71.7376 72.4558 72.2622 72.1726L72.6189 73.1483C74.3636 70.5791 75.6815 67.7448 76.5218 64.755C76.9154 63.4592 77.7132 62.3232 78.7985 61.5131C81.7466 59.1734 84.7158 56.8863 87.5485 54.4207C91.3204 51.3673 94.3966 47.5435 96.5713 43.2052C97.5381 41.2518 98.0033 39.0883 97.9247 36.9102C97.5785 37.1305 97.4001 37.5082 97.1169 37.76ZM52.9576 52.7421C52.0133 52.7421 49.9675 50.7172 49.978 49.8045C49.9816 49.5598 50.048 49.3202 50.1708 49.1087C50.2937 48.8972 50.4689 48.7207 50.6796 48.5964C50.8903 48.4721 51.1294 48.4041 51.374 48.3988C51.6186 48.3935 51.8604 48.4512 52.0763 48.5664C52.8923 49.1387 53.6023 49.8487 54.1746 50.6647C54.3042 50.8754 54.374 51.1173 54.3767 51.3646C54.3793 51.6119 54.3147 51.8554 54.1897 52.0688C54.0646 52.2822 53.884 52.4575 53.6669 52.5761C53.4499 52.6947 53.2047 52.7521 52.9576 52.7421Z" fill="#151515"/>
</svg>
