<svg width="79" height="79" viewBox="0 0 79 79" fill="none" xmlns="http://www.w3.org/2000/svg">
<path d="M39.5002 55.9583C49.4988 55.9583 57.6043 47.8528 57.6043 37.8542C57.6043 27.8555 49.4988 19.75 39.5002 19.75C29.5015 19.75 21.396 27.8555 21.396 37.8542C21.396 47.8528 29.5015 55.9583 39.5002 55.9583Z" fill="#455E99"/>
<path d="M36.7491 31.8989C36.7491 32.4223 36.7491 34.756 36.7491 34.756H34.6558V38.2495H36.7491V47.8249H41.0488V38.2425H43.9341C43.9341 38.2425 44.2029 36.5664 44.3372 34.7348C43.9624 34.7348 41.07 34.7348 41.07 34.7348C41.07 34.7348 41.07 32.7051 41.07 32.3445C41.07 31.9909 41.5368 31.51 42.0035 31.51C42.4632 31.51 43.4391 31.51 44.3443 31.51C44.3443 31.0362 44.3443 29.3884 44.3443 27.875C43.135 27.875 41.7631 27.875 41.1619 27.875C36.643 27.8821 36.7491 31.3756 36.7491 31.8989Z" fill="white"/>
</svg>
