<svg width="44" height="44" viewBox="0 0 44 44" fill="none" xmlns="http://www.w3.org/2000/svg">
<path d="M13 21.4215C13 20.126 13 18.8345 13 17.543C13.0608 14.3279 15.2149 12.0707 18.3187 12C19.6142 12 20.9287 12 22.2431 12C25.2824 12.0353 27.5011 14.1434 27.5618 17.2603C27.5922 18.65 28.0557 19.1054 29.3322 19.0072C30.5289 18.9091 31 19.6275 30.9848 20.8091C30.9848 22.3597 31.0038 23.9103 30.9848 25.4609C30.9354 28.6643 28.7434 30.9568 25.6661 30.9568C23.2271 30.9568 20.7843 30.9843 18.3453 30.9568C15.2491 30.945 13.0532 28.6878 13 25.5081C13 24.1694 13 22.7915 13 21.4215ZM25.3432 24.8093C23.3449 23.5452 21.2022 24.0634 19.1127 24.1341C18.9417 24.1341 18.7024 24.5934 18.6644 24.8603C18.6777 24.9863 18.723 25.1064 18.7958 25.2084C18.8685 25.3105 18.966 25.3908 19.0785 25.4413C21.1756 25.5669 23.3107 25.987 25.3508 24.8211L25.3432 24.8093ZM22.3647 18.7952V17.6411C21.3238 17.5822 20.2828 17.4841 19.2419 17.4959C19.0405 17.4959 18.7024 17.8884 18.6796 18.1357C18.6568 18.3831 18.9531 18.8463 19.1203 18.8541C20.1954 18.8895 21.282 18.8267 22.3647 18.7952Z" fill="#6C6C6C"/>
</svg>
