<svg width="44" height="44" viewBox="0 0 44 44" fill="none" xmlns="http://www.w3.org/2000/svg">
<path d="M19.0933 16.0239C19.0933 16.5473 19.0933 18.881 19.0933 18.881H17V22.3745H19.0933V31.9499H23.393V22.3675H26.2784C26.2784 22.3675 26.5471 20.6914 26.6815 18.8598C26.3067 18.8598 23.4143 18.8598 23.4143 18.8598C23.4143 18.8598 23.4143 16.8301 23.4143 16.4695C23.4143 16.1159 23.881 15.635 24.3477 15.635C24.8074 15.635 25.7833 15.635 26.6886 15.635C26.6886 15.1612 26.6886 13.5134 26.6886 12C25.4793 12 24.1073 12 23.5062 12C18.9872 12.0071 19.0933 15.5006 19.0933 16.0239Z" fill="#626262"/>
</svg>
