<svg width="44" height="44" viewBox="0 0 44 44" fill="none" xmlns="http://www.w3.org/2000/svg">
<g clip-path="url(#clip0_6_97)">
<path d="M32.025 16.175C31.2859 16.5031 30.4937 16.7234 29.6609 16.8234C30.5109 16.314 31.1641 15.5078 31.4703 14.5484C30.6766 15.0187 29.7938 15.3609 28.8578 15.5453C28.1078 14.7453 27.0391 14.2468 25.8562 14.2468C23.5844 14.2468 21.7422 16.0875 21.7422 18.3593C21.7422 18.6812 21.7797 18.9953 21.85 19.2968C18.4313 19.125 15.4016 17.4875 13.3719 14.9984C13.0172 15.6078 12.8156 16.314 12.8156 17.0671C12.8156 18.4937 13.5406 19.7531 14.6453 20.4921C13.9703 20.4703 13.3359 20.2843 12.7812 19.9765C12.7812 19.9937 12.7812 20.0109 12.7812 20.0281C12.7812 22.0218 14.2 23.6828 16.0797 24.0625C15.7359 24.1562 15.3719 24.2062 14.9969 24.2062C14.7313 24.2062 14.4734 24.1812 14.2219 24.1312C14.7469 25.764 16.2656 26.9562 18.0641 26.989C16.6578 28.0921 14.8844 28.7484 12.9563 28.7484C12.6234 28.7484 12.2969 28.7296 11.9766 28.6906C13.7953 29.8593 15.9578 30.539 18.2812 30.539C25.8469 30.539 29.9844 24.2718 29.9844 18.8375C29.9844 18.6593 29.9797 18.4796 29.9734 18.3046C30.7766 17.725 31.4734 17 32.025 16.175Z" fill="#626262"/>
</g>
<defs>
<clipPath id="clip0_6_97">
<rect width="20" height="20" fill="white" transform="translate(12 12)"/>
</clipPath>
</defs>
</svg>
