<svg width="72" height="72" viewBox="0 0 72 72" fill="none" xmlns="http://www.w3.org/2000/svg">
<path d="M47.2906 49.5818L38.127 40.4182C37.3088 41.0727 36.3679 41.5909 35.3043 41.9727C34.2406 42.3545 33.1088 42.5454 31.9088 42.5454C28.9361 42.5454 26.4205 41.5162 24.3619 39.4576C22.3023 37.398 21.2725 34.8818 21.2725 31.9091C21.2725 28.9363 22.3023 26.4202 24.3619 24.3605C26.4205 22.302 28.9361 21.2727 31.9088 21.2727C34.8816 21.2727 37.3977 22.302 39.4574 24.3605C41.5159 26.4202 42.5452 28.9363 42.5452 31.9091C42.5452 33.1091 42.3543 34.2409 41.9725 35.3045C41.5906 36.3682 41.0725 37.3091 40.4179 38.1272L49.6225 47.3318C49.9225 47.6318 50.0725 48 50.0725 48.4363C50.0725 48.8727 49.9088 49.2545 49.5816 49.5818C49.2816 49.8818 48.8997 50.0318 48.4361 50.0318C47.9725 50.0318 47.5906 49.8818 47.2906 49.5818V49.5818ZM31.9088 39.2727C33.9543 39.2727 35.6932 38.5571 37.1256 37.1258C38.5568 35.6934 39.2725 33.9545 39.2725 31.9091C39.2725 29.8636 38.5568 28.1247 37.1256 26.6923C35.6932 25.2611 33.9543 24.5454 31.9088 24.5454C29.8634 24.5454 28.1245 25.2611 26.6921 26.6923C25.2608 28.1247 24.5452 29.8636 24.5452 31.9091C24.5452 33.9545 25.2608 35.6934 26.6921 37.1258C28.1245 38.5571 29.8634 39.2727 31.9088 39.2727Z" fill="#004097"/>
</svg>
