<svg width="124" height="140" viewBox="0 0 124 140" fill="none" xmlns="http://www.w3.org/2000/svg">
<path d="M44.3542 62.7082C43.1875 62.7082 42.191 62.295 41.3646 61.4686C40.5382 60.6422 40.125 59.6457 40.125 58.479V11.5207C40.125 10.354 40.5382 9.35748 41.3646 8.53109C42.191 7.7047 43.1875 7.2915 44.3542 7.2915H68.5625L83.875 22.604V33.4686H80.5937V24.7915H66.375V10.5728H44.3542C44.1111 10.5728 43.8924 10.67 43.6979 10.8644C43.5035 11.0589 43.4062 11.2776 43.4062 11.5207V58.479C43.4062 58.7221 43.5035 58.9408 43.6979 59.1353C43.8924 59.3297 44.1111 59.4269 44.3542 59.4269H63.0937V62.7082H44.3542ZM43.4062 59.4269V10.5728V59.4269ZM80.3021 43.3123L81.9792 44.9165L70.2396 56.6561V60.229H73.8125L85.5521 48.4894L87.2292 50.1665L74.7604 62.6353H67.8333V55.7811L80.3021 43.3123ZM87.2292 50.1665L80.3021 43.3123L84.2396 39.3019C84.6771 38.8644 85.1753 38.6457 85.7344 38.6457C86.2934 38.6457 86.7917 38.8644 87.2292 39.3019L91.2396 43.3123C91.6285 43.7012 91.8229 44.1873 91.8229 44.7707C91.8229 45.354 91.6285 45.8401 91.2396 46.229L87.2292 50.1665Z" fill="#4D4D4D"/>
<path d="M44.3542 132.708C43.1875 132.708 42.191 132.295 41.3646 131.469C40.5382 130.642 40.125 129.646 40.125 128.479V81.5207C40.125 80.354 40.5382 79.3575 41.3646 78.5311C42.191 77.7047 43.1875 77.2915 44.3542 77.2915H68.5625L83.875 92.604V103.469H80.5937V94.7915H66.375V80.5728H44.3542C44.1111 80.5728 43.8924 80.67 43.6979 80.8644C43.5035 81.0589 43.4062 81.2776 43.4062 81.5207V128.479C43.4062 128.722 43.5035 128.941 43.6979 129.135C43.8924 129.33 44.1111 129.427 44.3542 129.427H63.0937V132.708H44.3542ZM43.4062 129.427V80.5728V129.427ZM80.3021 113.312L81.9792 114.917L70.2396 126.656V130.229H73.8125L85.5521 118.489L87.2292 120.167L74.7604 132.635H67.8333V125.781L80.3021 113.312ZM87.2292 120.167L80.3021 113.312L84.2396 109.302C84.6771 108.864 85.1753 108.646 85.7344 108.646C86.2934 108.646 86.7917 108.864 87.2292 109.302L91.2396 113.312C91.6285 113.701 91.8229 114.187 91.8229 114.771C91.8229 115.354 91.6285 115.84 91.2396 116.229L87.2292 120.167Z" fill="white"/>
</svg>
