<svg width="124" height="140" viewBox="0 0 124 140" fill="none" xmlns="http://www.w3.org/2000/svg">
<path d="M34.292 62.7083V59.4271H40.2712V28.9479H34.292V27.125L62.0003 7.65625L89.7087 27.125V28.9479H83.7295V59.4271H89.7087V62.7083H34.292ZM43.6253 59.4271H80.4482H43.6253ZM51.4274 51.6979H54.7816V38.0625L62.0003 48.9271L69.292 38.0625V51.6979H72.5732V33.0312H68.8545L62.0003 43.4583L55.1462 33.0312H51.4274V51.6979ZM80.4482 59.4271V24.6458L62.0003 11.7396L43.6253 24.6458V59.4271H80.4482Z" fill="#4D4D4D"/>
<path d="M34.292 132.708V129.427H40.2712V98.9479H34.292V97.125L62.0003 77.6562L89.7087 97.125V98.9479H83.7295V129.427H89.7087V132.708H34.292ZM43.6253 129.427H80.4482H43.6253ZM51.4274 121.698H54.7816V108.063L62.0003 118.927L69.292 108.063V121.698H72.5732V103.031H68.8545L62.0003 113.458L55.1462 103.031H51.4274V121.698ZM80.4482 129.427V94.6458L62.0003 81.7396L43.6253 94.6458V129.427H80.4482Z" fill="white"/>
</svg>
