<svg width="124" height="140" viewBox="0 0 124 140" fill="none" xmlns="http://www.w3.org/2000/svg">
<path d="M33.5625 60.4479V56.875C35.1667 56.6806 36.467 56.1701 37.4635 55.3438C38.4601 54.5174 40.0278 54.1042 42.1667 54.1042C44.3542 54.1042 46.1163 54.6267 47.4531 55.6719C48.7899 56.717 50.4063 57.2396 52.3021 57.2396C54.2465 57.2396 55.8142 56.717 57.0052 55.6719C58.1962 54.6267 59.8611 54.1042 62 54.1042C64.1389 54.1042 65.8889 54.6267 67.25 55.6719C68.6111 56.717 70.2639 57.2396 72.2083 57.2396C74.1528 57.2396 75.7083 56.717 76.875 55.6719C78.0417 54.6267 79.6944 54.1042 81.8333 54.1042C83.9722 54.1042 85.5399 54.5174 86.5365 55.3438C87.533 56.1701 88.8333 56.6806 90.4375 56.875V60.4479C88.9792 60.2535 87.6545 59.7066 86.4635 58.8073C85.2726 57.908 83.7292 57.4583 81.8333 57.4583C79.9861 57.4583 78.4306 57.9688 77.1667 58.9896C75.9028 60.0104 74.25 60.5208 72.2083 60.5208C70.1181 60.5208 68.3559 60.0104 66.9219 58.9896C65.4878 57.9688 63.8472 57.4583 62 57.4583C60.1528 57.4583 58.5608 57.9688 57.224 58.9896C55.8872 60.0104 54.1979 60.5208 52.1562 60.5208C50.066 60.5208 48.3403 60.0104 46.9792 58.9896C45.6181 57.9688 44.0139 57.4583 42.1667 57.4583C40.3194 57.4583 38.7882 57.908 37.5729 58.8073C36.3576 59.7066 35.0208 60.2535 33.5625 60.4479ZM33.5625 46.9583V43.5313C35.1667 43.3368 36.467 42.8385 37.4635 42.0365C38.4601 41.2344 40.0278 40.8333 42.1667 40.8333C44.3542 40.8333 46.0799 41.3073 47.3438 42.2552C48.6076 43.2031 50.2118 43.6771 52.1562 43.6771C54.0521 43.6771 55.6319 43.2031 56.8958 42.2552C58.1597 41.3073 59.8611 40.8333 62 40.8333C64.1389 40.8333 65.8403 41.3073 67.1042 42.2552C68.3681 43.2031 69.9722 43.6771 71.9167 43.6771C73.8611 43.6771 75.4653 43.2031 76.7292 42.2552C77.9931 41.3073 79.6944 40.8333 81.8333 40.8333C83.9722 40.8333 85.5399 41.2344 86.5365 42.0365C87.533 42.8385 88.8333 43.3368 90.4375 43.5313V46.9583C88.9792 46.7153 87.6545 46.1562 86.4635 45.2812C85.2726 44.4062 83.7292 43.9688 81.8333 43.9688C79.9861 43.9688 78.4306 44.467 77.1667 45.4635C75.9028 46.4601 74.25 46.9583 72.2083 46.9583C70.1181 46.9583 68.3559 46.4601 66.9219 45.4635C65.4878 44.467 63.8472 43.9688 62 43.9688C60.1528 43.9688 58.5972 44.467 57.3333 45.4635C56.0694 46.4601 54.3924 46.9583 52.3021 46.9583C50.2604 46.9583 48.5226 46.4601 47.0885 45.4635C45.6545 44.467 44.0139 43.9688 42.1667 43.9688C40.3194 43.9688 38.7882 44.4062 37.5729 45.2812C36.3576 46.1562 35.0208 46.7153 33.5625 46.9583ZM49.0938 32.2292L58.7188 22.6042L54.2708 18.1563C52.6667 16.5521 51.0382 15.4705 49.3854 14.9115C47.7326 14.3524 45.6424 14.0243 43.1146 13.9271V9.40625C46.3715 9.50347 49.0451 9.95313 51.1354 10.7552C53.2257 11.5573 55.2917 12.9792 57.3333 15.0208L74.9792 32.7396C74.5903 33.0799 74.1285 33.3229 73.5938 33.4688C73.059 33.6146 72.5 33.6875 71.9167 33.6875C70.3611 33.6875 68.8906 33.1771 67.5052 32.1563C66.1198 31.1354 64.2847 30.625 62 30.625C59.7153 30.625 57.8924 31.1354 56.5312 32.1563C55.1701 33.1771 53.6875 33.6875 52.0833 33.6875C51.4028 33.6875 50.7951 33.5538 50.2604 33.2865C49.7257 33.0191 49.3368 32.6667 49.0938 32.2292ZM75.3438 9.91667C77.1424 9.91667 78.6615 10.5365 79.901 11.776C81.1406 13.0156 81.7604 14.559 81.7604 16.4063C81.7604 18.2049 81.1406 19.724 79.901 20.9635C78.6615 22.2031 77.1424 22.8229 75.3438 22.8229C73.4965 22.8229 71.9531 22.2031 70.7135 20.9635C69.474 19.724 68.8542 18.2049 68.8542 16.4063C68.8542 14.559 69.474 13.0156 70.7135 11.776C71.9531 10.5365 73.4965 9.91667 75.3438 9.91667Z" fill="#4D4D4D"/>
<path d="M33.5625 130.448V126.875C35.1667 126.681 36.467 126.17 37.4635 125.344C38.4601 124.517 40.0278 124.104 42.1667 124.104C44.3542 124.104 46.1163 124.627 47.4531 125.672C48.7899 126.717 50.4063 127.24 52.3021 127.24C54.2465 127.24 55.8142 126.717 57.0052 125.672C58.1962 124.627 59.8611 124.104 62 124.104C64.1389 124.104 65.8889 124.627 67.25 125.672C68.6111 126.717 70.2639 127.24 72.2083 127.24C74.1528 127.24 75.7083 126.717 76.875 125.672C78.0417 124.627 79.6944 124.104 81.8333 124.104C83.9722 124.104 85.5399 124.517 86.5365 125.344C87.533 126.17 88.8333 126.681 90.4375 126.875V130.448C88.9792 130.253 87.6545 129.707 86.4635 128.807C85.2726 127.908 83.7292 127.458 81.8333 127.458C79.9861 127.458 78.4306 127.969 77.1667 128.99C75.9028 130.01 74.25 130.521 72.2083 130.521C70.1181 130.521 68.3559 130.01 66.9219 128.99C65.4878 127.969 63.8472 127.458 62 127.458C60.1528 127.458 58.5608 127.969 57.224 128.99C55.8872 130.01 54.1979 130.521 52.1563 130.521C50.066 130.521 48.3403 130.01 46.9792 128.99C45.6181 127.969 44.0139 127.458 42.1667 127.458C40.3194 127.458 38.7882 127.908 37.5729 128.807C36.3576 129.707 35.0208 130.253 33.5625 130.448ZM33.5625 116.958V113.531C35.1667 113.337 36.467 112.839 37.4635 112.036C38.4601 111.234 40.0278 110.833 42.1667 110.833C44.3542 110.833 46.0799 111.307 47.3438 112.255C48.6076 113.203 50.2118 113.677 52.1563 113.677C54.0521 113.677 55.6319 113.203 56.8958 112.255C58.1597 111.307 59.8611 110.833 62 110.833C64.1389 110.833 65.8403 111.307 67.1042 112.255C68.3681 113.203 69.9722 113.677 71.9167 113.677C73.8611 113.677 75.4653 113.203 76.7292 112.255C77.9931 111.307 79.6944 110.833 81.8333 110.833C83.9722 110.833 85.5399 111.234 86.5365 112.036C87.533 112.839 88.8333 113.337 90.4375 113.531V116.958C88.9792 116.715 87.6545 116.156 86.4635 115.281C85.2726 114.406 83.7292 113.969 81.8333 113.969C79.9861 113.969 78.4306 114.467 77.1667 115.464C75.9028 116.46 74.25 116.958 72.2083 116.958C70.1181 116.958 68.3559 116.46 66.9219 115.464C65.4878 114.467 63.8472 113.969 62 113.969C60.1528 113.969 58.5972 114.467 57.3333 115.464C56.0694 116.46 54.3924 116.958 52.3021 116.958C50.2604 116.958 48.5226 116.46 47.0885 115.464C45.6545 114.467 44.0139 113.969 42.1667 113.969C40.3194 113.969 38.7882 114.406 37.5729 115.281C36.3576 116.156 35.0208 116.715 33.5625 116.958ZM49.0937 102.229L58.7188 92.6042L54.2708 88.1563C52.6667 86.5521 51.0382 85.4705 49.3854 84.9115C47.7326 84.3524 45.6424 84.0243 43.1146 83.9271V79.4062C46.3715 79.5035 49.0451 79.9531 51.1354 80.7552C53.2257 81.5573 55.2917 82.9792 57.3333 85.0208L74.9792 102.74C74.5903 103.08 74.1285 103.323 73.5938 103.469C73.059 103.615 72.5 103.688 71.9167 103.688C70.3611 103.688 68.8906 103.177 67.5052 102.156C66.1198 101.135 64.2847 100.625 62 100.625C59.7153 100.625 57.8924 101.135 56.5313 102.156C55.1701 103.177 53.6875 103.688 52.0833 103.688C51.4028 103.688 50.7951 103.554 50.2604 103.286C49.7257 103.019 49.3368 102.667 49.0937 102.229V102.229ZM75.3438 79.9167C77.1424 79.9167 78.6615 80.5365 79.901 81.776C81.1406 83.0156 81.7604 84.559 81.7604 86.4063C81.7604 88.2049 81.1406 89.724 79.901 90.9635C78.6615 92.2031 77.1424 92.8229 75.3438 92.8229C73.4965 92.8229 71.9531 92.2031 70.7135 90.9635C69.474 89.724 68.8542 88.2049 68.8542 86.4063C68.8542 84.559 69.474 83.0156 70.7135 81.776C71.9531 80.5365 73.4965 79.9167 75.3438 79.9167V79.9167Z" fill="white"/>
</svg>
