<svg width="124" height="140" viewBox="0 0 124 140" fill="none" xmlns="http://www.w3.org/2000/svg">
<path d="M32 58.75V35.6251L44.375 30.1619V20.3582L59.75 12.5002L64.25 12.5001L79.625 20.3582V30.1619L92 35.6251V58.75H65.75V46.7759C65.75 45.7282 65.3875 44.8426 64.6625 44.1192C63.9375 43.3958 63.05 43.034 62 43.034C60.95 43.034 60.0625 43.3958 59.3375 44.1192C58.6125 44.8426 58.25 45.7282 58.25 46.7759V58.75H32ZM36.5 54.2597H53.75V46.6263C53.75 44.3312 54.55 42.3605 56.15 40.7141C57.75 39.0676 59.7 38.2444 62 38.2444C64.3 38.2444 66.25 39.0676 67.85 40.7141C69.45 42.3605 70.25 44.3312 70.25 46.6263V54.2597H87.5V38.2444L75.125 32.7813V22.8278L62 16.0176L48.875 22.8278V32.7813L36.5 38.2444V54.2597ZM62 32.9309C63.15 32.9309 64.125 32.5318 64.925 31.7335C65.725 30.9353 66.125 29.9624 66.125 28.8149C66.125 27.6673 65.725 26.6944 64.925 25.8962C64.125 25.0979 63.15 24.6988 62 24.6988C60.85 24.6988 59.875 25.0979 59.075 25.8962C58.275 26.6944 57.875 27.6673 57.875 28.8149C57.875 29.9624 58.275 30.9353 59.075 31.7335C59.875 32.5318 60.85 32.9309 62 32.9309Z" fill="#4D4D4D"/>
<path d="M32 128.75V105.625L44.375 100.162V90.3582L59.75 82.5002L64.25 82.5001L79.625 90.3582V100.162L92 105.625V128.75H65.75V116.776C65.75 115.728 65.3875 114.843 64.6625 114.119C63.9375 113.396 63.05 113.034 62 113.034C60.95 113.034 60.0625 113.396 59.3375 114.119C58.6125 114.843 58.25 115.728 58.25 116.776V128.75H32ZM36.5 124.26H53.75V116.626C53.75 114.331 54.55 112.361 56.15 110.714C57.75 109.068 59.7 108.244 62 108.244C64.3 108.244 66.25 109.068 67.85 110.714C69.45 112.361 70.25 114.331 70.25 116.626V124.26H87.5V108.244L75.125 102.781V92.8278L62 86.0176L48.875 92.8278V102.781L36.5 108.244V124.26ZM62 102.931C63.15 102.931 64.125 102.532 64.925 101.734C65.725 100.935 66.125 99.9624 66.125 98.8149C66.125 97.6673 65.725 96.6944 64.925 95.8962C64.125 95.0979 63.15 94.6988 62 94.6988C60.85 94.6988 59.875 95.0979 59.075 95.8962C58.275 96.6944 57.875 97.6673 57.875 98.8149C57.875 99.9624 58.275 100.935 59.075 101.734C59.875 102.532 60.85 102.931 62 102.931Z" fill="white"/>
</svg>
