<svg width="124" height="140" viewBox="0 0 124 140" fill="none" xmlns="http://www.w3.org/2000/svg">
<g clip-path="url(#clip0_5_86)">
<path d="M108 61.0816C107.784 61.4013 107.486 61.6559 107.138 61.8177C106.789 61.9796 106.403 62.0427 106.021 62.0002C76.6773 62.0002 47.335 62.0002 17.9945 62.0002C16.4116 62.0002 16 61.5807 16 59.9612V9.05512C16 7.4356 16.4116 7.00019 17.9945 7.00019C47.3385 7.00019 76.6808 7.00019 106.021 7.00019C106.403 6.95769 106.789 7.02078 107.138 7.18265C107.486 7.34452 107.784 7.59904 108 7.9188V61.0816ZM39.7756 9.91002C33.064 9.91002 26.3559 9.91002 19.6513 9.91002C19.0392 9.91002 18.8493 10.0321 18.8598 10.6853C18.8985 13.5491 18.8985 16.4111 18.8598 19.2714C18.8598 19.8926 18.9917 20.0732 19.6355 20.0679C22.5955 20.0307 25.5609 20.0679 28.5263 20.0679C29.8929 20.0679 30.373 20.5404 30.373 21.8945C30.373 30.3337 30.373 38.7711 30.373 47.2068C30.373 48.5024 29.877 48.9962 28.579 48.9962C25.5873 48.9962 22.5903 48.9962 19.6091 48.9962C19.0287 48.9962 18.8651 49.1343 18.8704 49.729C18.902 52.6211 18.902 55.515 18.8704 58.4107C18.8704 59.0001 19.0234 59.1488 19.6038 59.1488C33.0236 59.1488 46.4398 59.1488 59.8525 59.1488C60.4382 59.1488 60.5912 59.0001 60.5859 58.4107C60.5543 55.2779 60.5859 52.145 60.5859 49.0069C60.5859 47.5997 60.5859 47.5626 59.2404 47.2705C56.0141 46.5409 53.1837 44.6049 51.3224 41.8543C49.4611 39.1038 48.7078 35.7443 49.2152 32.4559C50.0594 27.146 54.5549 22.4573 59.8683 21.7192C60.4487 21.6396 60.5806 21.406 60.5754 20.8537C60.5754 17.5085 60.5437 14.1633 60.5754 10.818C60.5754 10.133 60.4329 9.92595 59.71 9.93126C53.067 9.92064 46.4187 9.91002 39.7756 9.91002ZM84.3193 9.91002C77.6394 9.91002 70.9647 9.91002 64.2689 9.91002C63.5513 9.91002 63.3983 10.1065 63.4035 10.7968C63.4405 13.9031 63.4035 17.0041 63.4035 20.1103C63.4035 21.4644 63.4035 21.4909 64.7174 21.783C67.953 22.5151 70.7902 24.4596 72.6524 27.2212C74.5145 29.9829 75.2619 33.3544 74.7426 36.6507C73.93 41.865 69.3448 46.6333 64.1317 47.3342C63.604 47.4086 63.3772 47.5572 63.3824 48.1626C63.4194 51.5662 63.4141 54.9699 63.3824 58.3735C63.3824 58.9629 63.5249 59.1169 64.1159 59.1169C77.5286 59.1169 90.943 59.1169 104.359 59.1169C104.94 59.1169 105.103 58.9735 105.098 58.3788C105.066 55.4867 105.066 52.5946 105.098 49.7024C105.098 49.1131 104.945 48.9538 104.359 48.9644C101.368 48.9644 98.3705 48.9644 95.3893 48.9644C94.0913 48.9644 93.5953 48.4706 93.5953 47.1749C93.5953 38.7393 93.5953 30.3018 93.5953 21.8626C93.5953 20.5086 94.0755 20.036 95.4368 20.036C98.4338 20.036 101.426 20.036 104.407 20.036C104.971 20.036 105.098 19.8873 105.087 19.3404C105.061 16.4731 105.05 13.611 105.087 10.749C105.087 10.0268 104.887 9.87816 104.201 9.88347C97.6107 9.92064 90.9677 9.91002 84.3193 9.91002V9.91002ZM27.4974 34.6117C27.4974 30.9691 27.4974 27.3212 27.4974 23.6786C27.4974 23.0892 27.3602 22.9246 26.7639 22.9352C24.3755 22.9671 21.9817 22.9671 19.5827 22.9352C18.997 22.9352 18.844 23.0786 18.844 23.6733C18.8651 30.9054 18.8651 38.1357 18.844 45.3643C18.844 45.9483 18.9865 46.1183 19.5774 46.1076C21.9729 46.0705 24.3684 46.0758 26.7639 46.1076C27.3496 46.1076 27.5026 45.9643 27.4974 45.3696C27.4868 41.7641 27.4974 38.18 27.4974 34.6117ZM96.4974 34.5214C96.4974 38.1375 96.4974 41.7535 96.4974 45.3696C96.4974 45.9537 96.6398 46.1183 97.2308 46.1076C99.6263 46.0758 102.022 46.0758 104.417 46.1076C105.003 46.1076 105.151 45.9537 105.151 45.3696C105.13 38.1375 105.13 30.9054 105.151 23.6733C105.151 23.0892 105.003 22.9246 104.417 22.9352C102.022 22.9671 99.6263 22.9671 97.2308 22.9352C96.6398 22.9352 96.4921 23.0839 96.4974 23.6733C96.5132 27.2681 96.4974 30.8948 96.4974 34.5002V34.5214ZM63.4352 34.4365C63.4352 37.564 63.4352 40.6915 63.4352 43.8244C63.4352 44.4403 63.6093 44.5147 64.1475 44.3872C66.406 43.9196 68.4352 42.6828 69.8934 40.8853C71.3515 39.0878 72.1493 36.8394 72.1524 34.519C72.1555 32.1986 71.3637 29.948 69.9104 28.1465C68.4571 26.3451 66.4311 25.1028 64.1739 24.6291C63.5513 24.4751 63.4194 24.6025 63.4246 25.2291C63.451 28.2982 63.4352 31.3673 63.4352 34.4365ZM60.5648 34.4843C60.5648 31.4151 60.5648 28.3513 60.5648 25.2822C60.5648 24.6397 60.4593 24.4698 59.7786 24.6397C57.535 25.1244 55.5244 26.369 54.0828 28.1658C52.6412 29.9625 51.8557 32.2026 51.8575 34.5119C51.8594 36.8213 52.6485 39.0601 54.093 40.8545C55.5375 42.6489 57.55 43.8903 59.7945 44.3713C60.3907 44.52 60.5595 44.435 60.5543 43.7819C60.5437 40.6809 60.5648 37.5852 60.5648 34.4843V34.4843Z" fill="#4D4D4D"/>
</g>
<rect x="16.5" y="7.5" width="91" height="54" stroke="#4D4D4D"/>
<g clip-path="url(#clip1_5_86)">
<path d="M108 131.082C107.784 131.401 107.486 131.656 107.138 131.818C106.789 131.98 106.403 132.043 106.021 132C76.6773 132 47.335 132 17.9945 132C16.4116 132 16 131.581 16 129.961V79.0551C16 77.4356 16.4116 77.0002 17.9945 77.0002C47.3385 77.0002 76.6808 77.0002 106.021 77.0002C106.403 76.9577 106.789 77.0208 107.138 77.1826C107.486 77.3445 107.784 77.599 108 77.9188V131.082ZM39.7756 79.91C33.064 79.91 26.3559 79.91 19.6513 79.91C19.0392 79.91 18.8493 80.0321 18.8598 80.6853C18.8985 83.5491 18.8985 86.4111 18.8598 89.2714C18.8598 89.8926 18.9917 90.0732 19.6355 90.0679C22.5955 90.0307 25.5609 90.0679 28.5263 90.0679C29.8929 90.0679 30.373 90.5404 30.373 91.8945C30.373 100.334 30.373 108.771 30.373 117.207C30.373 118.502 29.877 118.996 28.579 118.996C25.5873 118.996 22.5903 118.996 19.6091 118.996C19.0287 118.996 18.8651 119.134 18.8704 119.729C18.902 122.621 18.902 125.515 18.8704 128.411C18.8704 129 19.0234 129.149 19.6038 129.149C33.0236 129.149 46.4398 129.149 59.8525 129.149C60.4382 129.149 60.5912 129 60.5859 128.411C60.5543 125.278 60.5859 122.145 60.5859 119.007C60.5859 117.6 60.5859 117.563 59.2404 117.271C56.0141 116.541 53.1837 114.605 51.3224 111.854C49.4611 109.104 48.7078 105.744 49.2152 102.456C50.0594 97.146 54.5549 92.4573 59.8683 91.7192C60.4487 91.6396 60.5806 91.406 60.5754 90.8537C60.5754 87.5085 60.5437 84.1633 60.5754 80.818C60.5754 80.133 60.4329 79.9259 59.71 79.9313C53.067 79.9206 46.4187 79.91 39.7756 79.91ZM84.3193 79.91C77.6394 79.91 70.9647 79.91 64.2689 79.91C63.5513 79.91 63.3983 80.1065 63.4035 80.7968C63.4405 83.9031 63.4035 87.0041 63.4035 90.1103C63.4035 91.4644 63.4035 91.4909 64.7174 91.783C67.953 92.5151 70.7902 94.4596 72.6524 97.2212C74.5145 99.9829 75.2619 103.354 74.7426 106.651C73.93 111.865 69.3448 116.633 64.1317 117.334C63.604 117.409 63.3772 117.557 63.3824 118.163C63.4194 121.566 63.4141 124.97 63.3824 128.374C63.3824 128.963 63.5249 129.117 64.1159 129.117C77.5286 129.117 90.943 129.117 104.359 129.117C104.94 129.117 105.103 128.974 105.098 128.379C105.066 125.487 105.066 122.595 105.098 119.702C105.098 119.113 104.945 118.954 104.359 118.964C101.368 118.964 98.3705 118.964 95.3893 118.964C94.0913 118.964 93.5953 118.471 93.5953 117.175C93.5953 108.739 93.5953 100.302 93.5953 91.8626C93.5953 90.5086 94.0755 90.036 95.4368 90.036C98.4338 90.036 101.426 90.036 104.407 90.036C104.971 90.036 105.098 89.8873 105.087 89.3404C105.061 86.4731 105.05 83.611 105.087 80.749C105.087 80.0268 104.887 79.8782 104.201 79.8835C97.6107 79.9206 90.9677 79.91 84.3193 79.91V79.91ZM27.4974 104.612C27.4974 100.969 27.4974 97.3212 27.4974 93.6786C27.4974 93.0892 27.3602 92.9246 26.7639 92.9352C24.3755 92.9671 21.9817 92.9671 19.5827 92.9352C18.997 92.9352 18.844 93.0786 18.844 93.6733C18.8651 100.905 18.8651 108.136 18.844 115.364C18.844 115.948 18.9865 116.118 19.5774 116.108C21.9729 116.07 24.3684 116.076 26.7639 116.108C27.3496 116.108 27.5026 115.964 27.4974 115.37C27.4868 111.764 27.4974 108.18 27.4974 104.612ZM96.4974 104.521C96.4974 108.137 96.4974 111.754 96.4974 115.37C96.4974 115.954 96.6398 116.118 97.2308 116.108C99.6263 116.076 102.022 116.076 104.417 116.108C105.003 116.108 105.151 115.954 105.151 115.37C105.13 108.137 105.13 100.905 105.151 93.6733C105.151 93.0892 105.003 92.9246 104.417 92.9352C102.022 92.9671 99.6263 92.9671 97.2308 92.9352C96.6398 92.9352 96.4921 93.0839 96.4974 93.6733C96.5132 97.2681 96.4974 100.895 96.4974 104.5V104.521ZM63.4352 104.436C63.4352 107.564 63.4352 110.692 63.4352 113.824C63.4352 114.44 63.6093 114.515 64.1475 114.387C66.406 113.92 68.4352 112.683 69.8934 110.885C71.3515 109.088 72.1493 106.839 72.1524 104.519C72.1555 102.199 71.3637 99.948 69.9104 98.1465C68.4571 96.3451 66.4311 95.1028 64.1739 94.6291C63.5513 94.4751 63.4194 94.6025 63.4246 95.2291C63.451 98.2982 63.4352 101.367 63.4352 104.436ZM60.5648 104.484C60.5648 101.415 60.5648 98.3513 60.5648 95.2822C60.5648 94.6397 60.4593 94.4698 59.7786 94.6397C57.535 95.1244 55.5244 96.369 54.0828 98.1658C52.6412 99.9625 51.8557 102.203 51.8575 104.512C51.8594 106.821 52.6485 109.06 54.093 110.854C55.5375 112.649 57.55 113.89 59.7945 114.371C60.3907 114.52 60.5595 114.435 60.5543 113.782C60.5437 110.681 60.5648 107.585 60.5648 104.484V104.484Z" fill="white"/>
</g>
<rect x="16.5" y="77.5" width="91" height="54" stroke="white"/>
<defs>
<clipPath id="clip0_5_86">
<rect x="16" y="7" width="92" height="55" fill="white"/>
</clipPath>
<clipPath id="clip1_5_86">
<rect x="16" y="77" width="92" height="55" fill="white"/>
</clipPath>
</defs>
</svg>
