<svg width="124" height="140" viewBox="0 0 124 140" fill="none" xmlns="http://www.w3.org/2000/svg">
<path d="M44.9845 54.394L45.1957 54.6874L45.2807 54.774V54.7813L45.3204 54.8796C45.8084 55.7299 46.0426 56.7105 45.9936 57.6981C45.9653 58.8044 45.9936 59.9136 45.9851 61.0214C45.9851 61.7168 45.601 62 44.6557 62C38.5479 62 32.4401 62 26.3323 62C25.3884 62 25.0354 61.7256 25.0227 61.0052C25.0161 60.5895 25.0085 60.1704 25 59.7478V58.1662C25 57.637 25 57.1078 25 56.5787L25.5811 54.997V54.9882L25.6647 54.906C26.2005 54.0771 27.0296 53.4388 27.9906 52.8813C29.2997 52.262 30.7287 51.9618 32.1675 52.0039C34.207 52.0464 36.2508 52.0552 38.289 52.0127C39.9218 51.9789 41.4454 52.1844 42.8571 52.8035L43.8761 53.408L44.9845 54.394Z" fill="#4D4D4D"/>
<path d="M93.1732 62C92.4635 61.9371 91.7499 61.9371 91.0402 62C90.3366 61.9503 89.6306 61.9503 88.927 62C88.2178 61.9371 87.5047 61.9371 86.7954 62C86.0919 61.9503 85.3858 61.9503 84.6823 62C83.9726 61.9371 83.259 61.9371 82.5493 62C81.8457 61.9503 81.1397 61.9503 80.4361 62C79.7832 61.8669 79.075 62.0965 78.4419 61.8318C78.2549 61.6904 78.1034 61.5048 78 61.2906C78 60.764 78 60.2365 78 59.7079V58.1311L78.0127 56.5485C78.2677 55.3286 78.9759 54.2759 80.1372 53.3905L80.4418 53.1916C81.8369 52.3769 83.4047 51.9746 85.195 52.0039C87.1708 52.0346 89.148 52.0375 91.1238 52.0039C92.5755 51.9761 93.972 52.0916 95.2991 52.548C96.6418 53.1331 97.68 53.9361 98.3881 54.9717C98.6162 55.4866 98.8456 55.9956 98.915 56.5456L99 58.1341V59.7079V61.2906C98.9074 61.4882 98.764 61.6557 98.5853 61.7746C98.4067 61.8936 98.1998 61.9594 97.9873 61.9649C97.9663 61.96 97.9445 61.9606 97.9238 61.9664C97.903 61.9723 97.884 61.9833 97.8683 61.9985H97.4293C96.7224 61.9361 96.0117 61.9361 95.3048 61.9985C94.5951 61.9484 93.8828 61.9489 93.1732 62Z" fill="#4D4D4D"/>
<path d="M69.4378 52.6859C71.0718 53.4817 72.3375 54.4685 72.7697 55.8958C72.8999 56.2454 72.9775 56.612 73 56.9839C73 58.3569 73 59.7298 73 61.1043C73 61.6916 72.5915 62 71.8012 62C65.271 62 58.7413 62 52.2122 62C52.0161 62 51.82 61.9736 51.618 61.9604C51.3516 61.8172 51.136 61.5968 51 61.3289V59.7401V58.1586C51 57.6285 51.0104 57.0999 51.0149 56.5698L51.612 54.9898C52.0324 54.492 52.429 53.981 53.0975 53.6227C53.4733 53.5214 53.5194 53.1998 53.8402 53.0588C55.3257 52.2982 56.9687 51.9575 58.8151 52.006C60.7596 52.0559 62.7101 52.053 64.6546 52.006C66.3376 51.9663 67.936 52.1161 69.4378 52.6859Z" fill="#4D4D4D"/>
<path d="M68.216 44.2111C69.0842 44.9805 69.8888 45.8039 69.9525 46.8338C70.0436 48.2021 69.9756 49.5763 69.9756 51C68.7094 50.5419 67.4635 50.1018 66.0685 50.0284L64.6576 49.9386H64.1439H63.8921L61.7388 49.9266H57.3976C56.6695 49.9205 55.9425 49.9877 55.227 50.1272C54.5854 50.1816 53.9531 50.321 53.3458 50.5419C53.2344 50.5509 53.1085 50.5419 53.0564 50.6407C52.6946 50.6916 52.4298 50.9401 52 50.9491V46.9955L52.2894 46.009C52.8682 44.8114 53.9593 43.9461 55.5048 43.4012C56.1459 43.1497 56.8709 43.1437 57.5524 43.009L59.5653 43H63.9066L65.7907 43.1916C66.639 43.4236 67.4554 43.7662 68.2203 44.2111H68.216Z" fill="#4D4D4D"/>
<path d="M75 51.2804V47.7874C75.0076 47.5965 75.0167 47.4056 75.0242 47.2146L75.0712 47.1143L75.1394 46.8474C75.3191 46.3077 75.5746 45.8003 75.8972 45.3427L76.6837 44.5338L78.2311 43.6019C78.4849 43.5614 78.73 43.4738 78.9555 43.343H79.0267L79.0934 43.3236L80.1664 43.0987L82.4397 43H86.9862L88.1986 43.0113L88.8048 43.0955L89.2595 43.1359C90.0375 43.3446 90.7979 43.6222 91.5327 43.9659L92.148 44.406C93.3195 45.3492 93.9485 46.4688 94 47.7761V49.5282C93.8863 49.8745 94.1516 50.2612 93.8166 50.5847C93.5886 50.4863 93.3398 50.4556 93.0968 50.4958H92.9225L91.5403 50.4844H86.9938L84.7311 50.4925L83.2156 50.5977C83.0586 50.5702 82.8976 50.6029 82.761 50.6899L82.4578 50.7126C81.8607 50.8743 81.1909 50.8824 80.6953 51.2384C80.4574 51.1122 80.3422 51.2918 80.1815 51.3597C78.2993 51.947 76.7535 53.0893 75.2667 55L75.05 54.6424C75.0394 54.1004 75.0303 53.5568 75.0212 53.0148L75 51.2804Z" fill="#4D4D4D"/>
<path d="M48.9773 54.6455C48.9045 54.7604 48.8256 54.8754 48.7543 55C48.1477 54.2408 47.5578 53.4897 46.6813 52.9134C46.3341 52.5443 45.8488 52.3015 45.3635 52.0587C44.0154 51.2574 42.4686 50.8203 40.805 50.6018L39.2885 50.5111L38.7972 50.4982H38.5227L36.2571 50.4901H31.7077C31.5819 50.4901 31.4575 50.4755 31.3316 50.4771C30.9146 50.4771 30.3293 50.6212 30.1276 50.4658C29.9259 50.3104 30.0305 49.8507 30.0047 49.5269C30.0047 48.9064 30.0047 48.2864 30.0047 47.6669C29.985 47.1441 30.2216 46.6552 30.3399 46.1501C31.1952 44.6155 32.6949 43.6378 34.7376 43.1279L35.1926 43.0955L35.7992 43.0113L36.2541 43H43.0691C43.6757 43.1473 44.3217 43.1166 44.9055 43.3238C46.6131 43.8369 47.7868 44.7807 48.5451 46.0384C48.6967 46.6234 48.8484 47.2072 49 47.79V53.0283L48.9773 54.6455Z" fill="#4D4D4D"/>
<path d="M27.8767 8.5H96.1233C96.8775 8.5 97.5 9.11584 97.5 9.88916V36.1108C97.5 36.8842 96.8775 37.5 96.1233 37.5H27.8767C27.1225 37.5 26.5 36.8842 26.5 36.1108V9.88916C26.5 9.11585 27.1225 8.5 27.8767 8.5Z" stroke="#4D4D4D" stroke-width="3"/>
<path d="M44.9845 124.394L45.1957 124.687L45.2807 124.774V124.781L45.3204 124.88C45.8084 125.73 46.0426 126.71 45.9936 127.698C45.9653 128.804 45.9936 129.914 45.9851 131.021C45.9851 131.717 45.601 132 44.6557 132C38.5479 132 32.4401 132 26.3323 132C25.3884 132 25.0354 131.726 25.0227 131.005C25.0161 130.59 25.0085 130.17 25 129.748V128.166C25 127.637 25 127.108 25 126.579L25.5811 124.997V124.988L25.6647 124.906C26.2005 124.077 27.0296 123.439 27.9906 122.881C29.2997 122.262 30.7287 121.962 32.1675 122.004C34.207 122.046 36.2508 122.055 38.289 122.013C39.9218 121.979 41.4454 122.184 42.8571 122.804L43.8761 123.408L44.9845 124.394Z" fill="white"/>
<path d="M93.1732 132C92.4635 131.937 91.7499 131.937 91.0402 132C90.3366 131.95 89.6306 131.95 88.927 132C88.2178 131.937 87.5047 131.937 86.7954 132C86.0919 131.95 85.3858 131.95 84.6823 132C83.9726 131.937 83.259 131.937 82.5493 132C81.8457 131.95 81.1397 131.95 80.4361 132C79.7832 131.867 79.075 132.097 78.4419 131.832C78.2549 131.69 78.1034 131.505 78 131.291C78 130.764 78 130.236 78 129.708V128.131L78.0127 126.548C78.2677 125.329 78.9759 124.276 80.1372 123.391L80.4418 123.192C81.8369 122.377 83.4047 121.975 85.195 122.004C87.1708 122.035 89.148 122.038 91.1238 122.004C92.5755 121.976 93.972 122.092 95.2991 122.548C96.6418 123.133 97.68 123.936 98.3881 124.972C98.6162 125.487 98.8456 125.996 98.915 126.546L99 128.134V129.708V131.291C98.9074 131.488 98.764 131.656 98.5853 131.775C98.4067 131.894 98.1998 131.959 97.9873 131.965C97.9663 131.96 97.9445 131.961 97.9238 131.966C97.903 131.972 97.884 131.983 97.8683 131.999H97.4293C96.7224 131.936 96.0117 131.936 95.3048 131.999C94.5951 131.948 93.8828 131.949 93.1732 132V132Z" fill="white"/>
<path d="M69.4378 122.686C71.0718 123.482 72.3375 124.469 72.7697 125.896C72.8999 126.245 72.9775 126.612 73 126.984C73 128.357 73 129.73 73 131.104C73 131.692 72.5915 132 71.8012 132C65.271 132 58.7413 132 52.2122 132C52.0161 132 51.82 131.974 51.618 131.96C51.3516 131.817 51.136 131.597 51 131.329V129.74V128.159C51 127.629 51.0104 127.1 51.0149 126.57L51.612 124.99C52.0324 124.492 52.429 123.981 53.0975 123.623C53.4733 123.521 53.5194 123.2 53.8402 123.059C55.3257 122.298 56.9687 121.958 58.8151 122.006C60.7596 122.056 62.7101 122.053 64.6546 122.006C66.3376 121.966 67.936 122.116 69.4378 122.686Z" fill="white"/>
<path d="M68.216 114.211C69.0842 114.981 69.8888 115.804 69.9525 116.834C70.0436 118.202 69.9756 119.576 69.9756 121C68.7094 120.542 67.4635 120.102 66.0685 120.028L64.6576 119.939H64.1439H63.8921L61.7388 119.927H57.3976C56.6695 119.92 55.9425 119.988 55.227 120.127C54.5854 120.182 53.9531 120.321 53.3458 120.542C53.2344 120.551 53.1085 120.542 53.0564 120.641C52.6946 120.692 52.4298 120.94 52 120.949V116.996L52.2894 116.009C52.8682 114.811 53.9593 113.946 55.5048 113.401C56.1459 113.15 56.8709 113.144 57.5524 113.009L59.5653 113H63.9066L65.7907 113.192C66.639 113.424 67.4554 113.766 68.2203 114.211H68.216Z" fill="white"/>
<path d="M75 121.28V117.787C75.0076 117.596 75.0167 117.406 75.0242 117.215L75.0712 117.114L75.1394 116.847C75.3191 116.308 75.5746 115.8 75.8972 115.343L76.6837 114.534L78.2311 113.602C78.4849 113.561 78.73 113.474 78.9555 113.343H79.0267L79.0934 113.324L80.1664 113.099L82.4397 113H86.9862L88.1986 113.011L88.8048 113.095L89.2595 113.136C90.0375 113.345 90.7979 113.622 91.5327 113.966L92.148 114.406C93.3195 115.349 93.9485 116.469 94 117.776V119.528C93.8863 119.874 94.1516 120.261 93.8166 120.585C93.5886 120.486 93.3398 120.456 93.0968 120.496H92.9225L91.5403 120.484H86.9938L84.7311 120.493L83.2156 120.598C83.0586 120.57 82.8976 120.603 82.761 120.69L82.4578 120.713C81.8607 120.874 81.1909 120.882 80.6953 121.238C80.4574 121.112 80.3422 121.292 80.1815 121.36C78.2993 121.947 76.7535 123.089 75.2667 125L75.05 124.642C75.0394 124.1 75.0303 123.557 75.0212 123.015L75 121.28Z" fill="white"/>
<path d="M48.9773 124.645C48.9045 124.76 48.8256 124.875 48.7543 125C48.1477 124.241 47.5578 123.49 46.6813 122.913C46.3341 122.544 45.8488 122.301 45.3635 122.059C44.0154 121.257 42.4686 120.82 40.805 120.602L39.2885 120.511L38.7972 120.498H38.5227L36.2571 120.49H31.7077C31.5819 120.49 31.4575 120.476 31.3316 120.477C30.9146 120.477 30.3293 120.621 30.1276 120.466C29.9259 120.31 30.0305 119.851 30.0047 119.527C30.0047 118.906 30.0047 118.286 30.0047 117.667C29.985 117.144 30.2216 116.655 30.3399 116.15C31.1952 114.616 32.6949 113.638 34.7376 113.128L35.1926 113.096L35.7992 113.011L36.2541 113H43.0691C43.6757 113.147 44.3217 113.117 44.9055 113.324C46.6131 113.837 47.7868 114.781 48.5451 116.038C48.6967 116.623 48.8484 117.207 49 117.79V123.028L48.9773 124.645Z" fill="white"/>
<path d="M27.8767 78.5H96.1233C96.8775 78.5 97.5 79.1158 97.5 79.8892V106.111C97.5 106.884 96.8775 107.5 96.1233 107.5H27.8767C27.1225 107.5 26.5 106.884 26.5 106.111V79.8892C26.5 79.1158 27.1225 78.5 27.8767 78.5Z" stroke="white" stroke-width="3"/>
</svg>
