<svg width="79" height="79" viewBox="0 0 79 79" fill="none" xmlns="http://www.w3.org/2000/svg">
<g clip-path="url(#clip0_3_884)">
<path d="M58.8562 31.6001C58.8562 31.6001 58.4698 28.8771 57.2823 27.6809C55.7776 26.1071 54.0964 26.0997 53.3249 26.0071C47.8011 25.606 39.5073 25.606 39.5073 25.606H39.4925C39.4925 25.606 31.1987 25.606 25.6749 26.0071C24.9034 26.0997 23.2222 26.1071 21.7175 27.6809C20.5288 28.8771 20.1511 31.6001 20.1511 31.6001C20.1511 31.6001 19.7573 34.7946 19.7573 37.9954V40.9887C19.7573 44.1821 20.1511 47.384 20.1511 47.384C20.1511 47.384 20.5374 50.1071 21.7175 51.3032C23.2222 52.877 25.1972 52.8227 26.0761 52.993C29.2398 53.2942 39.5073 53.3868 39.5073 53.3868C39.5073 53.3868 47.8085 53.372 53.3323 52.9782C54.1038 52.8856 55.7863 52.8782 57.2897 51.3044C58.4772 50.1083 58.8636 47.3853 58.8636 47.3853C58.8636 47.3853 59.2573 44.1919 59.2573 40.99V37.9966C59.2499 34.8021 58.8562 31.6013 58.8562 31.6013V31.6001ZM35.4191 44.6227V33.5208L46.089 39.0915L35.4191 44.6227Z" fill="#D2272C"/>
</g>
<defs>
<clipPath id="clip0_3_884">
<rect width="39.5" height="39.5" fill="white" transform="translate(19.75 19.75)"/>
</clipPath>
</defs>
</svg>
