<svg width="48" height="48" viewBox="0 0 48 48" fill="none" xmlns="http://www.w3.org/2000/svg">
<path d="M39.0607 19.0607C39.6464 18.4749 39.6464 17.5251 39.0607 16.9393C38.4749 16.3536 37.5251 16.3536 36.9393 16.9393L39.0607 19.0607ZM24 32L22.9393 33.0607C23.5251 33.6464 24.4749 33.6464 25.0607 33.0607L24 32ZM11.0607 16.9393C10.4749 16.3536 9.52513 16.3536 8.93934 16.9393C8.35355 17.5251 8.35355 18.4749 8.93934 19.0607L11.0607 16.9393ZM36.9393 16.9393L22.9393 30.9393L25.0607 33.0607L39.0607 19.0607L36.9393 16.9393ZM25.0607 30.9393L11.0607 16.9393L8.93934 19.0607L22.9393 33.0607L25.0607 30.9393Z" fill="white"/>
</svg>
