<svg width="341" height="122" viewBox="0 0 341 122" fill="none" xmlns="http://www.w3.org/2000/svg">
<g clip-path="url(#clip0_134_2117)">
<path d="M38.8 71.9C38.8 75.8 38.2 78.9 36.9 81.2C35.6 83.5 34 85.2 31.9 86.4C29.9 87.6 27.6 88.4 25.1 88.7C22.6 89.1 20.2 89.2 17.8 89.2C13.9 89.2 10.8 88.7 8.4 87.6C6 86.5 4.1 85.1 2.9 83.3C1.6 81.5 0.8 79.4 0.4 77.1C0 74.7 -0.1 72.3 0.1 69.7H12.7C12.7 71.1 12.8 72.5 12.9 73.8C13 75.1 13.3 76.2 13.7 77.2C14.1 78.2 14.9 78.9 15.8 79.5C16.8 80.1 18.1 80.3 19.8 80.3C21.9 80.3 23.5 79.7 24.5 78.4C25.6 77.2 26.1 75.5 26.1 73.4C26.1 71.6 25.5 70.1 24.2 68.7C23 67.4 21.4 66.1 19.5 64.9C17.6 63.7 15.6 62.5 13.4 61.3C11.2 60.1 9.2 58.7 7.3 57.1C5.4 55.5 3.8 53.7 2.6 51.6C1.4 49.5 0.7 46.9 0.7 43.9C0.7 41.6 1 39.4 1.7 37.3C2.3 35.2 3.4 33.5 4.9 31.9C6.4 30.4 8.4 29.2 11 28.3C13.6 27.4 16.7 27 20.6 27C26.7 27 31.2 28.4 34.2 31.3C37.2 34.2 38.5 38.8 38.1 45H25.9C25.9 43.9 25.8 42.8 25.7 41.7C25.6 40.6 25.3 39.6 24.9 38.8C24.5 37.9 23.9 37.2 23.2 36.7C22.5 36.2 21.4 35.9 20.2 35.9C18.1 35.9 16.6 36.4 15.4 37.5C14.3 38.6 13.7 40.2 13.7 42.3C13.7 44.2 14.3 45.8 15.6 47.1C16.8 48.4 18.4 49.7 20.3 50.8C22.2 51.9 24.2 53 26.4 54.2C28.6 55.3 30.6 56.7 32.5 58.2C34.4 59.7 36 61.6 37.2 63.7C38.2 66.1 38.8 68.7 38.8 71.9Z" fill="#878787"/>
<path d="M83.3 28.1992V38.1992H69.3V88.2992H56.7V38.1992H42.7V28.1992H83.3Z" fill="#878787"/>
<path d="M148 88.2992H135.4V28.1992H158.6C162.9 28.1992 166.4 29.4992 168.9 32.1992C171.4 34.8992 172.7 38.7992 172.7 43.8992C172.7 47.6992 171.9 50.9992 170.2 53.5992C168.5 56.2992 165.6 57.8992 161.6 58.5992V58.7992C162.3 58.8992 163.2 59.0992 164.4 59.2992C165.6 59.4992 166.8 59.9992 168 60.7992C169.2 61.5992 170.2 62.6992 171.1 64.2992C172 65.7992 172.4 67.8992 172.4 70.6992C172.4 71.5992 172.4 72.9992 172.4 74.6992C172.4 76.3992 172.5 78.1992 172.6 79.9992C172.7 81.7992 172.9 83.4992 173.1 85.0992C173.3 86.6992 173.5 87.6992 173.8 88.2992H161.5C160.7 86.4992 160.2 84.5992 160.2 82.5992C160.2 80.5992 160.2 78.5992 160.2 76.6992C160.2 74.8992 160.2 73.1992 160.2 71.5992C160.2 69.9992 159.9 68.5992 159.4 67.3992C158.9 66.1992 158 65.2992 156.7 64.4992C155.5 63.7992 153.6 63.3992 151.3 63.3992H148V88.2992ZM148 54.1992H153.6C154.8 54.1992 155.8 53.8992 156.7 53.3992C157.5 52.7992 158.2 52.0992 158.7 51.2992C159.2 50.3992 159.5 49.4992 159.7 48.3992C159.9 47.2992 160 46.2992 160 45.3992C160 42.4992 159.4 40.4992 158.3 39.2992C157.2 38.0992 155.6 37.4992 153.6 37.4992H148V54.1992Z" fill="#878787"/>
<path d="M219 71.9C219 75.8 218.4 78.9 217.1 81.2C215.8 83.5 214.2 85.2 212.1 86.4C210.1 87.6 207.8 88.4 205.3 88.7C202.8 89.1 200.4 89.2 198 89.2C194.1 89.2 191 88.7 188.6 87.6C186.2 86.5 184.3 85.1 183.1 83.3C181.8 81.5 181 79.4 180.6 77.1C180.2 74.7 180.1 72.3 180.3 69.7H192.9C192.9 71.1 193 72.5 193.1 73.8C193.2 75.1 193.5 76.2 193.9 77.2C194.3 78.2 195.1 78.9 196 79.5C197 80.1 198.3 80.3 200 80.3C202.1 80.3 203.7 79.7 204.7 78.4C205.8 77.2 206.3 75.5 206.3 73.4C206.3 71.6 205.7 70.1 204.4 68.7C203.2 67.4 201.6 66.1 199.7 64.9C197.8 63.7 195.8 62.5 193.6 61.3C191.4 60.1 189.4 58.7 187.5 57.1C185.6 55.5 184 53.7 182.8 51.6C181.6 49.5 180.9 46.9 180.9 43.9C180.9 41.6 181.2 39.4 181.9 37.3C182.5 35.2 183.6 33.5 185.1 31.9C186.6 30.4 188.6 29.2 191.2 28.3C193.8 27.4 196.9 27 200.8 27C206.9 27 211.4 28.4 214.4 31.3C217.4 34.2 218.7 38.8 218.3 45H206C206 43.9 205.9 42.8 205.8 41.7C205.7 40.6 205.4 39.6 205 38.8C204.6 37.9 204 37.2 203.3 36.7C202.6 36.2 201.5 35.9 200.3 35.9C198.2 35.9 196.7 36.4 195.5 37.5C194.4 38.6 193.8 40.2 193.8 42.3C193.8 44.2 194.4 45.8 195.7 47.1C196.9 48.4 198.5 49.7 200.4 50.8C202.3 51.9 204.3 53 206.5 54.2C208.7 55.3 210.7 56.7 212.6 58.2C214.5 59.7 216.1 61.6 217.3 63.7C218.4 66.1 219 68.7 219 71.9Z" fill="#878787"/>
<path d="M254.9 52.1992V28.1992H267.5V88.2992H254.9V61.4992H240.5V88.2992H228V28.1992H240.6V52.1992H254.9Z" fill="#878787"/>
<path d="M278.8 88.2992V28.1992H291.4V88.2992H278.8Z" fill="#878787"/>
<path d="M301.6 28.1992H324.2C327.1 28.1992 329.5 28.5992 331.6 29.3992C333.6 30.1992 335.3 31.3992 336.6 32.9992C337.9 34.5992 338.8 36.4992 339.4 38.6992C340 40.8992 340.3 43.3992 340.3 46.0992C340.3 47.7992 340.1 49.6992 339.8 51.7992C339.4 53.8992 338.7 55.7992 337.5 57.4992C336.3 59.2992 334.6 60.7992 332.4 61.9992C330.2 63.1992 327.2 63.7992 323.6 63.7992H314.3V88.2992H301.7V28.1992H301.6ZM314.1 54.5992H321.1C322 54.5992 322.9 54.3992 323.7 53.8992C324.5 53.3992 325.1 52.7992 325.7 52.0992C326.3 51.3992 326.7 50.4992 327 49.4992C327.3 48.4992 327.5 47.4992 327.5 46.4992C327.5 45.2992 327.4 44.0992 327.2 42.9992C327 41.8992 326.6 40.8992 326.1 40.0992C325.6 39.2992 324.9 38.5992 323.9 38.0992C323 37.5992 321.8 37.3992 320.4 37.3992H314.1V54.5992Z" fill="#878787"/>
<path d="M1.80005 121.8V103.6H11.2V105.6H4.20005V111.5H10.8V113.5H4.20005V119.8H11.4V121.8H1.80005Z" fill="#878787"/>
<path d="M39.2001 103.5V121.7H36.0001L28.8001 105.9H28.7001V121.7H26.6001V103.5H30.0001L37.1001 119.1H37.2001V103.5H39.2001Z" fill="#878787"/>
<path d="M65.8 103.5V105.5H61V121.7H58.7V105.5H53.9V103.5H65.8Z" fill="#878787"/>
<path d="M80.6001 121.8V103.6H90.0001V105.6H82.9001V111.5H89.5001V113.5H82.9001V119.8H90.1001V121.8H80.6001Z" fill="#878787"/>
<path d="M107.6 113.4V121.8H105.3V103.6H111.6C112.4 103.6 113.1 103.7 113.6 104C114.2 104.3 114.6 104.6 115 105C115.3 105.4 115.6 105.9 115.7 106.5C115.9 107 115.9 107.6 115.9 108.2C115.9 109.3 115.6 110.2 115 111C114.4 111.8 113.6 112.2 112.5 112.4V112.5C113 112.6 113.5 112.7 113.8 112.9C114.2 113.1 114.5 113.3 114.7 113.6C114.9 113.9 115.1 114.4 115.2 115C115.3 115.6 115.4 116.3 115.4 117.2C115.4 117.4 115.4 117.7 115.5 118.1C115.5 118.5 115.6 119 115.6 119.4C115.7 119.9 115.7 120.3 115.8 120.8C115.9 121.3 116 121.6 116 121.9H113.6C113.4 121.6 113.3 121.2 113.2 120.8C113.1 120.4 113.1 119.9 113 119.3C113 118.8 112.9 118.2 112.9 117.6C112.9 117 112.8 116.4 112.8 115.8C112.7 115.2 112.6 114.8 112.4 114.5C112.2 114.2 111.9 114 111.7 113.8C111.4 113.6 111.1 113.6 110.8 113.5C110.5 113.5 110.3 113.4 110.1 113.4H107.6ZM107.6 111.3H111.1C111.5 111.3 111.9 111.2 112.2 111C112.5 110.8 112.8 110.6 113 110.3C113.2 110 113.4 109.7 113.5 109.3C113.6 108.9 113.7 108.6 113.7 108.1C113.7 107.8 113.7 107.5 113.6 107.1C113.5 106.8 113.4 106.5 113.2 106.2C113 105.9 112.8 105.7 112.4 105.6C112.1 105.4 111.7 105.3 111.3 105.3H107.8V111.3H107.6Z" fill="#878787"/>
<path d="M142.6 103.5V105.5H137.8V121.7H135.5V105.5H130.7V103.5H142.6Z" fill="#878787"/>
<path d="M161.6 103.5H164.6L170.5 121.7H167.9L166.6 117.4H159.5L158.1 121.7H155.7L161.6 103.5ZM163 105.7L160.1 115.4H165.9L163 105.7Z" fill="#878787"/>
<path d="M187.7 121.8H185.4V103.6H187.7V121.8Z" fill="#878787"/>
<path d="M218.1 103.5V121.7H215L207.8 105.9H207.7V121.7H205.6V103.5H208.9L216 119.1H216.1V103.5H218.1Z" fill="#878787"/>
<path d="M236.7 121.8H234.5V103.6H238.3L242.9 118.9H243L247.7 103.6H251.5V121.8H249.2V105.6H249.1L244 121.8H241.8L236.8 105.6H236.7V121.8Z" fill="#878787"/>
<path d="M267.7 121.8V103.6H277.1V105.6H270V111.5H276.6V113.5H270V119.8H277.2V121.8H267.7Z" fill="#878787"/>
<path d="M306.6 103.5V121.7H303.4L296.2 105.9H296.1V121.7H294V103.5H297.3L304.4 119.1H304.5V103.5H306.6Z" fill="#878787"/>
<path d="M333.2 103.5V105.5H328.4V121.7H326.1V105.5H321.3V103.5H333.2Z" fill="#878787"/>
<path d="M101.7 72.5998C100.8 72.3998 100.5 72.6998 100.2 73.0998C99.9 73.4998 98.8 75.7998 98 77.7998C97.2 79.7998 96.4 82.4998 96.3 82.9998C96.2 83.4998 96.4 84.5998 97.2 84.5998C98 84.5998 98.3 83.7998 98.4 83.5998C98.5 83.3998 99.7 80.1998 100.1 79.0998C100.5 77.9998 101.6 75.1998 101.9 74.0998C102.4 73.0998 101.7 72.5998 101.7 72.5998Z" fill="#878787"/>
<path d="M105.7 77.4998C105.6 76.5998 104.8 76.4998 104.8 76.4998C104.8 76.4998 103.7 76.2998 103.6 77.4998C103.5 78.6998 103.3 87.9998 103.3 89.5998C103.3 91.1998 103.1 93.0998 104.2 93.0998C105.4 93.0998 105.3 91.8998 105.3 91.8998C105.6 87.1998 105.7 78.3998 105.7 77.4998Z" fill="#878787"/>
<path d="M111.6 76.6995C111 75.2995 110.3 75.6995 110.1 75.7995C109.9 75.8995 109.6 75.9995 109.5 76.5995C109.4 77.1995 111.1 83.8995 111.5 85.4995C111.9 87.0995 112.4 87.4995 113.3 87.1995C114.2 86.8995 113.8 85.2995 113.8 85.2995C113.6 82.8995 112.2 78.0995 111.6 76.6995Z" fill="#878787"/>
<path d="M126 57.9997C125.8 52.4997 125.3 50.3997 123.8 48.1997C122.3 45.9997 120 45.5997 120 45.5997C120 45.5997 120.3 41.7997 119.8 33.8997C119.3 25.9997 115.3 15.5997 113.5 11.7997C112.3 9.39969 109.8 4.59969 108.1 1.49969C107.2 -0.100314 105.1 -0.500314 103.7 0.699686C94.7 8.79969 92.3 23.8997 92.3 23.8997C91.1 29.5997 89.8 36.5997 89.8 44.9997C89.8 45.3997 89.8 45.8997 89.8 46.2997L87.7 47.5997L83.5 57.9997C83.5 57.9997 83 58.9997 83.1 59.9997C83.1 60.8997 84.5 73.4997 84.5 73.4997C84.5 73.4997 84.7 75.7997 86.3 75.7997C87.9 75.7997 89 73.7997 90.2 72.4997C91.3 71.1997 95.2 66.9997 96.3 66.8997C97.2 67.0997 101.1 67.7997 106.6 67.7997C110.8 67.7997 112.6 67.5997 114 66.9997C115.8 68.7997 123.3 76.0997 124.6 76.0997C125.5 76.0997 125.7 73.9997 126 72.1997C126.3 70.2997 126.3 63.4997 126 57.9997ZM105.2 5.49969C105.2 5.49969 107.9 9.89969 108.2 11.1997C108.5 12.3997 110.3 16.3997 111.1 18.0997C111.8 19.7997 113.2 23.7997 113.2 23.7997H96.9C96.9 23.8997 99.3 10.8997 105.2 5.49969ZM88 67.7997C87.8 66.6997 87.2 61.4997 87.1 59.9997C87.1 58.4997 87.3 58.1997 88.3 55.7997C89.2 53.5997 90.2 52.2997 90.4 51.9997C91.1 56.9997 92.4 61.6997 92.7 63.3997C92.7 63.4997 92.7 63.4997 92.8 63.5997C91.3 64.5997 88 67.7997 88 67.7997ZM106.6 63.3997C102.7 63.3997 99.2 63.0997 97.7 62.8997C97.3 62.8997 96.9 62.4997 96.8 62.0997C96.2 59.5997 94.3 50.8997 94.3 44.9997C94.3 38.0997 95.3 32.8997 95.3 32.8997H115.3C115.3 32.8997 116 36.8997 116 41.1997C116 45.0997 114.7 58.4997 114.2 62.2997C114.1 62.7997 113.7 63.0997 113.3 63.1997C112.2 63.2997 110 63.3997 106.6 63.3997ZM121.8 68.3997C121.8 68.3997 119.8 66.3997 117.5 64.4997C118.8 62.2997 118.9 58.8997 118.9 58.8997L119.6 50.2997C120.3 50.8997 121.7 52.4997 121.9 55.8997C122.2 60.3997 121.8 68.3997 121.8 68.3997Z" fill="#878787"/>
<path d="M114.3 45.6L107.9 44.6L105.1 39L102.4 44.6L96 45.6L100.6 49.9L99.5 56.5L105.1 53.3L110.8 56.5L109.7 49.9L114.3 45.6Z" fill="#878787"/>
</g>
<defs>
<clipPath id="clip0_134_2117">
<rect width="340.2" height="121.8" fill="white"/>
</clipPath>
</defs>
</svg>
