<svg width="48" height="74" viewBox="0 0 48 74" fill="none" xmlns="http://www.w3.org/2000/svg">
<path d="M24 34C30.0751 34 35 29.0751 35 23C35 16.9249 30.0751 12 24 12C17.9249 12 13 16.9249 13 23C13 29.0751 17.9249 34 24 34Z" fill="#626262"/>
<path d="M22.3285 19.3814C22.3285 19.6994 22.3285 21.1174 22.3285 21.1174H21.0566V23.24H22.3285V29.058H24.941V23.2357H26.6941C26.6941 23.2357 26.8574 22.2174 26.9391 21.1045C26.7113 21.1045 24.9539 21.1045 24.9539 21.1045C24.9539 21.1045 24.9539 19.8713 24.9539 19.6521C24.9539 19.4373 25.2375 19.1451 25.5211 19.1451C25.8004 19.1451 26.3934 19.1451 26.9434 19.1451C26.9434 18.8572 26.9434 17.8561 26.9434 16.9365C26.2086 16.9365 25.375 16.9365 25.0098 16.9365C22.2641 16.9408 22.3285 19.0635 22.3285 19.3814Z" fill="white"/>
<path d="M24 60C30.0751 60 35 55.0751 35 49C35 42.9249 30.0751 38 24 38C17.9249 38 13 42.9249 13 49C13 55.0751 17.9249 60 24 60Z" fill="#8F81C7"/>
<path d="M22.3285 45.3814C22.3285 45.6994 22.3285 47.1174 22.3285 47.1174H21.0566V49.24H22.3285V55.058H24.941V49.2357H26.6941C26.6941 49.2357 26.8574 48.2174 26.9391 47.1045C26.7113 47.1045 24.9539 47.1045 24.9539 47.1045C24.9539 47.1045 24.9539 45.8713 24.9539 45.6521C24.9539 45.4373 25.2375 45.1451 25.5211 45.1451C25.8004 45.1451 26.3934 45.1451 26.9434 45.1451C26.9434 44.8572 26.9434 43.8561 26.9434 42.9365C26.2086 42.9365 25.375 42.9365 25.0098 42.9365C22.2641 42.9408 22.3285 45.0635 22.3285 45.3814Z" fill="white"/>
</svg>
