<svg width="48" height="73" viewBox="0 0 48 73" fill="none" xmlns="http://www.w3.org/2000/svg">
<path d="M16.0571 16.4336H21.42V31.0798H16.0571V16.4336Z" fill="#626262"/>
<path d="M33.0584 22.3351C33.2437 22.625 33.3693 22.949 33.4279 23.2881C33.4864 23.6272 33.4767 23.9746 33.3993 24.3098C33.3219 24.6451 33.1784 24.9616 32.9772 25.2408C32.776 25.5199 32.5212 25.7561 32.2276 25.9356L20.1458 33.3192C19.5446 33.6868 18.8233 33.8039 18.1366 33.6455C17.45 33.4871 16.8529 33.0657 16.4735 32.4719C16.2882 32.1819 16.1626 31.8579 16.1041 31.5188C16.0456 31.1798 16.0553 30.8324 16.1327 30.4971C16.21 30.1618 16.3535 29.8453 16.5547 29.5662C16.7559 29.287 17.0108 29.0508 17.3044 28.8714L29.3861 21.4867C29.9875 21.1193 30.7089 21.0023 31.3955 21.1609C32.0822 21.3195 32.6792 21.7411 33.0584 22.3351V22.3351Z" fill="#626262"/>
<path d="M16.4572 14.9614C16.8367 14.3664 17.4344 13.9439 18.1219 13.7845C18.8094 13.6251 19.5321 13.7416 20.1347 14.109L32.2441 21.4947C32.5383 21.6741 32.7937 21.9104 32.9954 22.1897C33.1972 22.469 33.3412 22.7858 33.419 23.1214C33.4969 23.4571 33.507 23.8049 33.4488 24.1445C33.3906 24.4841 33.2653 24.8087 33.0801 25.0993C32.7006 25.6943 32.1029 26.1169 31.4154 26.2762C30.7279 26.4356 30.0053 26.3191 29.4027 25.9517L17.2932 18.5661C16.9991 18.3867 16.7436 18.1504 16.5419 17.871C16.3401 17.5917 16.1961 17.275 16.1183 16.9393C16.0404 16.6037 16.0303 16.2558 16.0885 15.9162C16.1467 15.5766 16.272 15.252 16.4572 14.9614V14.9614Z" fill="#626262"/>
<path d="M16.0571 41.4336H21.42V56.0798H16.0571V41.4336Z" fill="#8F81C7"/>
<path d="M33.0584 47.3351C33.2437 47.625 33.3693 47.949 33.4279 48.2881C33.4864 48.6272 33.4767 48.9746 33.3993 49.3098C33.3219 49.6451 33.1784 49.9616 32.9772 50.2408C32.776 50.5199 32.5212 50.7561 32.2276 50.9356L20.1458 58.3192C19.5446 58.6868 18.8233 58.8039 18.1366 58.6455C17.45 58.4871 16.8529 58.0657 16.4735 57.4719C16.2882 57.1819 16.1626 56.8579 16.1041 56.5188C16.0456 56.1798 16.0553 55.8324 16.1327 55.4971C16.21 55.1618 16.3535 54.8453 16.5547 54.5662C16.7559 54.287 17.0108 54.0508 17.3044 53.8714L29.3861 46.4867C29.9875 46.1193 30.7089 46.0023 31.3955 46.1609C32.0822 46.3195 32.6792 46.7411 33.0584 47.3351V47.3351Z" fill="#8F81C7"/>
<path d="M16.4572 39.9614C16.8367 39.3664 17.4344 38.9439 18.1219 38.7845C18.8094 38.6251 19.5321 38.7416 20.1347 39.109L32.2441 46.4947C32.5383 46.6741 32.7937 46.9104 32.9954 47.1897C33.1972 47.469 33.3412 47.7858 33.419 48.1214C33.4969 48.4571 33.507 48.8049 33.4488 49.1445C33.3906 49.4841 33.2653 49.8087 33.0801 50.0993C32.7006 50.6943 32.1029 51.1169 31.4154 51.2762C30.7279 51.4356 30.0053 51.3191 29.4027 50.9517L17.2932 43.5661C16.9991 43.3867 16.7436 43.1504 16.5419 42.871C16.3401 42.5917 16.1961 42.275 16.1183 41.9393C16.0404 41.6037 16.0303 41.2558 16.0885 40.9162C16.1467 40.5766 16.272 40.252 16.4572 39.9614V39.9614Z" fill="#8F81C7"/>
</svg>
