<svg width="48" height="73" viewBox="0 0 48 73" fill="none" xmlns="http://www.w3.org/2000/svg">
<path d="M31.0258 20.9544C30.6878 20.8529 30.3393 20.8189 29.9973 20.8464C29.6743 20.1489 29.0668 19.5914 28.2883 19.3569C28.1548 19.3169 28.0193 19.2874 27.8828 19.2679L28.2838 17.5339C28.6838 15.8024 27.6008 14.0679 25.8693 13.6669C24.1388 13.2674 22.4033 14.3494 22.0028 16.0809L21.9333 16.3814L21.8638 16.0814C21.4633 14.3499 19.7273 13.2669 17.9973 13.6674C16.2653 14.0679 15.1823 15.8029 15.5828 17.5344L16.7023 22.3724C16.1753 22.7794 16.0208 23.3034 16.0208 24.0144V26.4379C16.0208 30.5769 19.2093 33.8974 23.3483 33.8974C26.6468 33.8974 29.5993 31.7899 30.5908 28.7029C31.3613 28.3949 31.9648 27.7504 32.2148 26.9184L32.8823 24.4084C33.3223 22.9444 32.4898 21.3949 31.0258 20.9544ZM30.2083 26.0384C30.1208 26.3134 29.9313 26.5379 29.6758 26.6704C29.4193 26.8034 29.1268 26.8284 28.8523 26.7404C28.2848 26.5599 27.9703 25.9509 28.1543 25.3729L28.7368 23.3819L28.7753 23.2609C28.9258 22.8114 29.3453 22.5229 29.7978 22.5229C29.9063 22.5229 30.0163 22.5394 30.1243 22.5739C30.4233 22.6689 30.7033 22.8589 30.8548 23.1124C30.9298 23.3649 30.9603 23.6284 30.9138 23.7829L30.7148 24.4489L30.2083 26.0384ZM27.8113 22.9829L27.7823 23.0829L26.9663 25.6469C26.7858 26.2144 26.1758 26.5284 25.6098 26.3479C25.3838 26.2759 25.1973 26.1289 25.0638 25.9414C25.6238 25.5489 25.9928 24.9014 25.9928 24.1669C25.9928 23.6919 25.8348 23.2559 25.5748 22.8984L25.9193 21.8174C26.0068 21.5424 26.1963 21.3179 26.4518 21.1859C26.7093 21.0529 27.0018 21.0289 27.2753 21.1164C27.5503 21.2039 27.7748 21.3929 27.9073 21.6489C28.0398 21.9054 28.0638 22.1979 27.9768 22.4724L27.8213 22.9604C27.8183 22.9684 27.8138 22.9749 27.8113 22.9829ZM18.4808 15.7569C18.5623 15.7379 18.6443 15.7289 18.7263 15.7289C18.9258 15.7289 19.1218 15.7844 19.2953 15.8929C19.5398 16.0454 19.7098 16.2839 19.7748 16.5649L20.9778 20.4769C21.1373 20.9424 21.4348 21.3074 21.9338 21.3074C22.4328 21.3074 22.7688 20.9654 22.9058 20.4769L24.0928 16.5649C24.1573 16.2844 24.3278 16.0454 24.5723 15.8929C24.8168 15.7399 25.1053 15.6919 25.3868 15.7569C25.9663 15.8914 26.3288 16.4719 26.1948 17.0514L25.0473 21.3244C25.0203 21.3874 24.9873 21.4474 24.9663 21.5134L24.7443 22.2109C24.4643 22.0789 24.1548 21.9989 23.8253 21.9989H18.9723C18.9203 21.9989 18.8723 22.0099 18.8218 22.0134L17.6738 17.0514C17.5388 16.4719 17.9013 15.8909 18.4808 15.7569ZM23.3478 31.7524C20.3913 31.7524 18.0853 29.5059 18.0853 26.5499V25.6614C18.0853 25.6579 18.0873 25.6549 18.0873 25.6514V23.9389C18.0873 23.3944 18.4588 22.9994 18.9713 22.9994H23.8243C24.4683 22.9994 24.9923 23.5234 24.9923 24.1674C24.9923 24.8114 24.4683 25.3354 23.8243 25.3354H21.1603C20.8843 25.3354 20.6603 25.5589 20.6603 25.8349C20.6603 26.1114 20.8833 26.3349 21.1598 26.3354C21.5373 26.3359 21.9338 26.5209 22.2473 26.8434C22.6848 27.2929 22.9153 27.9464 22.8963 28.6824C22.8893 28.9589 23.1073 29.1884 23.3833 29.1954C23.3883 29.1954 23.3928 29.1954 23.3968 29.1954C23.6668 29.1954 23.8888 28.9799 23.8963 28.7084C23.9198 27.7954 23.6508 26.9629 23.1338 26.3354H23.8248C23.9223 26.3354 24.0158 26.3189 24.1103 26.3064C24.3638 26.7754 24.7873 27.1359 25.3063 27.3009C25.5153 27.3674 25.7273 27.3989 25.9358 27.3989C26.4918 27.3989 27.0228 27.1729 27.4103 26.7854C27.6618 27.2004 28.0508 27.5349 28.5483 27.6934C28.5788 27.7029 28.6093 27.7069 28.6398 27.7149C28.0303 30.0954 25.8178 31.7524 23.3478 31.7524Z" fill="#626262"/>
<path d="M31.0258 45.9544C30.6878 45.8529 30.3393 45.8189 29.9973 45.8464C29.6743 45.1489 29.0668 44.5914 28.2883 44.3569C28.1548 44.3169 28.0193 44.2874 27.8828 44.2679L28.2838 42.5339C28.6838 40.8024 27.6008 39.0679 25.8693 38.6669C24.1388 38.2674 22.4033 39.3494 22.0028 41.0809L21.9333 41.3814L21.8638 41.0814C21.4633 39.3499 19.7273 38.2669 17.9973 38.6674C16.2653 39.0679 15.1823 40.8029 15.5828 42.5344L16.7023 47.3724C16.1753 47.7794 16.0208 48.3034 16.0208 49.0144V51.4379C16.0208 55.5769 19.2093 58.8974 23.3483 58.8974C26.6468 58.8974 29.5993 56.7899 30.5908 53.7029C31.3613 53.3949 31.9648 52.7504 32.2148 51.9184L32.8823 49.4084C33.3223 47.9444 32.4898 46.3949 31.0258 45.9544ZM30.2083 51.0384C30.1208 51.3134 29.9313 51.5379 29.6758 51.6704C29.4193 51.8034 29.1268 51.8284 28.8523 51.7404C28.2848 51.5599 27.9703 50.9509 28.1543 50.3729L28.7368 48.3819L28.7753 48.2609C28.9258 47.8114 29.3453 47.5229 29.7978 47.5229C29.9063 47.5229 30.0163 47.5394 30.1243 47.5739C30.4233 47.6689 30.7033 47.8589 30.8548 48.1124C30.9298 48.3649 30.9603 48.6284 30.9138 48.7829L30.7148 49.4489L30.2083 51.0384ZM27.8113 47.9829L27.7823 48.0829L26.9663 50.6469C26.7858 51.2144 26.1758 51.5284 25.6098 51.3479C25.3838 51.2759 25.1973 51.1289 25.0638 50.9414C25.6238 50.5489 25.9928 49.9014 25.9928 49.1669C25.9928 48.6919 25.8348 48.2559 25.5748 47.8984L25.9193 46.8174C26.0068 46.5424 26.1963 46.3179 26.4518 46.1859C26.7093 46.0529 27.0018 46.0289 27.2753 46.1164C27.5503 46.2039 27.7748 46.3929 27.9073 46.6489C28.0398 46.9054 28.0638 47.1979 27.9768 47.4724L27.8213 47.9604C27.8183 47.9684 27.8138 47.9749 27.8113 47.9829ZM18.4808 40.7569C18.5623 40.7379 18.6443 40.7289 18.7263 40.7289C18.9258 40.7289 19.1218 40.7844 19.2953 40.8929C19.5398 41.0454 19.7098 41.2839 19.7748 41.5649L20.9778 45.4769C21.1373 45.9424 21.4348 46.3074 21.9338 46.3074C22.4328 46.3074 22.7688 45.9654 22.9058 45.4769L24.0928 41.5649C24.1573 41.2844 24.3278 41.0454 24.5723 40.8929C24.8168 40.7399 25.1053 40.6919 25.3868 40.7569C25.9663 40.8914 26.3288 41.4719 26.1948 42.0514L25.0473 46.3244C25.0203 46.3874 24.9873 46.4474 24.9663 46.5134L24.7443 47.2109C24.4643 47.0789 24.1548 46.9989 23.8253 46.9989H18.9723C18.9203 46.9989 18.8723 47.0099 18.8218 47.0134L17.6738 42.0514C17.5388 41.4719 17.9013 40.8909 18.4808 40.7569ZM23.3478 56.7524C20.3913 56.7524 18.0853 54.5059 18.0853 51.5499V50.6614C18.0853 50.6579 18.0873 50.6549 18.0873 50.6514V48.9389C18.0873 48.3944 18.4588 47.9994 18.9713 47.9994H23.8243C24.4683 47.9994 24.9923 48.5234 24.9923 49.1674C24.9923 49.8114 24.4683 50.3354 23.8243 50.3354H21.1603C20.8843 50.3354 20.6603 50.5589 20.6603 50.8349C20.6603 51.1114 20.8833 51.3349 21.1598 51.3354C21.5373 51.3359 21.9338 51.5209 22.2473 51.8434C22.6848 52.2929 22.9153 52.9464 22.8963 53.6824C22.8893 53.9589 23.1073 54.1884 23.3833 54.1954C23.3883 54.1954 23.3928 54.1954 23.3968 54.1954C23.6668 54.1954 23.8888 53.9799 23.8963 53.7084C23.9198 52.7954 23.6508 51.9629 23.1338 51.3354H23.8248C23.9223 51.3354 24.0158 51.3189 24.1103 51.3064C24.3638 51.7754 24.7873 52.1359 25.3063 52.3009C25.5153 52.3674 25.7273 52.3989 25.9358 52.3989C26.4918 52.3989 27.0228 52.1729 27.4103 51.7854C27.6618 52.2004 28.0508 52.5349 28.5483 52.6934C28.5788 52.7029 28.6093 52.7069 28.6398 52.7149C28.0303 55.0954 25.8178 56.7524 23.3478 56.7524Z" fill="#8F81C7"/>
</svg>
