<svg width="48" height="73" viewBox="0 0 48 73" fill="none" xmlns="http://www.w3.org/2000/svg">
<path d="M23.6869 13.0126C25.6068 13.0126 27.528 13.0316 29.4479 13.0004C30.0486 12.9909 30.2845 13.1495 30.2804 13.7949C30.2551 17.6817 30.2551 21.5685 30.2804 25.4552C30.2804 26.0572 30.0703 26.2362 29.4913 26.2335C25.6045 26.2172 21.7178 26.2172 17.831 26.2335C17.2602 26.2335 17.0297 26.0722 17.0337 25.4634C17.0554 21.5766 17.0554 17.6898 17.0337 13.8031C17.0337 13.1685 17.2466 12.9895 17.8581 13.0018C19.7997 13.0329 21.7426 13.0126 23.6869 13.0126ZM26.5966 22.2256V17.0815H24.8421V19.522L24.6835 19.5912C24.1899 19.0231 23.6883 18.4631 23.2069 17.8855C22.449 16.9758 21.8511 16.8008 20.6918 17.1588V22.1849H22.491V19.4637C23.2259 20.322 23.8266 20.9931 24.3892 21.6955C24.6929 22.0724 25.0075 22.3097 25.5254 22.2378C25.8563 22.1849 26.1993 22.2256 26.5966 22.2256V22.2256Z" fill="#626262"/>
<path d="M17 27.168H30.244C30.0053 27.4852 29.8494 27.7103 29.6718 27.9232C28.9735 28.7502 28.2834 29.5855 27.5512 30.3827C27.3541 30.5812 27.0903 30.6995 26.8109 30.7149C24.7134 30.742 22.6078 30.7352 20.5157 30.723C20.3083 30.723 20.0263 30.6796 19.9056 30.544C18.9646 29.4878 18.0549 28.4045 17 27.168Z" fill="#626262"/>
<path d="M23.6556 34.9998L20.9438 31.7959H26.3578L23.6556 34.9998Z" fill="#626262"/>
<path d="M23.6869 38.0126C25.6068 38.0126 27.528 38.0316 29.4479 38.0004C30.0486 37.9909 30.2845 38.1495 30.2804 38.7949C30.2551 42.6817 30.2551 46.5685 30.2804 50.4552C30.2804 51.0572 30.0703 51.2362 29.4913 51.2335C25.6045 51.2172 21.7178 51.2172 17.831 51.2335C17.2602 51.2335 17.0297 51.0722 17.0337 50.4634C17.0554 46.5766 17.0554 42.6898 17.0337 38.8031C17.0337 38.1685 17.2466 37.9895 17.8581 38.0018C19.7997 38.0329 21.7426 38.0126 23.6869 38.0126ZM26.5966 47.2256V42.0815H24.8421V44.522L24.6835 44.5912C24.1899 44.0231 23.6883 43.4631 23.2069 42.8855C22.449 41.9758 21.8511 41.8008 20.6918 42.1588V47.1849H22.491V44.4637C23.2259 45.322 23.8266 45.9931 24.3892 46.6955C24.6929 47.0724 25.0075 47.3097 25.5254 47.2378C25.8563 47.1849 26.1993 47.2256 26.5966 47.2256V47.2256Z" fill="#8F81C7"/>
<path d="M17 52.168H30.244C30.0053 52.4852 29.8494 52.7103 29.6718 52.9232C28.9735 53.7502 28.2834 54.5855 27.5512 55.3827C27.3541 55.5812 27.0903 55.6995 26.8109 55.7149C24.7134 55.742 22.6078 55.7352 20.5157 55.723C20.3083 55.723 20.0263 55.6796 19.9056 55.544C18.9646 54.4878 18.0549 53.4045 17 52.168Z" fill="#8F81C7"/>
<path d="M23.6556 59.9998L20.9438 56.7959H26.3578L23.6556 59.9998Z" fill="#8F81C7"/>
</svg>
