<svg width="48" height="73" viewBox="0 0 48 73" fill="none" xmlns="http://www.w3.org/2000/svg">
<g clip-path="url(#clip0_224_1104)">
<path d="M35.7606 19.1996C35.7606 19.1996 35.5259 17.5451 34.8044 16.8184C33.8901 15.8621 32.8686 15.8576 32.3999 15.8014C29.0436 15.5576 24.0044 15.5576 24.0044 15.5576H23.9954C23.9954 15.5576 18.9561 15.5576 15.5999 15.8014C15.1311 15.8576 14.1096 15.8621 13.1954 16.8184C12.4731 17.5451 12.2436 19.1996 12.2436 19.1996C12.2436 19.1996 12.0044 21.1406 12.0044 23.0854V24.9041C12.0044 26.8444 12.2436 28.7899 12.2436 28.7899C12.2436 28.7899 12.4784 30.4444 13.1954 31.1711C14.1096 32.1274 15.3096 32.0944 15.8436 32.1979C17.7659 32.3809 24.0044 32.4371 24.0044 32.4371C24.0044 32.4371 29.0481 32.4281 32.4044 32.1889C32.8731 32.1326 33.8954 32.1281 34.8089 31.1719C35.5304 30.4451 35.7651 28.7906 35.7651 28.7906C35.7651 28.7906 36.0044 26.8504 36.0044 24.9049V23.0861C35.9999 21.1451 35.7606 19.2004 35.7606 19.2004V19.1996ZM21.5204 27.1121V20.3666L28.0034 23.7514L21.5204 27.1121Z" fill="#626262"/>
</g>
<g clip-path="url(#clip1_224_1104)">
<path d="M35.7606 44.1996C35.7606 44.1996 35.5259 42.5451 34.8044 41.8184C33.8901 40.8621 32.8686 40.8576 32.3999 40.8014C29.0436 40.5576 24.0044 40.5576 24.0044 40.5576H23.9954C23.9954 40.5576 18.9561 40.5576 15.5999 40.8014C15.1311 40.8576 14.1096 40.8621 13.1954 41.8184C12.4731 42.5451 12.2436 44.1996 12.2436 44.1996C12.2436 44.1996 12.0044 46.1406 12.0044 48.0854V49.9041C12.0044 51.8444 12.2436 53.7899 12.2436 53.7899C12.2436 53.7899 12.4784 55.4444 13.1954 56.1711C14.1096 57.1274 15.3096 57.0944 15.8436 57.1979C17.7659 57.3809 24.0044 57.4371 24.0044 57.4371C24.0044 57.4371 29.0481 57.4281 32.4044 57.1889C32.8731 57.1326 33.8954 57.1281 34.8089 56.1719C35.5304 55.4451 35.7651 53.7906 35.7651 53.7906C35.7651 53.7906 36.0044 51.8504 36.0044 49.9049V48.0861C35.9999 46.1451 35.7606 44.2004 35.7606 44.2004V44.1996ZM21.5204 52.1121V45.3666L28.0034 48.7514L21.5204 52.1121Z" fill="#8F81C7"/>
</g>
<defs>
<clipPath id="clip0_224_1104">
<rect width="24" height="24" fill="white" transform="translate(12 12)"/>
</clipPath>
<clipPath id="clip1_224_1104">
<rect width="24" height="24" fill="white" transform="translate(12 37)"/>
</clipPath>
</defs>
</svg>
