<svg width="48" height="48" viewBox="0 0 48 48" fill="none" xmlns="http://www.w3.org/2000/svg">
<path d="M16.0571 16.4333H21.42V31.0796H16.0571V16.4333Z" fill="white"/>
<path d="M33.0584 22.3346C33.2437 22.6245 33.3693 22.9485 33.4279 23.2876C33.4864 23.6267 33.4767 23.9741 33.3993 24.3094C33.3219 24.6446 33.1784 24.9611 32.9772 25.2403C32.776 25.5194 32.5212 25.7556 32.2276 25.9351L20.1458 33.3187C19.5446 33.6863 18.8233 33.8034 18.1366 33.645C17.45 33.4866 16.8529 33.0652 16.4735 32.4714C16.2882 32.1815 16.1626 31.8574 16.1041 31.5184C16.0456 31.1793 16.0553 30.8319 16.1327 30.4966C16.21 30.1613 16.3535 29.8448 16.5547 29.5657C16.7559 29.2865 17.0108 29.0503 17.3044 28.8709L29.3861 21.4862C29.9875 21.1188 30.7089 21.0018 31.3955 21.1604C32.0822 21.319 32.6792 21.7406 33.0584 22.3346V22.3346Z" fill="white"/>
<path d="M16.4572 14.9612C16.8367 14.3662 17.4344 13.9436 18.1219 13.7843C18.8094 13.6249 19.5321 13.7414 20.1347 14.1088L32.2441 21.4944C32.5383 21.6739 32.7937 21.9101 32.9954 22.1895C33.1972 22.4688 33.3412 22.7855 33.419 23.1212C33.4969 23.4568 33.507 23.8047 33.4488 24.1443C33.3906 24.4839 33.2653 24.8085 33.0801 25.0991C32.7006 25.6941 32.1029 26.1166 31.4154 26.276C30.7279 26.4354 30.0053 26.3189 29.4027 25.9515L17.2932 18.5658C16.9991 18.3864 16.7436 18.1501 16.5419 17.8708C16.3401 17.5915 16.1961 17.2747 16.1183 16.9391C16.0404 16.6034 16.0303 16.2556 16.0885 15.916C16.1467 15.5764 16.272 15.2518 16.4572 14.9612V14.9612Z" fill="white"/>
</svg>
