<svg width="48" height="48" viewBox="0 0 48 48" fill="none" xmlns="http://www.w3.org/2000/svg">
<g clip-path="url(#clip0_260_1349)">
<path d="M34.025 18.175C33.2859 18.5031 32.4938 18.7234 31.6609 18.8234C32.5109 18.314 33.1641 17.5078 33.4703 16.5484C32.6766 17.0187 31.7938 17.3609 30.8578 17.5453C30.1078 16.7453 29.0391 16.2468 27.8563 16.2468C25.5844 16.2468 23.7422 18.0875 23.7422 20.3593C23.7422 20.6812 23.7797 20.9953 23.85 21.2968C20.4313 21.125 17.4016 19.4875 15.3719 16.9984C15.0172 17.6078 14.8156 18.314 14.8156 19.0671C14.8156 20.4937 15.5406 21.7531 16.6453 22.4921C15.9703 22.4703 15.3359 22.2843 14.7813 21.9765C14.7813 21.9937 14.7813 22.0109 14.7813 22.0281C14.7813 24.0218 16.2 25.6828 18.0797 26.0625C17.7359 26.1562 17.3719 26.2062 16.9969 26.2062C16.7313 26.2062 16.4734 26.1812 16.2219 26.1312C16.7469 27.764 18.2656 28.9562 20.0641 28.989C18.6578 30.0921 16.8844 30.7484 14.9563 30.7484C14.6234 30.7484 14.2969 30.7296 13.9766 30.6906C15.7953 31.8593 17.9578 32.539 20.2813 32.539C27.8469 32.539 31.9844 26.2718 31.9844 20.8375C31.9844 20.6593 31.9797 20.4796 31.9734 20.3046C32.7766 19.725 33.4734 19 34.025 18.175Z" fill="white"/>
</g>
<defs>
<clipPath id="clip0_260_1349">
<rect width="20" height="20" fill="white" transform="translate(14 14)"/>
</clipPath>
</defs>
</svg>
