<svg width="48" height="48" viewBox="0 0 48 48" fill="none" xmlns="http://www.w3.org/2000/svg">
<g clip-path="url(#clip0_260_1371)">
<path d="M35.7606 19.2001C35.7606 19.2001 35.5259 17.5456 34.8044 16.8189C33.8901 15.8626 32.8686 15.8581 32.3999 15.8019C29.0436 15.5581 24.0044 15.5581 24.0044 15.5581H23.9954C23.9954 15.5581 18.9561 15.5581 15.5999 15.8019C15.1311 15.8581 14.1096 15.8626 13.1954 16.8189C12.4731 17.5456 12.2436 19.2001 12.2436 19.2001C12.2436 19.2001 12.0044 21.1411 12.0044 23.0859V24.9046C12.0044 26.8449 12.2436 28.7904 12.2436 28.7904C12.2436 28.7904 12.4784 30.4449 13.1954 31.1716C14.1096 32.1279 15.3096 32.0949 15.8436 32.1984C17.7659 32.3814 24.0044 32.4376 24.0044 32.4376C24.0044 32.4376 29.0481 32.4286 32.4044 32.1894C32.8731 32.1331 33.8954 32.1286 34.8089 31.1724C35.5304 30.4456 35.7651 28.7911 35.7651 28.7911C35.7651 28.7911 36.0044 26.8509 36.0044 24.9054V23.0866C35.9999 21.1456 35.7606 19.2009 35.7606 19.2009V19.2001ZM21.5204 27.1126V20.3671L28.0034 23.7519L21.5204 27.1126Z" fill="white"/>
</g>
<defs>
<clipPath id="clip0_260_1371">
<rect width="24" height="24" fill="white" transform="translate(12 12)"/>
</clipPath>
</defs>
</svg>
