<svg width="48" height="48" viewBox="0 0 48 48" fill="none" xmlns="http://www.w3.org/2000/svg">
<path d="M24 34C30.0751 34 35 29.0751 35 23C35 16.9249 30.0751 12 24 12C17.9249 12 13 16.9249 13 23C13 29.0751 17.9249 34 24 34Z" fill="white"/>
<path d="M22.3285 19.3814C22.3285 19.6994 22.3285 21.1174 22.3285 21.1174H21.0566V23.24H22.3285V29.058H24.941V23.2357H26.6941C26.6941 23.2357 26.8574 22.2174 26.9391 21.1045C26.7113 21.1045 24.9539 21.1045 24.9539 21.1045C24.9539 21.1045 24.9539 19.8713 24.9539 19.6521C24.9539 19.4373 25.2375 19.1451 25.5211 19.1451C25.8004 19.1451 26.3934 19.1451 26.9434 19.1451C26.9434 18.8572 26.9434 17.8561 26.9434 16.9365C26.2086 16.9365 25.375 16.9365 25.0098 16.9365C22.2641 16.9408 22.3285 19.0635 22.3285 19.3814Z" fill="white"/>
</svg>
