<svg width="48" height="48" viewBox="0 0 48 48" fill="none" xmlns="http://www.w3.org/2000/svg">
<g clip-path="url(#clip0_260_1358)">
<path d="M24 16.6204C26.4047 16.6204 26.6893 16.6311 27.6349 16.6733C28.5141 16.7121 28.9882 16.8595 29.3049 16.9826C29.7234 17.1446 30.0255 17.3415 30.3382 17.6543C30.6549 17.971 30.8479 18.2696 31.0133 18.6881C31.1364 19.0048 31.2838 19.4824 31.3226 20.3582C31.3648 21.3077 31.3755 21.5923 31.3755 23.9936C31.3755 26.395 31.3648 26.683 31.3226 27.6291C31.2838 28.5083 31.1364 28.9825 31.0133 29.2991C30.8513 29.7176 30.6549 30.0197 30.3416 30.3325C30.0249 30.6491 29.7263 30.8421 29.3083 31.0075C28.9916 31.1306 28.5135 31.278 27.6383 31.3168C26.6888 31.359 26.4041 31.3697 24.0028 31.3697C21.6015 31.3697 21.3135 31.359 20.3674 31.3168C19.4882 31.278 19.014 31.1306 18.6973 31.0075C18.2788 30.8455 17.9768 30.6491 17.6634 30.3358C17.3468 30.0191 17.1538 29.7205 16.9884 29.3025C16.8653 28.9858 16.7179 28.5077 16.6791 27.6325C16.6369 26.683 16.6262 26.3983 16.6262 23.997C16.6262 21.5957 16.6369 21.3077 16.6791 20.3616C16.7179 19.4824 16.8653 19.0082 16.9884 18.6915C17.1504 18.273 17.3473 17.971 17.6601 17.6576C17.9768 17.341 18.2754 17.148 18.6939 16.9826C19.0106 16.8595 19.4882 16.7121 20.364 16.6733C21.3096 16.6311 21.5947 16.6204 23.9994 16.6204H24ZM24 14.9998C21.5565 14.9998 21.2511 15.0105 20.2909 15.0527C19.3346 15.0949 18.6771 15.2496 18.1078 15.4712C17.5138 15.703 17.0109 16.009 16.512 16.5118C16.0091 17.0113 15.7031 17.5136 15.4714 18.1043C15.2498 18.6775 15.0951 19.3311 15.0529 20.2873C15.0107 21.2509 15 21.5563 15 23.9998C15 26.4433 15.0107 26.7488 15.0529 27.709C15.0951 28.6652 15.2498 29.3228 15.4714 29.892C15.7037 30.486 16.0091 30.9889 16.512 31.4878C17.0109 31.9868 17.5138 32.2967 18.1044 32.5251C18.6776 32.7467 19.3312 32.9014 20.2875 32.9436C21.2471 32.9858 21.5531 32.9965 23.9966 32.9965C26.4401 32.9965 26.7461 32.9858 27.7057 32.9436C28.662 32.9014 29.3196 32.7467 29.8888 32.5251C30.4794 32.2967 30.9823 31.9873 31.4812 31.4878C31.9802 30.9883 32.2901 30.486 32.5185 29.8954C32.7401 29.3222 32.8948 28.6686 32.937 27.7123C32.9792 26.7527 32.9899 26.4467 32.9899 24.0032C32.9899 21.5597 32.9792 21.2543 32.937 20.2941C32.8948 19.3378 32.7401 18.6803 32.5185 18.111C32.2969 17.5131 31.9909 17.0108 31.4886 16.5113C30.9896 16.0123 30.4868 15.7024 29.8961 15.474C29.3229 15.2524 28.6693 15.0977 27.7131 15.0555C26.7501 15.01 26.4441 14.9993 24.0006 14.9993L24 14.9998Z" fill="white"/>
<path d="M24.0001 19.3767C21.4481 19.3767 19.377 21.4473 19.377 23.9999C19.377 26.5525 21.4475 28.6231 24.0001 28.6231C26.5528 28.6231 28.6233 26.5525 28.6233 23.9999C28.6233 21.4478 26.5528 19.3767 24.0001 19.3767V19.3767ZM24.0001 26.9986C22.3441 26.9986 21.0015 25.6559 21.0015 23.9999C21.0015 22.3439 22.3441 21.0012 24.0001 21.0012C25.6561 21.0012 26.9988 22.3439 26.9988 23.9999C26.9988 25.6559 25.6561 26.9986 24.0001 26.9986Z" fill="white"/>
<path d="M29.8849 19.1939C29.8849 19.7902 29.4018 20.2734 28.8055 20.2734C28.2093 20.2734 27.7261 19.7902 27.7261 19.1939C27.7261 18.5977 28.2093 18.1145 28.8055 18.1145C29.4018 18.1145 29.8849 18.5977 29.8849 19.1939V19.1939Z" fill="white"/>
</g>
<defs>
<clipPath id="clip0_260_1358">
<rect width="18" height="18" fill="white" transform="translate(15 15)"/>
</clipPath>
</defs>
</svg>
