<svg width="48" height="48" viewBox="0 0 48 48" fill="none" xmlns="http://www.w3.org/2000/svg">
<path d="M29.4421 22.0793C29.1228 21.9823 28.9039 21.9153 29.0709 21.4888C29.4325 20.5621 29.4705 19.7628 29.0781 19.1926C28.3423 18.1228 26.3298 18.1802 24.0235 19.164C24.0235 19.1628 23.2988 19.4865 23.4839 18.9014C23.8388 17.74 23.7849 16.7679 23.2332 16.2063C21.9821 14.9316 18.6539 16.2547 15.7991 19.1588C13.6619 21.3347 12.4214 23.6409 12.4214 25.6349C12.4214 29.4486 17.226 32 21.927 32C28.0891 32 32.1888 28.1233 32.1888 25.23C32.1888 23.4814 30.7421 22.4893 29.4421 22.0793ZM21.9398 30.29C18.1886 30.6616 14.9512 28.9577 14.7072 26.4807C14.4637 24.0049 17.3077 21.6951 21.0584 21.3223C24.8098 20.9488 28.0479 22.6542 28.2909 25.13C28.5337 27.607 25.6916 29.917 21.9398 30.29ZM35.5609 18.9737C35.5591 15.1221 32.4365 12 28.5842 12C28.1344 12 27.7702 12.3644 27.7702 12.814C27.7702 13.2637 28.1344 13.6279 28.5842 13.6279C31.5384 13.6279 33.933 16.0228 33.933 18.9767C33.933 19.4265 34.2977 19.7907 34.747 19.7907C35.1967 19.7907 35.5609 19.4265 35.5609 18.9767C35.5609 18.9767 35.5609 18.9749 35.5609 18.9737ZM32.3267 18.8542C31.9549 17.0381 30.5232 15.6067 28.707 15.2347C28.2672 15.1442 27.8367 15.4277 27.7465 15.8679C27.6558 16.3081 27.9393 16.7381 28.3791 16.8291C29.56 17.0709 30.4907 18.0009 30.7323 19.1819C30.8232 19.6221 31.2532 19.9053 31.6935 19.8151C32.1335 19.7242 32.4167 19.2942 32.3267 18.8542ZM20.0158 23.7474C18.5046 24.0512 17.4851 25.3184 17.7381 26.5774C17.9909 27.8367 19.4212 28.6112 20.9323 28.3072C22.443 28.0035 23.463 26.7367 23.2098 25.4772C22.9572 24.2184 21.5265 23.4437 20.0158 23.7474Z" fill="white"/>
</svg>
