<svg width="48" height="48" viewBox="0 0 48 48" fill="none" xmlns="http://www.w3.org/2000/svg">
<path d="M31.0258 20.954C30.6878 20.8525 30.3393 20.8185 29.9973 20.846C29.6743 20.1485 29.0668 19.591 28.2883 19.3565C28.1548 19.3165 28.0193 19.287 27.8828 19.2675L28.2838 17.5335C28.6838 15.802 27.6008 14.0675 25.8693 13.6665C24.1388 13.267 22.4033 14.349 22.0028 16.0805L21.9333 16.381L21.8638 16.081C21.4633 14.3495 19.7273 13.2665 17.9973 13.667C16.2653 14.0675 15.1823 15.8025 15.5828 17.534L16.7023 22.372C16.1753 22.779 16.0208 23.303 16.0208 24.014V26.4375C16.0208 30.5765 19.2093 33.897 23.3483 33.897C26.6468 33.897 29.5993 31.7895 30.5908 28.7025C31.3613 28.3945 31.9648 27.75 32.2148 26.918L32.8823 24.408C33.3223 22.944 32.4898 21.3945 31.0258 20.954ZM30.2083 26.038C30.1208 26.313 29.9313 26.5375 29.6758 26.67C29.4193 26.803 29.1268 26.828 28.8523 26.74C28.2848 26.5595 27.9703 25.9505 28.1543 25.3725L28.7368 23.3815L28.7753 23.2605C28.9258 22.811 29.3453 22.5225 29.7978 22.5225C29.9063 22.5225 30.0163 22.539 30.1243 22.5735C30.4233 22.6685 30.7033 22.8585 30.8548 23.112C30.9298 23.3645 30.9603 23.628 30.9138 23.7825L30.7148 24.4485L30.2083 26.038ZM27.8113 22.9825L27.7823 23.0825L26.9663 25.6465C26.7858 26.214 26.1758 26.528 25.6098 26.3475C25.3838 26.2755 25.1973 26.1285 25.0638 25.941C25.6238 25.5485 25.9928 24.901 25.9928 24.1665C25.9928 23.6915 25.8348 23.2555 25.5748 22.898L25.9193 21.817C26.0068 21.542 26.1963 21.3175 26.4518 21.1855C26.7093 21.0525 27.0018 21.0285 27.2753 21.116C27.5503 21.2035 27.7748 21.3925 27.9073 21.6485C28.0398 21.905 28.0638 22.1975 27.9768 22.472L27.8213 22.96C27.8183 22.968 27.8138 22.9745 27.8113 22.9825ZM18.4808 15.7565C18.5623 15.7375 18.6443 15.7285 18.7263 15.7285C18.9258 15.7285 19.1218 15.784 19.2953 15.8925C19.5398 16.045 19.7098 16.2835 19.7748 16.5645L20.9778 20.4765C21.1373 20.942 21.4348 21.307 21.9338 21.307C22.4328 21.307 22.7688 20.965 22.9058 20.4765L24.0928 16.5645C24.1573 16.284 24.3278 16.045 24.5723 15.8925C24.8168 15.7395 25.1053 15.6915 25.3868 15.7565C25.9663 15.891 26.3288 16.4715 26.1948 17.051L25.0473 21.324C25.0203 21.387 24.9873 21.447 24.9663 21.513L24.7443 22.2105C24.4643 22.0785 24.1548 21.9985 23.8253 21.9985H18.9723C18.9203 21.9985 18.8723 22.0095 18.8218 22.013L17.6738 17.051C17.5388 16.4715 17.9013 15.8905 18.4808 15.7565ZM23.3478 31.752C20.3913 31.752 18.0853 29.5055 18.0853 26.5495V25.661C18.0853 25.6575 18.0873 25.6545 18.0873 25.651V23.9385C18.0873 23.394 18.4588 22.999 18.9713 22.999H23.8243C24.4683 22.999 24.9923 23.523 24.9923 24.167C24.9923 24.811 24.4683 25.335 23.8243 25.335H21.1603C20.8843 25.335 20.6603 25.5585 20.6603 25.8345C20.6603 26.111 20.8833 26.3345 21.1598 26.335C21.5373 26.3355 21.9338 26.5205 22.2473 26.843C22.6848 27.2925 22.9153 27.946 22.8963 28.682C22.8893 28.9585 23.1073 29.188 23.3833 29.195C23.3883 29.195 23.3928 29.195 23.3968 29.195C23.6668 29.195 23.8888 28.9795 23.8963 28.708C23.9198 27.795 23.6508 26.9625 23.1338 26.335H23.8248C23.9223 26.335 24.0158 26.3185 24.1103 26.306C24.3638 26.775 24.7873 27.1355 25.3063 27.3005C25.5153 27.367 25.7273 27.3985 25.9358 27.3985C26.4918 27.3985 27.0228 27.1725 27.4103 26.785C27.6618 27.2 28.0508 27.5345 28.5483 27.693C28.5788 27.7025 28.6093 27.7065 28.6398 27.7145C28.0303 30.095 25.8178 31.752 23.3478 31.752Z" fill="white"/>
</svg>
