<svg width="48" height="48" viewBox="0 0 48 48" fill="none" xmlns="http://www.w3.org/2000/svg">
<path d="M23.6869 13.0126C25.6068 13.0126 27.528 13.0316 29.4479 13.0004C30.0486 12.9909 30.2845 13.1495 30.2804 13.7949C30.2551 17.6817 30.2551 21.5685 30.2804 25.4552C30.2804 26.0572 30.0703 26.2362 29.4913 26.2335C25.6045 26.2172 21.7178 26.2172 17.831 26.2335C17.2602 26.2335 17.0297 26.0722 17.0337 25.4634C17.0554 21.5766 17.0554 17.6898 17.0337 13.8031C17.0337 13.1685 17.2466 12.9895 17.8581 13.0018C19.7997 13.0329 21.7426 13.0126 23.6869 13.0126ZM26.5966 22.2256V17.0815H24.8421V19.522L24.6835 19.5912C24.1899 19.0231 23.6883 18.4631 23.2069 17.8855C22.449 16.9758 21.8511 16.8008 20.6918 17.1588V22.1849H22.491V19.4637C23.2259 20.322 23.8266 20.9931 24.3892 21.6955C24.6929 22.0724 25.0075 22.3097 25.5254 22.2378C25.8563 22.1849 26.1993 22.2256 26.5966 22.2256V22.2256Z" fill="white"/>
<path d="M17 27.1677H30.244C30.0053 27.485 29.8494 27.7101 29.6718 27.9229C28.9735 28.75 28.2834 29.5852 27.5512 30.3824C27.3541 30.5809 27.0903 30.6993 26.8109 30.7146C24.7134 30.7417 22.6078 30.735 20.5157 30.7228C20.3083 30.7228 20.0263 30.6794 19.9056 30.5438C18.9646 29.4876 18.0549 28.4043 17 27.1677Z" fill="white"/>
<path d="M23.6556 35L20.9438 31.7961H26.3578L23.6556 35Z" fill="white"/>
</svg>
